<svg id="Layer_1" data-name="Layer 1" xmlns="http://www.w3.org/2000/svg" viewBox="0 0 830.03 922.13"><defs><style>.cls-1{fill:#ffffff;}.cls-2{fill:#ffffff;}</style></defs><path class="cls-1" d="M563.62,412.85q-.07-43.23-.14-86.47c0-27.16.11-54.32-.05-81.48-.14-24-15.71-43.26-36.81-49.05-19.16-5.27-36.58-1.56-51.2,12.51C422,259.78,370.31,313,317.72,365.23c-21.38,21.25-42.9,42.38-63.67,64.26-12.12,12.76-17.17,28.08-14.22,44.9,3.28,18.61,14.27,32.38,32.35,39.52,23,9.1,42.37,2,58.93-14.46,41.3-40.94,82.3-82.18,123.43-123.3,1.37-1.37,2.8-2.67,4.34-4.14,1.33,2,.77,3.89.77,5.62q.06,42.24,0,84.48c0,15.22,4.16,28.86,15.2,39.94a51.17,51.17,0,0,0,37.22,15.56c29.5.18,59,.06,88.48.06H606c0,2.65-1.85,3.51-3,4.7q-90.63,90.72-181.38,181.29c-13.65,13.59-26.63,28-43.49,38.07-19.86,11.87-41,19.69-64,22.07-53.17,5.48-97.67-12.12-133.95-51-7.75-8.3-13.78-17.89-19.79-27.52a425.1,425.1,0,0,1-35.93-71.61,436.42,436.42,0,0,1-17.63-58.15c-3.42-14.59-5.41-29.52-7.24-44.46a382.77,382.77,0,0,1-1.74-69.66,415.12,415.12,0,0,1,123.63-271.6c57-55.66,124.47-92.38,202.38-109.46a364.37,364.37,0,0,1,67.43-8.66c10.11-.31,20.25-.93,30.36-.67,70.1,1.85,135.82,19.68,196.77,54.57A408.59,408.59,0,0,1,817.2,184.4C870,242,904.24,309,919.41,385.67A402.57,402.57,0,0,1,927,468.84a443.46,443.46,0,0,1-4.38,56.53c-11.11,79.15-43.42,148.51-94.6,209.47-13.2,15.72-28,29.88-42.47,44.41Q751,814,716.27,848.54q-61,60.94-121.83,122c-3.11,3.12-5.39,3.24-8.92,1.19-41.56-24.12-69.76-58.48-79.2-106.19-10.46-52.85,2.48-100.07,40-138.77,49.27-50.83,100-100.29,150-150.35,24.86-24.87,49.86-49.59,74.43-74.73,13.92-14.24,18-31.67,12.53-50.7-5.37-18.51-18-30.38-36.63-35.46a57.43,57.43,0,0,0-15.25-1.71q-82.23.15-164.46.08c-.84,0-1.68-.1-2.53-.15Z" transform="translate(-96.99 -50.94)"/><path class="cls-2" d="M563.62,412.85l.79.86C563.8,413.74,563.53,413.47,563.62,412.85Z" transform="translate(-96.99 -50.94)"/></svg>