<?xml version="1.0" encoding="utf-8"?>
<!-- Generator: Adobe Illustrator 26.0.2, SVG Export Plug-In . SVG Version: 6.00 Build 0)  -->
<svg version="1.1" id="Layer_1" xmlns="http://www.w3.org/2000/svg" xmlns:xlink="http://www.w3.org/1999/xlink" x="0px" y="0px" viewBox="0 400 250 230" style="enable-background:new 0 0 1920 1080;" xml:space="preserve">
	<style type="text/css">
	.st0{fill:#ffffff;}
	.st1{fill:#ffffff;}
	.st2{fill:#ffffff;}
	.st3{fill:#ffffff;}
	.st4{fill:#ffffff;}
	.st5{fill:#ffffff;}
</style>
	<g>
		<path class="st0" d="M118.45,602.58c-23.51,0-47.02-0.14-70.53,0.11c-5.08,0.05-7.03-0.96-6.96-6.56
		c0.31-24.69,0.19-49.39,0.09-74.08c-0.01-3.29,0.82-5.76,3.11-8.25c23.31-25.31,46.55-50.69,69.64-76.21
		c3.21-3.55,5.07-4.11,8.6-0.21c23.07,25.53,46.36,50.85,69.65,76.17c2.4,2.61,3.45,5.29,3.43,8.88
		c-0.14,24.69-0.23,49.39,0.05,74.08c0.06,5.28-1.82,6.19-6.55,6.15C165.47,602.47,141.96,602.58,118.45,602.58z M121.68,530.82
		c0.01,13.32,0.01,13.32,13.5,13.32c12.97,0,12.97,0,12.96-13.15c0-13.33,0-13.33-13.5-13.33
		C121.67,517.66,121.67,517.66,121.68,530.82z M114.34,531.13c0-13.47,0-13.47-12.61-13.47c-13.37,0-13.37,0-13.37,13.41
		c0,13.07,0,13.07,12.93,13.07C114.34,544.14,114.34,544.14,114.34,531.13z M134.65,577.37c13.5,0,13.5,0,13.5-11.91
		c0-13.85,0-13.85-13.67-13.85c-12.8,0-12.8,0-12.79,12.6C121.68,577.37,121.68,577.37,134.65,577.37z M100.58,577.34
		c13.74,0,13.74,0,13.73-12.97c-0.01-12.73-0.01-12.73-12.55-12.73c-13.38,0-13.38,0-13.38,13.33
		C88.38,577.34,88.38,577.34,100.58,577.34z M117.98,496.99c6.15,0.15,12.21-4.31,12.57-9.26c0.39-5.35-5.37-10.23-12.15-10.31
		c-6.78-0.08-12.69,4.55-12.57,9.85C105.94,492.27,111.66,496.84,117.98,496.99z" />
		<path class="st4" d="M21.98,517.28C34.07,504,45.51,491.4,57,478.83c19.08-20.87,38.21-41.69,57.24-62.6
		c2.59-2.85,4.25-4.2,7.62-0.47c29.36,32.39,58.93,64.59,88.38,96.9c1.19,1.31,3.04,2.34,3.15,5.01c-6.45,0.99-11.6,0.89-16.84-5
		c-24.47-27.51-49.63-54.4-74.35-81.69c-3.25-3.58-4.86-3.41-8.01,0.07c-24.58,27.1-49.56,53.84-73.92,81.13
		C35.23,517.83,30.18,519.18,21.98,517.28z" />
		<path class="st2" d="M52.25,478.19c0-11.74,0.04-21.38-0.03-31.02c-0.01-2.09,0.24-4.52-0.69-6.21c-3.39-6.19-1.26-8.06,5.12-7.78
		c5.9,0.25,11.83,0.22,17.74,0.01c4.79-0.17,5.32,2.53,3.92,5.84c-2.89,6.82-1.23,15.12-8.66,20.64
		C63.52,464.21,58.97,470.87,52.25,478.19z" />
	</g>
</svg>