<svg id="Layer_1" data-name="Layer 1" xmlns="http://www.w3.org/2000/svg" viewBox="0 0 238.94 243.91">
    <defs>
        <style>.cls-1{fill:#fff;}.cls-2{fill:#fff;}</style>
    </defs>
    <g id="tight-bounds">
        <circle class="cls-1" cx="119.48" cy="121.94" r="57.47" />
        <path class="cls-2" d="M28.56,161.43q-1.81,4.89-5.71,6.36t-9.64-.65h0Q7.54,165,5.55,161.4t-.16-8.54h0q1.82-4.92,5.69-6.4t9.55.62h0q5.72,2.11,7.74,5.77T28.56,161.43Zm-2.48-.92a6.68,6.68,0,0,0-.39-6.13q-1.7-2.7-6.15-4.38h0q-4.47-1.65-7.43-.68a6.74,6.74,0,0,0-4.25,4.43h0a6.69,6.69,0,0,0,.35,6.09c1.09,1.78,3.13,3.22,6.1,4.32h0c3,1.1,5.48,1.34,7.49.71A6.68,6.68,0,0,0,26.08,160.51Zm18-26.31c-.63.71-1.13.89-1.51.55h0l-16.86-15a1.06,1.06,0,0,1-.42-.73,1.13,1.13,0,0,1,.35-.75h0l3.87-4.37c1.84-2.07,3.59-3.31,5.25-3.7a5.28,5.28,0,0,1,4.87,1.52h0a6.21,6.21,0,0,1,2,3.2,6.36,6.36,0,0,1-.31,3.66h0l.11.1a3.26,3.26,0,0,1,2.12-.34,16.75,16.75,0,0,1,3.19.88h0l6.93,2.51a2.22,2.22,0,0,1,.42.25h0c.28.24.09.73-.56,1.47h0l-.23.26a2.61,2.61,0,0,1-.7.58.82.82,0,0,1-.63.08h0l-6.84-2.54a6.71,6.71,0,0,0-2.34-.49,3.79,3.79,0,0,0-1.85.54,7.8,7.8,0,0,0-1.78,1.56h0l-2.08,2.34,7.47,6.63c.39.34.27.85-.33,1.54h0Zm-8.92-10.11,3-3.42a4.45,4.45,0,0,0,1.06-2.08,4.52,4.52,0,0,0-.11-2.25,4,4,0,0,0-1.17-1.83h0a3.64,3.64,0,0,0-3.11-1.09,5.31,5.31,0,0,0-3,1.91h0L29,118.57ZM70.5,111.48a1.08,1.08,0,0,1-.82.15,1.15,1.15,0,0,1-.59-.58h0L58.78,91.42a1.1,1.1,0,0,1-.15-.83,1.13,1.13,0,0,1,.6-.58h0l6.19-3.27a10.64,10.64,0,0,1,8.25-1.07q3.93,1.17,6.89,6.79h0q3,5.64,1.73,9.56a10.56,10.56,0,0,1-5.55,6.19h0Zm.54-3.27L75.26,106a7.44,7.44,0,0,0,3.94-4.66c.55-2,.06-4.48-1.48-7.39h0A12.72,12.72,0,0,0,74.3,89.6a6.84,6.84,0,0,0-3.85-1.43,8.22,8.22,0,0,0-4,1h0l-4.22,2.22Zm36.11-10c-.92.17-1.43,0-1.52-.51h0l-4-22.52c-.1-.51.32-.85,1.24-1h0l.27-.05c.9-.16,1.4,0,1.49.53h0l4,22.53c.09.5-.32.83-1.22,1h0Zm24.13-.27a2.11,2.11,0,0,1-1-.35A.56.56,0,0,1,130,97h0l3.26-22.65c.08-.52.58-.71,1.51-.57h0l.71.1a2.13,2.13,0,0,1,.85.28,1.65,1.65,0,0,1,.5.58h0l8.58,18.13.73,2.08,2.65-18.36c.07-.52.56-.71,1.47-.58h.27c.9.13,1.31.45,1.23,1h0L148.5,99.66a.63.63,0,0,1-.42.52,2.11,2.11,0,0,1-1,0h0l-.69-.1a2,2,0,0,1-.76-.24.86.86,0,0,1-.39-.43h0l-8.85-18.7-.68-1.91L133,97.38c-.07.51-.56.69-1.47.56h-.28ZM166,107.6a3.08,3.08,0,0,1-.9-.7.5.5,0,0,1-.07-.57h0a1.72,1.72,0,0,1,.32-.34h0L184.1,90.61c.3-.26.79-.19,1.47.22h0l.87.52c.68.41,1,.8.9,1.19h0l-4.65,23.82a1,1,0,0,1-.14.43h0c-.21.34-.72.26-1.55-.24h0l-.27-.15c-.68-.41-1-.81-.9-1.2h0l1.17-5.93-8.75-5.21-4.63,3.86c-.29.26-.78.18-1.47-.23h0Zm8.42-5.33,7.12,4.26,2.17-10.72a7.08,7.08,0,0,1,.28-1c.13-.34.26-.68.39-1h-.07a9.48,9.48,0,0,1-1.49,1.48h0Zm21.65,28.23a2.22,2.22,0,0,1-.52-.95.67.67,0,0,1,.25-.63h0l18-14.15c.41-.32.9-.12,1.48.62h0l.76,1c.48.6.61,1.11.4,1.54h0l-4.87,12.24-1.14,2,2.11-.52,13.16-2a1.46,1.46,0,0,1,1.39.73h0l.72.91c.57.73.65,1.25.24,1.58h0L210,147c-.4.32-.89.11-1.46-.62h0l-.14-.17a2.4,2.4,0,0,1-.52-1,.62.62,0,0,1,.25-.6h0l14.75-11.46-.17,0-13.7,2a.9.9,0,0,1-.46,0,.71.71,0,0,1-.36-.28h0l-.86-1.09a.87.87,0,0,1-.14-.89h0l5.34-13.2-14.82,11.67c-.4.32-.89.11-1.45-.61h0ZM218,168.17c-.3-.88-.21-1.41.27-1.58h0l21.67-7.42c.49-.17.89.19,1.2,1.07h0l.09.26c.3.86.2,1.38-.29,1.55h0l-21.63,7.46c-.49.17-.88-.18-1.18-1h0ZM11,242.35q-1.82-4.89.2-8.58T18.94,228h0q5.7-2.12,9.59-.64t5.69,6.4h0q1.83,4.94-.15,8.59t-7.6,5.83h0q-5.74,2.13-9.67.64t-5.74-6.41Zm2.47-.91a6.71,6.71,0,0,0,4.31,4.41q3.06,1,7.54-.69h0c3-1.11,5-2.55,6.1-4.34a6.81,6.81,0,0,0,.35-6.15h0a6.74,6.74,0,0,0-4.26-4.42q-3-1-7.45.69h0q-4.5,1.67-6.19,4.35a6.67,6.67,0,0,0-.32,6.2Zm16.8,33.86q-.93-1.05-.36-1.56h0l16.91-15a1,1,0,0,1,.77-.34,1.14,1.14,0,0,1,.71.44h0l3.88,4.38q2.77,3.12,3.06,5.66a5.26,5.26,0,0,1-2.09,4.68h0a6.13,6.13,0,0,1-3.44,1.64,6.29,6.29,0,0,1-3.61-.73h0l-.1.09a3.21,3.21,0,0,1,.1,2.16,17.89,17.89,0,0,1-1.27,3.07h0l-3.34,6.6a2.19,2.19,0,0,1-.29.39h0c-.28.24-.74,0-1.39-.72h0l-.24-.28a2.11,2.11,0,0,1-.47-.77.7.7,0,0,1,0-.63h0l3.34-6.51a6.71,6.71,0,0,0,.77-2.27,3.8,3.8,0,0,0-.31-1.91,8.18,8.18,0,0,0-1.35-2h0l-2.08-2.34L32,276c-.38.34-.88.17-1.5-.53h0Zm11.15-7.67,3,3.42a4.5,4.5,0,0,0,4.2,1.46,3.87,3.87,0,0,0,2-.94h0a3.67,3.67,0,0,0,1.46-3,5.34,5.34,0,0,0-1.54-3.25h0l-2.8-3.15ZM62,302a1.09,1.09,0,0,1-.59-.6,1,1,0,0,1,.14-.81h0L71.92,280.9a1,1,0,0,1,.6-.59,1.18,1.18,0,0,1,.82.16h0l6.21,3.27A10.71,10.71,0,0,1,85.13,290q1.26,3.93-1.71,9.56h0q-3,5.67-6.94,6.86a10.72,10.72,0,0,1-8.28-1.09h0Zm3-1.4,4.23,2.23a7.37,7.37,0,0,0,6.1.61c2-.67,3.76-2.47,5.27-5.42h0a12.55,12.55,0,0,0,1.65-5.3,6.62,6.62,0,0,0-1-4A8.09,8.09,0,0,0,78.14,286h0L74,283.78Zm39,16.6c-.93-.16-1.35-.5-1.25-1h0l4-22.6c.09-.52.6-.69,1.52-.53h.27c.91.16,1.32.49,1.23,1h0l-4,22.6c-.09.5-.59.67-1.51.51h0Zm29.94.38a2.19,2.19,0,0,1-1.08,0,.63.63,0,0,1-.42-.52h0l-3.27-22.73c-.08-.52.35-.84,1.28-1h0l.71-.11a2.22,2.22,0,0,1,.89,0,1.66,1.66,0,0,1,.65.42h0l13.39,15,1.3,1.78L144.71,292c-.07-.52.34-.84,1.25-1h.27c.91-.13,1.4.06,1.47.58h0l3.3,22.69a.64.64,0,0,1-.25.62,2.21,2.21,0,0,1-1,.34h0l-.7.1a2.15,2.15,0,0,1-.8,0,.82.82,0,0,1-.49-.3h0l-13.82-15.45-1.18-1.66,2.69,18.64c.07.51-.35.83-1.27,1h-.25Zm41.52-12.07a2.93,2.93,0,0,1-1.06.45.46.46,0,0,1-.52-.19h0a1.7,1.7,0,0,1-.15-.45h0l-4.65-23.89c-.08-.38.22-.78.89-1.18h0l.88-.53c.69-.41,1.18-.49,1.48-.23h0l18.83,15.45a1,1,0,0,1,.31.33h0c.2.34-.13.76-1,1.26h0l-.25.15c-.69.42-1.2.5-1.51.25h0L184,293l-8.77,5.23,1.21,5.93c.09.38-.21.78-.91,1.19h0Zm-.68-10L182,291.3l-8.44-7a6.81,6.81,0,0,1-.7-.72c-.26-.28-.49-.56-.7-.83H172a11.75,11.75,0,0,1,.59,2h0Zm35.79-17.31a2.33,2.33,0,0,1-.81.72.61.61,0,0,1-.66-.09h0l-18-14.21c-.41-.32-.32-.85.26-1.59h0l.76-1c.47-.6.94-.85,1.41-.76h0l13,1.91,2.28.64-1-2-5-12.37a1.44,1.44,0,0,1,.39-1.52h0l.72-.92c.57-.73,1.07-.93,1.48-.61h0l18,14.21c.4.32.31.84-.26,1.57h0l-.15.19a2.33,2.33,0,0,1-.81.72.65.65,0,0,1-.67-.09h0l-14.72-11.6.09.15L212,264.41a.89.89,0,0,1,.07.46.81.81,0,0,1-.19.42h0l-.86,1.09a.84.84,0,0,1-.84.34h0l-14.11-2.1,14.83,11.8c.4.32.31.84-.26,1.57h0Zm24.89-43.07c-.3.89-.7,1.25-1.18,1.08h0l-21.71-7.49c-.49-.17-.58-.7-.28-1.58h0l.09-.26c.3-.88.7-1.23,1.19-1.06h0l21.71,7.49c.48.16.57.69.27,1.56h0Zm-233-36.45A9.37,9.37,0,1,1,11.88,208h-.07a9.37,9.37,0,0,1-9.33-9.35Zm219.84,0a9.37,9.37,0,1,1,9.38,9.36h0a9.37,9.37,0,0,1-9.34-9.35Z" transform="translate(-2.46 -73.74)" />
    </g>
</svg>