<svg id="Layer_1" data-name="Layer 1" xmlns="http://www.w3.org/2000/svg" viewBox="0 0 564.09 564.09"><defs><style>.cls-1,.cls-2{fill:none;stroke:#ffffff;stroke-miterlimit:10;stroke-width:20px;}.cls-2{stroke-linecap:round;}</style></defs><rect class="cls-1" x="10" y="10" width="544.09" height="544.09" rx="272.04"/><path class="cls-2" d="M-394.56,560.59c2.3,0,0-174.64,0-174.64s1.53-54.39,40.6-64.34" transform="translate(674.79 -230.29)"/><path class="cls-2" d="M-485.71,475.56h-5.74a37.91,37.91,0,0,1-37.92-37.91h0a37.92,37.92,0,0,1,37.92-37.92h146.68a19.15,19.15,0,0,0,19.15-19.14h0" transform="translate(674.79 -230.29)"/><path class="cls-2" d="M-438.47,399.73V599.35a22.47,22.47,0,0,1-22.47,22.47h0" transform="translate(674.79 -230.29)"/><line class="cls-2" x1="281.24" y1="275.15" x2="396.66" y2="275.15"/><path class="cls-2" d="M-314.13,510.78V655a48.07,48.07,0,0,1-48.07,48.07h-8A48.07,48.07,0,0,1-418.3,655h0a48.07,48.07,0,0,1,48.07-48.06h4" transform="translate(674.79 -230.29)"/></svg>