<svg xmlns="http://www.w3.org/2000/svg" xmlns:xlink="http://www.w3.org/1999/xlink" viewBox="0 0 353.92 395.82"><defs><style>.cls-1,.cls-25{fill:none;}.cls-2{isolation:isolate;}.cls-3{fill:#242b3d;}.cls-4{fill:#3e4e75;}.cls-5{fill:#5d99fa;}.cls-6{fill:#b875d0;}.cls-7{fill:#f56eab;}.cls-12,.cls-164,.cls-18,.cls-8{fill:#fff;}.cls-164,.cls-24,.cls-33,.cls-8{mix-blend-mode:overlay;}.cls-8{opacity:0.2;}.cls-9{fill:#7dd075;}.cls-10{fill:#6ef5c8;}.cls-11{fill:#5e93ff;}.cls-13{fill:#8c5e4c;}.cls-14{fill:url(#linear-gradient);}.cls-15{fill:url(#linear-gradient-2);}.cls-16{fill:#eda468;}.cls-17{fill:#b57962;}.cls-18{opacity:0.3;}.cls-19{fill:#c8c8e5;}.cls-20{fill:#acacd1;}.cls-21{fill:url(#linear-gradient-3);}.cls-22{fill:#a9d1b5;mix-blend-mode:multiply;}.cls-23{clip-path:url(#clip-path);}.cls-24{opacity:0.5;}.cls-25{stroke:#fff;stroke-linejoin:round;stroke-width:0.5px;}.cls-26{fill:url(#linear-gradient-4);}.cls-27{clip-path:url(#clip-path-2);}.cls-28{fill:url(#linear-gradient-5);}.cls-29{clip-path:url(#clip-path-3);}.cls-30{fill:#614134;}.cls-31{fill:#9c6854;}.cls-32{fill:#fcbb86;}.cls-33{fill:#fffbf7;}.cls-164,.cls-33{opacity:0.4;}.cls-34{fill:#1c2229;}.cls-35{fill:url(#linear-gradient-6);}.cls-36{fill:#b0b2c9;}.cls-37{fill:#7c80a6;}.cls-38{fill:url(#linear-gradient-7);}.cls-39{fill:url(#linear-gradient-8);}.cls-40{fill:url(#linear-gradient-9);}.cls-41{fill:url(#linear-gradient-10);}.cls-42{fill:url(#linear-gradient-11);}.cls-43{fill:url(#linear-gradient-12);}.cls-44{fill:url(#linear-gradient-13);}.cls-45{fill:url(#linear-gradient-14);}.cls-46{fill:url(#linear-gradient-15);}.cls-47{fill:url(#linear-gradient-16);}.cls-48{fill:url(#linear-gradient-17);}.cls-49{fill:url(#linear-gradient-18);}.cls-50{fill:url(#linear-gradient-19);}.cls-51{fill:url(#linear-gradient-20);}.cls-52{fill:url(#linear-gradient-21);}.cls-53{fill:url(#linear-gradient-22);}.cls-54{fill:url(#linear-gradient-23);}.cls-55{fill:url(#linear-gradient-24);}.cls-56{fill:url(#linear-gradient-25);}.cls-57{fill:url(#linear-gradient-26);}.cls-58{fill:url(#linear-gradient-27);}.cls-59{fill:url(#linear-gradient-28);}.cls-60{fill:url(#linear-gradient-29);}.cls-61{fill:url(#linear-gradient-30);}.cls-62{fill:url(#linear-gradient-31);}.cls-63{fill:url(#linear-gradient-32);}.cls-64{fill:url(#linear-gradient-33);}.cls-65{fill:url(#linear-gradient-34);}.cls-66{fill:url(#linear-gradient-35);}.cls-67{fill:url(#linear-gradient-36);}.cls-68{fill:url(#linear-gradient-37);}.cls-69{fill:url(#linear-gradient-38);}.cls-70{fill:url(#linear-gradient-39);}.cls-71{fill:url(#linear-gradient-40);}.cls-72{fill:url(#linear-gradient-41);}.cls-73{fill:url(#linear-gradient-42);}.cls-74{fill:url(#linear-gradient-43);}.cls-75{fill:url(#linear-gradient-44);}.cls-76{fill:url(#linear-gradient-45);}.cls-77{fill:url(#linear-gradient-46);}.cls-78{fill:url(#linear-gradient-47);}.cls-79{fill:url(#linear-gradient-48);}.cls-80{fill:url(#linear-gradient-49);}.cls-81{fill:url(#linear-gradient-50);}.cls-82{fill:url(#linear-gradient-51);}.cls-83{fill:url(#linear-gradient-52);}.cls-84{fill:url(#linear-gradient-53);}.cls-85{fill:url(#linear-gradient-54);}.cls-86{fill:url(#linear-gradient-55);}.cls-87{fill:url(#linear-gradient-56);}.cls-88{fill:url(#linear-gradient-57);}.cls-89{fill:url(#linear-gradient-58);}.cls-90{fill:url(#linear-gradient-59);}.cls-91{fill:url(#linear-gradient-60);}.cls-92{fill:url(#linear-gradient-61);}.cls-93{fill:url(#linear-gradient-62);}.cls-94{fill:url(#linear-gradient-63);}.cls-95{fill:url(#linear-gradient-64);}.cls-96{fill:url(#linear-gradient-65);}.cls-97{fill:url(#linear-gradient-66);}.cls-98{fill:url(#linear-gradient-67);}.cls-99{fill:url(#linear-gradient-68);}.cls-100{fill:url(#linear-gradient-69);}.cls-101{fill:url(#linear-gradient-70);}.cls-102{fill:url(#linear-gradient-71);}.cls-103{fill:url(#linear-gradient-72);}.cls-104{fill:url(#linear-gradient-73);}.cls-105{fill:url(#linear-gradient-74);}.cls-106{fill:url(#linear-gradient-75);}.cls-107{fill:url(#linear-gradient-76);}.cls-108{fill:url(#linear-gradient-77);}.cls-109{fill:url(#linear-gradient-78);}.cls-110{fill:url(#linear-gradient-79);}.cls-111{fill:url(#linear-gradient-80);}.cls-112{fill:url(#linear-gradient-81);}.cls-113{fill:url(#linear-gradient-82);}.cls-114{fill:url(#linear-gradient-83);}.cls-115{fill:url(#linear-gradient-84);}.cls-116{fill:url(#linear-gradient-85);}.cls-117{fill:url(#linear-gradient-86);}.cls-118{fill:url(#linear-gradient-87);}.cls-119{fill:url(#linear-gradient-88);}.cls-120{fill:url(#linear-gradient-89);}.cls-121{fill:url(#linear-gradient-90);}.cls-122{fill:url(#linear-gradient-91);}.cls-123{fill:url(#linear-gradient-92);}.cls-124{fill:url(#linear-gradient-93);}.cls-125{fill:#c27d5d;}.cls-126{fill:#5274ab;}.cls-127{fill:#1e202b;}.cls-128{fill:#2d3041;}.cls-129{fill:#7f5545;}.cls-130{fill:#976552;}.cls-131{fill:#614135;}.cls-132,.cls-133,.cls-134,.cls-135,.cls-136,.cls-137,.cls-138,.cls-141,.cls-142,.cls-143,.cls-144{fill-rule:evenodd;}.cls-132{fill:url(#linear-gradient-94);}.cls-133{fill:url(#linear-gradient-95);}.cls-134{fill:url(#linear-gradient-96);}.cls-135{fill:#fdddc8;}.cls-136{fill:url(#linear-gradient-97);}.cls-137{fill:url(#linear-gradient-98);}.cls-138{fill:url(#linear-gradient-99);}.cls-139{fill:#395075;}.cls-140{fill:#3c547d;}.cls-141{fill:url(#linear-gradient-100);}.cls-142{fill:#cf8f5b;}.cls-143{fill:#7d4a41;}.cls-144{fill:#d9c8c5;}.cls-145{fill:#7495cc;}.cls-146{fill:#6f4d50;}.cls-147{fill:#2c3340;}.cls-148{fill:url(#linear-gradient-101);}.cls-149{fill:url(#linear-gradient-102);}.cls-150{fill:#697a9c;}.cls-151{fill:url(#linear-gradient-103);}.cls-152{fill:url(#linear-gradient-104);}.cls-153{fill:url(#linear-gradient-105);}.cls-154{fill:url(#linear-gradient-106);}.cls-155{fill:url(#linear-gradient-107);}.cls-156{fill:url(#linear-gradient-108);}.cls-157{fill:url(#linear-gradient-109);}.cls-158{fill:url(#linear-gradient-110);}.cls-159{fill:url(#linear-gradient-111);}.cls-160{fill:url(#linear-gradient-112);}.cls-161{fill:#363e4f;}.cls-162{fill:url(#linear-gradient-113);}.cls-163{fill:url(#linear-gradient-114);}.cls-165{fill:url(#linear-gradient-115);}.cls-166{fill:url(#linear-gradient-116);}.cls-167{fill:url(#linear-gradient-117);}.cls-168{fill:url(#linear-gradient-118);}.cls-169{clip-path:url(#clip-path-4);}.cls-170{fill:url(#linear-gradient-119);}.cls-171{clip-path:url(#clip-path-5);}.cls-172{fill:url(#linear-gradient-120);}.cls-173{clip-path:url(#clip-path-6);}.cls-174{fill:url(#linear-gradient-121);}.cls-175{fill:url(#linear-gradient-122);}.cls-176{fill:url(#linear-gradient-123);}.cls-177{fill:#424b60;}.cls-178{fill:#8194bc;}.cls-179{fill:#ffcc0c;}.cls-180{fill:#ffc003;}.cls-181{fill:#e8356c;}.cls-182{fill:#3aa6ff;}</style><linearGradient id="linear-gradient" x1="59.37" y1="245.46" x2="89.87" y2="193.62" gradientUnits="userSpaceOnUse"><stop offset="0" stop-color="#f7f7ff"/><stop offset="1" stop-color="#bebee0"/></linearGradient><linearGradient id="linear-gradient-2" x1="87.22" y1="258.13" x2="123.05" y2="176.29" xlink:href="#linear-gradient"/><linearGradient id="linear-gradient-3" x1="430.43" y1="755.78" x2="444.16" y2="701.38" gradientTransform="matrix(-0.98, -0.21, -0.21, 0.98, 745.83, -417.4)" gradientUnits="userSpaceOnUse"><stop offset="0" stop-color="#346d4d"/><stop offset="1" stop-color="#8ac45e"/></linearGradient><clipPath id="clip-path" transform="translate(-80.09 -52.09)"><path class="cls-1" d="M169.67,249.58c2.76-5.61,7.45-4.78,9.34-10.82,1.6-6.1-2.76-6.56-1.58-12.51.89-6,4.86-5.86,4.84-12.05-.31-6.17-3.85-6-4.49-11.95-.92-5.91,2.15-6.32.29-12.22-2.13-5.82-4.7-5.26-7.1-10.77-2.66-5.42-.63-6.11-4.25-11.29-3.88-5-7.36-6.35-11.46-11-2.49,5.7-5.4,8-7.57,14-1.87,6,.27,6.07-.62,12-.61,6-3.23,6.23-3.49,12.41,0,6.19,3.07,5.65,4,11.55,1.19,5.86-2.23,6.79-.65,12.76,1.86,5.91,5.61,4.6,8.28,10,2.92,5.31-1.09,7.08,2.29,12.4C161.13,247.29,165.34,245.07,169.67,249.58Z"/></clipPath><linearGradient id="linear-gradient-4" x1="-749.86" y1="155.5" x2="-737.8" y2="107.7" gradientTransform="matrix(-0.9, 0.44, 0.44, 0.9, -589.41, 432.12)" xlink:href="#linear-gradient-3"/><clipPath id="clip-path-2" transform="translate(-80.09 -52.09)"><path class="cls-1" d="M167.58,251.79c-1.17-5.37,2.51-7.36.5-12.55-2.24-5.06-5.49-3-7.93-7.73-2.66-4.59.13-6.69-3.27-10.93-3.59-4.08-5.94-2-9.63-5.76-3.86-3.56-2-5.52-6.49-8.56-4.65-2.83-6.11-1-10.78-3.52-4.8-2.26-3.77-3.85-9.1-5.43C115.46,196,112.35,197,107,196c1.41,5.28.67,8.46,2.45,13.76,2,5.17,3.52,4,6.17,8.62,2.86,4.45,1.19,6.05,4.4,10.45,3.4,4.24,5.2,2.2,9.06,5.75,4,3.37,2.18,5.89,6.54,9.13,4.51,3,6.37.08,11.17,2.34,4.91,2,3.12,5.47,8.36,7.27C160.46,254.89,162.14,251.07,167.58,251.79Z"/></clipPath><linearGradient id="linear-gradient-5" x1="1133.9" y1="3972.43" x2="1145.96" y2="3924.63" gradientTransform="matrix(-0.5, -0.86, -0.86, 0.5, 4184.88, -785.41)" xlink:href="#linear-gradient-3"/><clipPath id="clip-path-3" transform="translate(-80.09 -52.09)"><path class="cls-1" d="M171.59,249.4c5.27-1.54,7.51,2,12.55-.38,4.9-2.59,2.61-5.69,7.16-8.46,4.39-3,6.68-.34,10.67-4,3.82-3.86,1.61-6.06,5.07-10,3.28-4.1,5.37-2.36,8.08-7.07,2.5-4.84.61-6.16,2.76-11,1.92-4.94,3.58-4,4.78-9.46,1-5.5-.26-8.53.32-14-5.17,1.78-8.39,1.27-13.55,3.42-5,2.37-3.77,3.78-8.16,6.75-4.24,3.16-6,1.61-10.12,5.12-4,3.69-1.83,5.35-5.1,9.45-3.08,4.25-5.72,2.58-8.64,7.16-2.72,4.71.36,6.36-1.56,11.3-1.7,5.05-5.23,3.51-6.67,8.85C168,242.51,171.93,243.92,171.59,249.4Z"/></clipPath><linearGradient id="linear-gradient-6" x1="223.48" y1="174.77" x2="241.15" y2="250.94" gradientUnits="userSpaceOnUse"><stop offset="0" stop-color="#405078"/><stop offset="1" stop-color="#252e45"/></linearGradient><linearGradient id="linear-gradient-7" x1="254.71" y1="234.76" x2="294.02" y2="203.38" gradientTransform="translate(-59.02)" gradientUnits="userSpaceOnUse"><stop offset="0" stop-color="#fff"/><stop offset="1" stop-color="#cecfdb"/></linearGradient><linearGradient id="linear-gradient-8" x1="246.71" y1="204.1" x2="300.73" y2="233.29" gradientTransform="translate(-59.02)" gradientUnits="userSpaceOnUse"><stop offset="0" stop-color="#333e4a"/><stop offset="1" stop-color="#222931"/></linearGradient><linearGradient id="linear-gradient-9" x1="249.25" y1="199.41" x2="303.27" y2="228.6" xlink:href="#linear-gradient-8"/><linearGradient id="linear-gradient-10" x1="249.2" y1="199.49" x2="303.23" y2="228.69" xlink:href="#linear-gradient-8"/><linearGradient id="linear-gradient-11" x1="249.15" y1="199.56" x2="303.19" y2="228.77" xlink:href="#linear-gradient-8"/><linearGradient id="linear-gradient-12" x1="248.13" y1="201.46" x2="302.16" y2="230.66" xlink:href="#linear-gradient-8"/><linearGradient id="linear-gradient-13" x1="248.09" y1="201.54" x2="302.12" y2="230.74" xlink:href="#linear-gradient-8"/><linearGradient id="linear-gradient-14" x1="249.11" y1="199.65" x2="303.14" y2="228.85" xlink:href="#linear-gradient-8"/><linearGradient id="linear-gradient-15" x1="246.8" y1="203.94" x2="300.82" y2="233.13" xlink:href="#linear-gradient-8"/><linearGradient id="linear-gradient-16" x1="245.5" y1="206.34" x2="299.53" y2="235.53" xlink:href="#linear-gradient-8"/><linearGradient id="linear-gradient-17" x1="248.05" y1="201.62" x2="302.07" y2="230.82" xlink:href="#linear-gradient-8"/><linearGradient id="linear-gradient-18" x1="249.07" y1="199.73" x2="303.09" y2="228.93" xlink:href="#linear-gradient-8"/><linearGradient id="linear-gradient-19" x1="246.75" y1="204.02" x2="300.78" y2="233.21" xlink:href="#linear-gradient-8"/><linearGradient id="linear-gradient-20" x1="245.46" y1="206.42" x2="299.48" y2="235.61" xlink:href="#linear-gradient-8"/><linearGradient id="linear-gradient-21" x1="249.03" y1="199.82" x2="303.05" y2="229.01" xlink:href="#linear-gradient-8"/><linearGradient id="linear-gradient-22" x1="244.18" y1="208.77" x2="298.21" y2="237.97" xlink:href="#linear-gradient-8"/><linearGradient id="linear-gradient-23" x1="245.41" y1="206.5" x2="299.44" y2="235.69" xlink:href="#linear-gradient-8"/><linearGradient id="linear-gradient-24" x1="247.98" y1="201.74" x2="302.01" y2="230.94" xlink:href="#linear-gradient-8"/><linearGradient id="linear-gradient-25" x1="244.14" y1="208.86" x2="298.16" y2="238.05" xlink:href="#linear-gradient-8"/><linearGradient id="linear-gradient-26" x1="248.98" y1="199.9" x2="303.01" y2="229.09" xlink:href="#linear-gradient-8"/><linearGradient id="linear-gradient-27" x1="246.65" y1="204.21" x2="300.68" y2="233.41" xlink:href="#linear-gradient-8"/><linearGradient id="linear-gradient-28" x1="247.9" y1="201.86" x2="301.94" y2="231.07" xlink:href="#linear-gradient-8"/><linearGradient id="linear-gradient-29" x1="244.08" y1="208.98" x2="298.1" y2="238.17" xlink:href="#linear-gradient-8"/><linearGradient id="linear-gradient-30" x1="245.34" y1="206.63" x2="299.36" y2="235.83" xlink:href="#linear-gradient-8"/><linearGradient id="linear-gradient-31" x1="246.58" y1="204.32" x2="300.61" y2="233.52" xlink:href="#linear-gradient-8"/><linearGradient id="linear-gradient-32" x1="242.74" y1="211.44" x2="296.77" y2="240.64" xlink:href="#linear-gradient-8"/><linearGradient id="linear-gradient-33" x1="244.01" y1="209.1" x2="298.03" y2="238.29" xlink:href="#linear-gradient-8"/><linearGradient id="linear-gradient-34" x1="245.27" y1="206.78" x2="299.29" y2="235.97" xlink:href="#linear-gradient-8"/><linearGradient id="linear-gradient-35" x1="243.96" y1="209.18" x2="297.99" y2="238.38" xlink:href="#linear-gradient-8"/><linearGradient id="linear-gradient-36" x1="242.66" y1="211.61" x2="296.68" y2="240.8" xlink:href="#linear-gradient-8"/><linearGradient id="linear-gradient-37" x1="242.7" y1="211.52" x2="296.72" y2="240.72" xlink:href="#linear-gradient-8"/><linearGradient id="linear-gradient-38" x1="242.79" y1="211.36" x2="296.81" y2="240.55" xlink:href="#linear-gradient-8"/><linearGradient id="linear-gradient-39" x1="242.84" y1="211.29" x2="296.85" y2="240.48" xlink:href="#linear-gradient-8"/><linearGradient id="linear-gradient-40" x1="245.67" y1="206.02" x2="299.7" y2="235.21" xlink:href="#linear-gradient-8"/><linearGradient id="linear-gradient-41" x1="244.53" y1="208.14" x2="298.55" y2="237.33" xlink:href="#linear-gradient-8"/><linearGradient id="linear-gradient-42" x1="245.91" y1="205.59" x2="299.93" y2="234.78" xlink:href="#linear-gradient-8"/><linearGradient id="linear-gradient-43" x1="247.24" y1="203.12" x2="301.26" y2="232.31" xlink:href="#linear-gradient-8"/><linearGradient id="linear-gradient-44" x1="243.31" y1="210.4" x2="297.33" y2="239.59" xlink:href="#linear-gradient-8"/><linearGradient id="linear-gradient-45" x1="249.59" y1="198.77" x2="303.62" y2="227.97" xlink:href="#linear-gradient-8"/><linearGradient id="linear-gradient-46" x1="248.53" y1="200.74" x2="302.55" y2="229.93" xlink:href="#linear-gradient-8"/><linearGradient id="linear-gradient-47" x1="247.19" y1="203.22" x2="301.22" y2="232.42" xlink:href="#linear-gradient-8"/><linearGradient id="linear-gradient-48" x1="249.55" y1="198.85" x2="303.57" y2="228.05" xlink:href="#linear-gradient-8"/><linearGradient id="linear-gradient-49" x1="249.51" y1="198.93" x2="303.53" y2="228.12" xlink:href="#linear-gradient-8"/><linearGradient id="linear-gradient-50" x1="249.46" y1="199.01" x2="303.48" y2="228.2" xlink:href="#linear-gradient-8"/><linearGradient id="linear-gradient-51" x1="249.41" y1="199.09" x2="303.44" y2="228.29" xlink:href="#linear-gradient-8"/><linearGradient id="linear-gradient-52" x1="248.35" y1="201.06" x2="302.38" y2="230.26" xlink:href="#linear-gradient-8"/><linearGradient id="linear-gradient-53" x1="248.39" y1="200.98" x2="302.42" y2="230.18" xlink:href="#linear-gradient-8"/><linearGradient id="linear-gradient-54" x1="248.44" y1="200.9" x2="302.46" y2="230.1" xlink:href="#linear-gradient-8"/><linearGradient id="linear-gradient-55" x1="248.48" y1="200.82" x2="302.51" y2="230.02" xlink:href="#linear-gradient-8"/><linearGradient id="linear-gradient-56" x1="247.14" y1="203.3" x2="301.17" y2="232.49" xlink:href="#linear-gradient-8"/><linearGradient id="linear-gradient-57" x1="245.85" y1="205.7" x2="299.87" y2="234.89" xlink:href="#linear-gradient-8"/><linearGradient id="linear-gradient-58" x1="244.6" y1="208.01" x2="298.62" y2="237.2" xlink:href="#linear-gradient-8"/><linearGradient id="linear-gradient-59" x1="245.8" y1="205.77" x2="299.84" y2="234.98" xlink:href="#linear-gradient-8"/><linearGradient id="linear-gradient-60" x1="246.84" y1="203.86" x2="300.86" y2="233.05" xlink:href="#linear-gradient-8"/><linearGradient id="linear-gradient-61" x1="249.38" y1="199.17" x2="303.39" y2="228.37" xlink:href="#linear-gradient-8"/><linearGradient id="linear-gradient-62" x1="249.33" y1="199.25" x2="303.35" y2="228.45" xlink:href="#linear-gradient-8"/><linearGradient id="linear-gradient-63" x1="248.26" y1="201.22" x2="302.29" y2="230.42" xlink:href="#linear-gradient-8"/><linearGradient id="linear-gradient-64" x1="246.92" y1="203.7" x2="300.95" y2="232.9" xlink:href="#linear-gradient-8"/><linearGradient id="linear-gradient-65" x1="249.29" y1="199.33" x2="303.31" y2="228.52" xlink:href="#linear-gradient-8"/><linearGradient id="linear-gradient-66" x1="248.22" y1="201.3" x2="302.25" y2="230.5" xlink:href="#linear-gradient-8"/><linearGradient id="linear-gradient-67" x1="246.89" y1="203.78" x2="300.91" y2="232.97" xlink:href="#linear-gradient-8"/><linearGradient id="linear-gradient-68" x1="247.1" y1="203.38" x2="301.13" y2="232.57" xlink:href="#linear-gradient-8"/><linearGradient id="linear-gradient-69" x1="247.06" y1="203.46" x2="301.08" y2="232.65" xlink:href="#linear-gradient-8"/><linearGradient id="linear-gradient-70" x1="245.76" y1="205.86" x2="299.79" y2="235.05" xlink:href="#linear-gradient-8"/><linearGradient id="linear-gradient-71" x1="248.3" y1="201.14" x2="302.34" y2="230.34" xlink:href="#linear-gradient-8"/><linearGradient id="linear-gradient-72" x1="244.49" y1="208.22" x2="298.51" y2="237.41" xlink:href="#linear-gradient-8"/><linearGradient id="linear-gradient-73" x1="247.01" y1="203.54" x2="301.04" y2="232.74" xlink:href="#linear-gradient-8"/><linearGradient id="linear-gradient-74" x1="245.72" y1="205.94" x2="299.74" y2="235.13" xlink:href="#linear-gradient-8"/><linearGradient id="linear-gradient-75" x1="244.44" y1="208.3" x2="298.47" y2="237.49" xlink:href="#linear-gradient-8"/><linearGradient id="linear-gradient-76" x1="243.17" y1="210.65" x2="297.19" y2="239.85" xlink:href="#linear-gradient-8"/><linearGradient id="linear-gradient-77" x1="246.96" y1="203.62" x2="301" y2="232.82" xlink:href="#linear-gradient-8"/><linearGradient id="linear-gradient-78" x1="244.4" y1="208.38" x2="298.42" y2="237.57" xlink:href="#linear-gradient-8"/><linearGradient id="linear-gradient-79" x1="243.12" y1="210.73" x2="297.15" y2="239.93" xlink:href="#linear-gradient-8"/><linearGradient id="linear-gradient-80" x1="245.63" y1="206.1" x2="299.66" y2="235.3" xlink:href="#linear-gradient-8"/><linearGradient id="linear-gradient-81" x1="244.35" y1="208.46" x2="298.38" y2="237.66" xlink:href="#linear-gradient-8"/><linearGradient id="linear-gradient-82" x1="245.59" y1="206.18" x2="299.61" y2="235.37" xlink:href="#linear-gradient-8"/><linearGradient id="linear-gradient-83" x1="244.31" y1="208.54" x2="298.33" y2="237.73" xlink:href="#linear-gradient-8"/><linearGradient id="linear-gradient-84" x1="245.54" y1="206.26" x2="299.57" y2="235.45" xlink:href="#linear-gradient-8"/><linearGradient id="linear-gradient-85" x1="244.26" y1="208.62" x2="298.29" y2="237.82" xlink:href="#linear-gradient-8"/><linearGradient id="linear-gradient-86" x1="244.23" y1="208.7" x2="298.25" y2="237.89" xlink:href="#linear-gradient-8"/><linearGradient id="linear-gradient-87" x1="242.98" y1="211.01" x2="297" y2="240.2" xlink:href="#linear-gradient-8"/><linearGradient id="linear-gradient-88" x1="243.25" y1="210.49" x2="297.28" y2="239.69" xlink:href="#linear-gradient-8"/><linearGradient id="linear-gradient-89" x1="243.21" y1="210.57" x2="297.24" y2="239.77" xlink:href="#linear-gradient-8"/><linearGradient id="linear-gradient-90" x1="249.64" y1="198.68" x2="303.66" y2="227.88" xlink:href="#linear-gradient-8"/><linearGradient id="linear-gradient-91" x1="248.57" y1="200.65" x2="302.61" y2="229.86" xlink:href="#linear-gradient-8"/><linearGradient id="linear-gradient-92" x1="248.18" y1="201.38" x2="302.2" y2="230.57" xlink:href="#linear-gradient-8"/><linearGradient id="linear-gradient-93" x1="240.53" y1="207.83" x2="269.96" y2="237.56" xlink:href="#linear-gradient-7"/><linearGradient id="linear-gradient-94" x1="4432.15" y1="212.07" x2="4431.39" y2="214.51" gradientTransform="matrix(-1, 0, 0, 1, 4620.61, 0)" gradientUnits="userSpaceOnUse"><stop offset="0" stop-color="#fdddc8"/><stop offset="1" stop-color="#f8b4a8"/></linearGradient><linearGradient id="linear-gradient-95" x1="4429.63" y1="213.1" x2="4428.44" y2="217.43" xlink:href="#linear-gradient-94"/><linearGradient id="linear-gradient-96" x1="4427.77" y1="214.05" x2="4425.87" y2="219.32" xlink:href="#linear-gradient-94"/><linearGradient id="linear-gradient-97" x1="4473.06" y1="230.03" x2="4486.82" y2="228.09" gradientTransform="matrix(-1, 0, 0, 1, 4620.61, 0)" gradientUnits="userSpaceOnUse"><stop offset="0" stop-color="#fbd1be"/><stop offset="1" stop-color="#f8b4a8"/></linearGradient><linearGradient id="linear-gradient-98" x1="4429.52" y1="222.43" x2="4435.14" y2="221.64" xlink:href="#linear-gradient-97"/><linearGradient id="linear-gradient-99" x1="4469.64" y1="212.58" x2="4493.81" y2="197.14" xlink:href="#linear-gradient-97"/><linearGradient id="linear-gradient-100" x1="4408.06" y1="232.84" x2="4412.96" y2="232.15" xlink:href="#linear-gradient-97"/><linearGradient id="linear-gradient-101" x1="4394.27" y1="251.69" x2="4394.53" y2="251.69" gradientTransform="matrix(-1, 0, 0, 1, 4562.28, -52.09)" gradientUnits="userSpaceOnUse"><stop offset="0" stop-color="#475269"/><stop offset="1" stop-color="#363e4f"/></linearGradient><linearGradient id="linear-gradient-102" x1="4381.21" y1="247.34" x2="4394.64" y2="251.46" gradientTransform="matrix(-1, 0, 0, 1, 4642.37, 0)" gradientUnits="userSpaceOnUse"><stop offset="0" stop-color="#5b6a87"/><stop offset="1" stop-color="#2c3340"/></linearGradient><linearGradient id="linear-gradient-103" x1="4409.11" y1="243.23" x2="4409.37" y2="243.23" xlink:href="#linear-gradient-101"/><linearGradient id="linear-gradient-104" x1="4396.05" y1="238.88" x2="4409.48" y2="243" xlink:href="#linear-gradient-102"/><linearGradient id="linear-gradient-105" x1="4403.56" y1="247.04" x2="4408.47" y2="247.04" xlink:href="#linear-gradient-102"/><linearGradient id="linear-gradient-106" x1="4395.98" y1="251.47" x2="4401.07" y2="251.47" xlink:href="#linear-gradient-102"/><linearGradient id="linear-gradient-107" x1="4407.76" y1="243.01" x2="4393.9" y2="252.08" xlink:href="#linear-gradient-102"/><linearGradient id="linear-gradient-108" x1="4405.27" y1="244.28" x2="4397.26" y2="255.36" gradientTransform="matrix(-1, 0, 0, 1, 4642.37, 0)" xlink:href="#linear-gradient-101"/><linearGradient id="linear-gradient-109" x1="270.48" y1="256.85" x2="256.63" y2="258.05" xlink:href="#linear-gradient"/><linearGradient id="linear-gradient-110" x1="269.53" y1="245.83" x2="255.68" y2="247.03" xlink:href="#linear-gradient"/><linearGradient id="linear-gradient-111" x1="255.26" y1="240.34" x2="272.64" y2="240.34" gradientTransform="matrix(1, 0, 0, 1, 0, 0)" xlink:href="#linear-gradient-101"/><linearGradient id="linear-gradient-112" x1="265.43" y1="237.4" x2="259.65" y2="242.41" gradientTransform="matrix(1, 0, 0, 1, 0, 0)" xlink:href="#linear-gradient-101"/><linearGradient id="linear-gradient-113" x1="268.08" y1="237.26" x2="263.75" y2="238.75" gradientTransform="matrix(1, 0, 0, 1, 0, 0)" xlink:href="#linear-gradient-101"/><linearGradient id="linear-gradient-114" x1="269.81" y1="237.58" x2="261.28" y2="241.4" gradientTransform="matrix(1, 0, 0, 1, 0, 0)" xlink:href="#linear-gradient-101"/><linearGradient id="linear-gradient-115" x1="255.26" y1="244.41" x2="272.64" y2="244.41" gradientTransform="matrix(1, 0, 0, 1, 0, 0)" xlink:href="#linear-gradient-101"/><linearGradient id="linear-gradient-116" x1="240.07" y1="346.78" x2="270.57" y2="294.94" xlink:href="#linear-gradient"/><linearGradient id="linear-gradient-117" x1="267.93" y1="359.45" x2="303.76" y2="277.61" xlink:href="#linear-gradient"/><linearGradient id="linear-gradient-118" x1="232.25" y1="816.1" x2="245.97" y2="761.7" xlink:href="#linear-gradient-3"/><clipPath id="clip-path-4" transform="translate(-80.09 -52.09)"><path class="cls-1" d="M350.38,350.9c2.76-5.61,7.44-4.78,9.34-10.82,1.6-6.1-2.76-6.56-1.59-12.51.89-6,4.87-5.86,4.85-12.05-.31-6.17-3.85-6-4.49-11.95-.92-5.91,2.15-6.32.29-12.22-2.13-5.82-4.7-5.26-7.1-10.78-2.67-5.41-.64-6.1-4.26-11.28-3.88-5-7.35-6.35-11.45-11-2.49,5.7-5.4,8-7.57,14-1.88,6,.27,6.07-.63,12-.61,6-3.22,6.23-3.49,12.42,0,6.19,3.08,5.65,4,11.55,1.19,5.86-2.24,6.79-.65,12.76,1.86,5.9,5.61,4.6,8.27,10,2.93,5.31-1.08,7.08,2.29,12.4C341.83,348.61,346,346.39,350.38,350.9Z"/></clipPath><linearGradient id="linear-gradient-119" x1="-867.33" y1="326.15" x2="-855.26" y2="278.35" gradientTransform="matrix(-0.9, 0.44, 0.44, 0.9, -589.41, 432.12)" xlink:href="#linear-gradient-3"/><clipPath id="clip-path-5" transform="translate(-80.09 -52.09)"><path class="cls-1" d="M348.29,353.11c-1.17-5.37,2.5-7.36.5-12.55-2.24-5.07-5.49-3-7.94-7.73-2.65-4.59.14-6.69-3.26-10.94-3.59-4.07-5.94-2-9.63-5.76-3.87-3.55-2-5.51-6.5-8.55-4.64-2.84-6.1-1-10.77-3.52-4.8-2.27-3.78-3.85-9.1-5.43-5.43-1.34-8.54-.34-13.91-1.31,1.41,5.28.67,8.46,2.45,13.76,2,5.17,3.51,4,6.17,8.62,2.85,4.45,1.19,6.05,4.39,10.45,3.41,4.24,5.21,2.2,9.07,5.75,4,3.37,2.18,5.89,6.54,9.12,4.51,3,6.37.09,11.16,2.35,4.92,2.05,3.13,5.46,8.36,7.27C341.16,356.21,342.84,352.38,348.29,353.11Z"/></clipPath><linearGradient id="linear-gradient-120" x1="955.41" y1="3867.23" x2="967.48" y2="3819.43" gradientTransform="matrix(-0.5, -0.86, -0.86, 0.5, 4184.88, -785.41)" xlink:href="#linear-gradient-3"/><clipPath id="clip-path-6" transform="translate(-80.09 -52.09)"><path class="cls-1" d="M352.29,350.72c5.28-1.54,7.52,2,12.56-.38,4.89-2.59,2.61-5.69,7.15-8.46,4.39-3,6.69-.34,10.68-4,3.81-3.87,1.6-6.06,5.07-10,3.27-4.1,5.37-2.36,8.08-7.07,2.5-4.84.61-6.17,2.75-11,1.92-4.94,3.58-4,4.78-9.46.95-5.5-.26-8.53.33-14-5.17,1.78-8.39,1.27-13.55,3.41-5,2.38-3.77,3.79-8.17,6.76-4.24,3.16-6,1.61-10.11,5.12-4,3.69-1.83,5.35-5.11,9.45-3.08,4.25-5.71,2.58-8.64,7.16-2.71,4.71.36,6.36-1.56,11.3-1.69,5-5.22,3.5-6.66,8.85C348.7,343.83,352.63,345.24,352.29,350.72Z"/></clipPath><linearGradient id="linear-gradient-121" x1="246.34" y1="72.23" x2="250.29" y2="94.99" gradientUnits="userSpaceOnUse"><stop offset="0" stop-color="#96df78"/><stop offset="1" stop-color="#76cb74"/></linearGradient><linearGradient id="linear-gradient-122" x1="846" y1="262.18" x2="849.95" y2="284.93" gradientTransform="translate(-760.55)" gradientUnits="userSpaceOnUse"><stop offset="0" stop-color="#ffa408"/><stop offset="1" stop-color="#ffdb0d"/></linearGradient><linearGradient id="linear-gradient-123" x1="3581.6" y1="287.86" x2="3574.76" y2="275.49" gradientTransform="matrix(-1, 0, 0, 1, 3947.54, 0)" gradientUnits="userSpaceOnUse"><stop offset="0" stop-color="#0080ff"/><stop offset="1" stop-color="#14dcff"/></linearGradient></defs><g class="cls-2"><g id="OBJECTS"><path class="cls-3" d="M274.59,116.21a4.12,4.12,0,0,1,1.77,3.84l-9.53,70c-.2,1.44-1.31,2.06-2.49,1.39l-107.29-62a4.11,4.11,0,0,1-1.77-3.84l9.53-70c.2-1.44,1.31-2.07,2.48-1.39l4.36,2.51,1.17-3.49a1.83,1.83,0,0,1,2.83-.85l31.13,18A4.89,4.89,0,0,1,209,74.16l.12,4.24Z" transform="translate(-80.09 -52.09)"/><path class="cls-4" d="M234.48,141.21c.92,3.87,3.23,7.43,6.28,9.15s5.89,1.14,7.79-1l4,5.54c-3.08,3.66-7.89,4.59-12.8,1.83s-8.85-8.76-10.28-15.16Z" transform="translate(-80.09 -52.09)"/><path class="cls-5" d="M245.37,123.86c5.64,3.38,9.68,10.68,10.41,18l-5.17-.86c-.49-4.41-2.9-8.75-6.25-10.83Z" transform="translate(-80.09 -52.09)"/><path class="cls-6" d="M255.86,142.88a22.08,22.08,0,0,1-.21,4.75,15.11,15.11,0,0,1-2.63,6.66l-4-5.55a9.35,9.35,0,0,0,1.53-4,13.77,13.77,0,0,0,.14-2.73Z" transform="translate(-80.09 -52.09)"/><path class="cls-7" d="M244.64,123.45l-1,6.35c-4.38-2.2-8.56.3-9.43,5.77a14.25,14.25,0,0,0,.07,4.65l-5,.34a23.3,23.3,0,0,1-.18-7.85C230.53,123.73,237.44,119.67,244.64,123.45Z" transform="translate(-80.09 -52.09)"/><polygon class="cls-5" points="139.65 58.74 139.84 58.88 139.79 59.1 130.79 62.66 127.49 62.88 127.18 62.9 122.15 63.23 114.46 56.15 106.89 59.81 106.66 59.92 105.43 60.51 103.17 60.15 102.77 60.08 97 59.11 96.89 59.02 89.76 47.88 89.75 47.62 89.94 47.68 97.03 58.76 103.03 59.77 103.44 59.84 105.31 60.15 106.55 59.55 106.77 59.44 114.38 55.77 114.5 55.8 122.11 62.86 126.94 62.55 127.24 62.52 130.66 62.3 139.65 58.74"/><polygon class="cls-7" points="120.69 74.47 127.5 80.24 127.89 80.96 120.65 74.81 111.95 76.39 111.78 76.24 109.53 69.07 109.78 69.02 111.97 76.01 120.59 74.44 120.69 74.47"/><polygon class="cls-6" points="123.02 56.4 127.24 62.52 126.94 62.55 122.88 56.67 114.65 54.84 106.04 55.37 105.89 55.25 99.11 41.83 90.76 40.91 90.6 40.71 90.72 40.54 99.13 41.47 99.27 41.58 106.05 54.99 114.57 54.46 122.92 56.31 123.02 56.4"/><polygon class="cls-7" points="99.53 63.91 102.77 60.08 103.17 60.15 99.75 64.19 99.53 63.91"/><polygon class="cls-7" points="105.92 56.73 106.77 59.44 106.55 59.55 105.77 57.07 103.43 59.83 103.03 59.77 105.7 56.61 105.82 56.58 105.92 56.73"/><polygon class="cls-7" points="106.89 59.81 109.66 68.66 109.42 68.71 106.66 59.92 106.89 59.81"/><polygon class="cls-7" points="95.75 68.38 99.35 64.12 99.58 64.41 95.87 68.79 95.68 68.75 88.4 58.66 88.38 58.4 88.58 58.43 95.75 68.38"/><polygon class="cls-6" points="139.23 62.05 139.42 62.17 139.39 62.41 130.23 67.15 130.07 67.09 127.18 62.9 127.49 62.88 130.16 66.77 139.23 62.05"/><polygon class="cls-4" points="121.34 68.71 121.47 68.81 128.06 80.72 128.39 81.33 128.51 81.37 136.5 84.33 136.64 84.56 136.5 84.68 128.33 81.67 128.23 81.57 127.89 80.96 127.5 80.24 121.32 69.07 112.95 68.38 109.78 69.02 109.53 69.07 104.19 70.15 104.06 70.08 99.58 64.41 99.35 64.12 96.7 60.77 89.06 53.8 88.98 53.54 89.17 53.52 96.82 60.49 99.53 63.91 99.75 64.19 104.16 69.78 109.42 68.71 109.66 68.66 112.85 68.01 121.34 68.71"/><polygon class="cls-7" points="136.78 81.9 136.94 82.09 136.83 82.27 128.51 81.37 128.39 81.33 128.06 80.72 128.38 81 136.78 81.9"/><polygon class="cls-4" points="91.47 28.45 86.42 68.52 135.07 95.87 135.02 96.21 86.11 68.71 91.19 28.29 91.47 28.45"/><path class="cls-4" d="M205,74.73a.34.34,0,0,0,.35,0l.38-.21.27.59a.86.86,0,0,0,.31.36.36.36,0,0,0,.36,0,.64.64,0,0,0,.11-.81l-.28-.6.39-.2a.65.65,0,0,0,.11-.81.83.83,0,0,0-.31-.37.39.39,0,0,0-.36,0l-.38.22-.27-.6a.86.86,0,0,0-.31-.36.37.37,0,0,0-.35,0,.64.64,0,0,0-.11.81l.28.59-.39.22a.64.64,0,0,0-.11.81A.8.8,0,0,0,205,74.73Z" transform="translate(-80.09 -52.09)"/><path class="cls-4" d="M258.59,112.85,170.69,62.1c-1.18-.68-2.29-.06-2.48,1.38l-.52,3.81a4.09,4.09,0,0,0,1.77,3.85l87.9,50.75c1.18.68,2.29.06,2.48-1.39l.52-3.81A4.09,4.09,0,0,0,258.59,112.85Z" transform="translate(-80.09 -52.09)"/><path class="cls-4" d="M271.1,121.4,265,117.89c-.3-.18-.6,0-.65.36a1.07,1.07,0,0,0,.47,1l6.09,3.51c.31.18.6,0,.65-.36A1.08,1.08,0,0,0,271.1,121.4Z" transform="translate(-80.09 -52.09)"/><path class="cls-4" d="M270.4,126.6l-6.09-3.52c-.31-.18-.61,0-.66.37a1.08,1.08,0,0,0,.47,1l6.09,3.52c.31.18.6,0,.66-.37A1.08,1.08,0,0,0,270.4,126.6Z" transform="translate(-80.09 -52.09)"/><path class="cls-4" d="M270.75,124l-6.09-3.52c-.31-.18-.61,0-.66.37a1.09,1.09,0,0,0,.47,1l6.09,3.52c.32.18.61,0,.66-.37A1.09,1.09,0,0,0,270.75,124Z" transform="translate(-80.09 -52.09)"/><path class="cls-8" d="M209.11,78.4,209,74.16a4.89,4.89,0,0,0-2.21-3.75l-31.13-18a1.83,1.83,0,0,0-2.83.85l-1.17,3.49-4.36-2.51c-1.17-.68-2.28,0-2.48,1.39l-9.53,70a4.11,4.11,0,0,0,1.77,3.84l29.28,16.9,65.08-43.59Z" transform="translate(-80.09 -52.09)"/><path class="cls-3" d="M394.13,184.54a4.1,4.1,0,0,1,1.77,3.85l-9.53,70c-.19,1.44-1.3,2.06-2.48,1.38L276.6,197.85a4.09,4.09,0,0,1-1.77-3.84l9.53-70c.19-1.45,1.31-2.07,2.48-1.39l4.35,2.51,1.18-3.49a1.83,1.83,0,0,1,2.82-.85l31.14,18a4.92,4.92,0,0,1,2.21,3.75l.11,4.24Z" transform="translate(-80.09 -52.09)"/><path class="cls-4" d="M298,152.91a13.71,13.71,0,0,1,5.4,6.79l-1.6.6a10.63,10.63,0,0,0-4.1-5.16Z" transform="translate(-80.09 -52.09)"/><path class="cls-7" d="M297.79,152.78l-.3,2.23c-3.27-1.81-6.34-.06-6.89,4s1.68,8.92,5,10.84,6.44.15,7-3.92a11.12,11.12,0,0,0-.67-5.29l1.61-.59a14.7,14.7,0,0,1,.88,6.93c-.73,5.31-4.81,7.59-9.13,5.09s-7.23-8.81-6.51-14.11S293.52,150.39,297.79,152.78Z" transform="translate(-80.09 -52.09)"/><path class="cls-9" d="M294.2,179.16l-.3,2.24c-3.28-1.81-6.34-.06-6.89,4s1.68,8.92,5,10.84a4.7,4.7,0,0,0,4,.53l.92,2.39a6.08,6.08,0,0,1-5.22-.7c-4.31-2.49-7.23-8.81-6.51-14.12S289.92,176.78,294.2,179.16Z" transform="translate(-80.09 -52.09)"/><path class="cls-4" d="M294.43,179.29c4.26,2.55,7.11,8.8,6.39,14.05-.39,2.91-1.8,4.9-3.7,5.71l-.93-2.39c1.45-.62,2.51-2.15,2.81-4.37.55-4-1.63-8.8-4.87-10.76Z" transform="translate(-80.09 -52.09)"/><path class="cls-4" d="M313.74,190.44c3,1.8,5.33,5.49,6.16,9.34h-1.77a11.25,11.25,0,0,0-4.7-7.1Z" transform="translate(-80.09 -52.09)"/><path class="cls-6" d="M313.5,190.31l-.3,2.23c-3.27-1.8-6.34,0-6.88,4s1.67,8.92,5,10.84,6.45.16,7-3.91a10.18,10.18,0,0,0-.12-3.34H320a13.56,13.56,0,0,1,.17,4.39c-.72,5.3-4.8,7.58-9.13,5.09s-7.23-8.81-6.5-14.12S309.23,187.93,313.5,190.31Z" transform="translate(-80.09 -52.09)"/><path class="cls-5" d="M317.09,163.92l-.3,2.23c-3.27-1.81-6.34-.05-6.88,4s1.67,8.93,5,10.84c2.39,1.38,4.68.86,6-1.06l1.52,1.88c-1.69,2.52-4.69,3.21-7.81,1.41-4.31-2.49-7.22-8.81-6.5-14.12S312.82,161.54,317.09,163.92Z" transform="translate(-80.09 -52.09)"/><path class="cls-4" d="M317.33,164.05c4.25,2.54,7.11,8.8,6.39,14a8.57,8.57,0,0,1-1.19,3.48L321,179.69a6.75,6.75,0,0,0,.89-2.64c.55-4-1.63-8.81-4.87-10.76Z" transform="translate(-80.09 -52.09)"/><polygon class="cls-7" points="298.75 146.43 298.55 147.84 306.51 152.44 306.72 151.03 298.75 146.43"/><polygon class="cls-7" points="296.52 161.66 296.31 163.07 304.28 167.66 304.49 166.26 296.52 161.66"/><polygon class="cls-7" points="284.03 170.44 283.83 171.84 291.79 176.44 292 175.04 284.03 170.44"/><polygon class="cls-10" points="263.56 126.12 263.36 127.53 271.32 132.12 271.53 130.72 263.56 126.12"/><polygon class="cls-11" points="257.13 122.4 256.93 123.81 261.67 126.55 261.88 125.14 257.13 122.4"/><polygon class="cls-12" points="268.16 139.78 267.95 141.19 294.69 156.63 294.9 155.22 268.16 139.78"/><polygon class="cls-10" points="272.58 136.83 272.38 138.24 280.34 142.84 280.55 141.43 272.58 136.83"/><polygon class="cls-12" points="282.21 142.39 282 143.8 295.44 151.55 295.64 150.15 282.21 142.39"/><polygon class="cls-12" points="273.19 131.68 272.99 133.08 296.18 146.47 296.39 145.07 273.19 131.68"/><polygon class="cls-10" points="258.53 134.22 258.33 135.63 266.29 140.23 266.5 138.82 258.53 134.22"/><polygon class="cls-11" points="266.15 133.12 265.94 134.53 270.69 137.26 270.89 135.86 266.15 133.12"/><polygon class="cls-11" points="252.1 130.51 251.89 131.91 256.64 134.66 256.85 133.25 252.1 130.51"/><polygon class="cls-10" points="259.85 151.5 259.64 152.91 267.6 157.5 267.81 156.1 259.85 151.5"/><polygon class="cls-10" points="266.53 149.85 266.32 151.26 274.29 155.86 274.5 154.45 266.53 149.85"/><polygon class="cls-10" points="272.93 148.04 272.72 149.44 280.69 154.05 280.9 152.64 272.93 148.04"/><polygon class="cls-11" points="266.5 144.33 266.29 145.73 271.04 148.47 271.25 147.07 266.5 144.33"/><polygon class="cls-12" points="282.56 153.6 282.36 155.01 293.95 161.7 294.16 160.3 282.56 153.6"/><polygon class="cls-11" points="260.1 146.14 259.89 147.55 264.64 150.29 264.84 148.88 260.1 146.14"/><polygon class="cls-12" points="276.16 155.41 275.95 156.82 293.21 166.78 293.41 165.38 276.16 155.41"/><polygon class="cls-12" points="269.47 157.06 269.27 158.46 292.46 171.85 292.67 170.45 269.47 157.06"/><polygon class="cls-10" points="273.35 164.28 273.15 165.68 281.11 170.28 281.32 168.87 273.35 164.28"/><polygon class="cls-11" points="253.41 147.78 253.21 149.19 257.95 151.93 258.16 150.52 253.41 147.78"/><polygon class="cls-12" points="286.65 179.1 286.45 180.51 290.82 183.03 291.03 181.63 286.65 179.1"/><polygon class="cls-12" points="285.93 184.02 285.73 185.42 290.11 187.94 290.31 186.54 285.93 184.02"/><path class="cls-4" d="M324.54,143.07a.34.34,0,0,0,.35,0l.39-.21.27.59a.86.86,0,0,0,.31.36.36.36,0,0,0,.36,0,.65.65,0,0,0,.11-.81l-.28-.6.39-.21a.63.63,0,0,0,.11-.8.83.83,0,0,0-.31-.37.36.36,0,0,0-.36,0l-.38.21-.28-.59a.78.78,0,0,0-.3-.36.34.34,0,0,0-.35,0,.64.64,0,0,0-.11.81l.27.59-.38.22a.64.64,0,0,0-.11.81A.79.79,0,0,0,324.54,143.07Z" transform="translate(-80.09 -52.09)"/><path class="cls-4" d="M378.14,181.19l-87.9-50.75c-1.18-.68-2.29-.06-2.49,1.38l-.51,3.81a4.11,4.11,0,0,0,1.76,3.85l87.91,50.75c1.17.68,2.28.05,2.48-1.39l.52-3.81A4.1,4.1,0,0,0,378.14,181.19Z" transform="translate(-80.09 -52.09)"/><path class="cls-4" d="M390.65,189.74l-6.09-3.52c-.31-.17-.6,0-.65.37a1.09,1.09,0,0,0,.46,1l6.09,3.51a.42.42,0,0,0,.66-.36A1.1,1.1,0,0,0,390.65,189.74Z" transform="translate(-80.09 -52.09)"/><path class="cls-4" d="M390,194.93l-6.1-3.51c-.3-.18-.6,0-.65.36a1.09,1.09,0,0,0,.47,1l6.09,3.51c.31.18.6,0,.65-.36A1.09,1.09,0,0,0,390,194.93Z" transform="translate(-80.09 -52.09)"/><path class="cls-4" d="M390.3,192.34l-6.09-3.52c-.31-.18-.61,0-.66.37a1.07,1.07,0,0,0,.47,1l6.09,3.52c.31.18.6,0,.66-.37A1.08,1.08,0,0,0,390.3,192.34Z" transform="translate(-80.09 -52.09)"/><path class="cls-8" d="M328.65,146.74l-.11-4.24a4.92,4.92,0,0,0-2.21-3.75l-31.14-18a1.83,1.83,0,0,0-2.82.85l-1.18,3.49-4.35-2.51c-1.17-.68-2.29-.06-2.48,1.39l-9.53,70a4.09,4.09,0,0,0,1.77,3.84l29.28,16.9L371,171.16Z" transform="translate(-80.09 -52.09)"/><polygon class="cls-13" points="88.87 180.73 66.01 194.02 73.12 240.58 88.89 231.41 104.77 240.58 111.89 194.02 88.87 180.73"/><polygon class="cls-14" points="89.06 213.78 89.02 254.21 65.4 240.58 54.83 194.02 89.06 213.78"/><polygon class="cls-15" points="123.06 194.02 112.49 240.58 89.02 254.21 89.06 213.78 123.06 194.02"/><polygon class="cls-16" points="64.17 235.14 65.4 240.58 89.02 254.21 89.04 254.2 89.04 249.5 64.17 235.14"/><polygon class="cls-17" points="113.72 235.15 89.04 249.5 89.04 254.2 112.49 240.58 113.72 235.15"/><polygon class="cls-18" points="89.06 214.66 122.83 195.03 123.06 194.02 89.06 213.78 54.83 194.02 55.06 195.03 89.06 214.66"/><path class="cls-19" d="M168.92,226.35l34.23,19.76-34,19.76-34.22-19.76Zm.19,33L192,246.11l-23-13.29-22.87,13.29,23,13.28" transform="translate(-80.09 -52.09)"/><path class="cls-20" d="M155.71,258.12c.32,0,.65,0,1,0a8.58,8.58,0,0,0,5.4-2.73l-16-9.25,13.71-8c-2.26-.53-4.18.26-7-2.09l-.23-.19-17.63,10.25Z" transform="translate(-80.09 -52.09)"/><path class="cls-21" d="M147.07,183c.89-6-1.25-6,.62-12,2.17-6,5.08-8.29,7.57-14,4.1,4.68,7.58,6,11.46,11,3.62,5.18,1.59,5.87,4.25,11.29,2.4,5.51,5,5,7.1,10.77,1.86,5.9-1.21,6.31-.29,12.22.64,5.94,4.18,5.78,4.49,11.95,0,6.19-4,6.09-4.84,12.05-1.18,5.95,3.18,6.41,1.58,12.51-1.89,6-6.58,5.21-9.34,10.82-4.33-4.51-8.54-2.29-12.18-7.47-3.38-5.32.63-7.09-2.29-12.4-2.67-5.41-6.42-4.1-8.28-10-1.58-6,1.84-6.9.65-12.76-.92-5.9-4-5.36-4-11.55C143.84,189.21,146.46,189,147.07,183Z" transform="translate(-80.09 -52.09)"/><path class="cls-22" d="M182.27,214.2c-.23-4.74-2.38-5.75-3.65-8.66a12.17,12.17,0,0,1-.84,2.12c-2.17,4.79-5.08,3.68-7,8.75-1.71,5.16,1.64,6.16.75,11.39-.65,5.29-4.42,4.48-4.75,10-.06,4.79,3,5.9,4.34,9.58,2.74-3.31,6.32-3.53,7.92-8.63,1.6-6.1-2.76-6.56-1.58-12.51C178.32,220.29,182.29,220.39,182.27,214.2Z" transform="translate(-80.09 -52.09)"/><path class="cls-22" d="M146.43,186.18c2.22,2.92,1.28,4.06,3.88,7.88,2.77,4.51,4.94,3.7,7.51,8.5,2.34,4.91-.28,5.65,1.24,10.67,1.29,5.09,4.36,4.51,5.39,9.85.77,5.38-2.7,5.78-2.74,11.07-.29,5.32,3.56,5.19,2.92,10.69a9,9,0,0,1-.39,1.55c-2.38-.77-4.66-1.3-6.75-4.28-3.38-5.32.63-7.09-2.29-12.4-2.67-5.41-6.42-4.1-8.28-10-1.58-6,1.84-6.9.65-12.76-.92-5.9-4-5.36-4-11.55C143.79,190.55,145.43,189.34,146.43,186.18Z" transform="translate(-80.09 -52.09)"/><g class="cls-23"><g class="cls-24"><line class="cls-25" x1="74.7" y1="101.81" x2="90.12" y2="200.95"/><polyline class="cls-25" points="62.61 177.49 88.69 191.75 109.21 170.24"/><polyline class="cls-25" points="60.23 162.15 86.31 176.41 106.82 154.9"/><polyline class="cls-25" points="57.84 146.81 83.92 161.07 104.43 139.56"/><polyline class="cls-25" points="55.45 131.47 81.53 145.72 102.05 124.22"/><polyline class="cls-25" points="53.06 116.13 79.14 130.38 99.66 108.88"/><polyline class="cls-25" points="50.68 100.79 76.76 115.04 97.27 93.53"/></g></g><path class="cls-26" d="M115.59,218.38c-2.65-4.59-4.15-3.45-6.17-8.62-1.78-5.3-1-8.48-2.45-13.76,5.38,1,8.49,0,13.91,1.31,5.33,1.58,4.3,3.17,9.1,5.43,4.67,2.48,6.13.69,10.78,3.52,4.51,3,2.63,5,6.49,8.56,3.69,3.73,6,1.68,9.63,5.76,3.4,4.24.61,6.34,3.27,10.93,2.44,4.73,5.69,2.67,7.93,7.73,2,5.19-1.67,7.18-.5,12.55-5.44-.72-7.12,3.1-12.46,1.53-5.24-1.8-3.45-5.22-8.36-7.27-4.8-2.26-6.66.7-11.17-2.34-4.36-3.24-2.51-5.76-6.54-9.13-3.86-3.55-5.66-1.51-9.06-5.75C116.78,224.43,118.45,222.83,115.59,218.38Z" transform="translate(-80.09 -52.09)"/><g class="cls-27"><g class="cls-24"><line class="cls-25" x1="24.89" y1="142.08" x2="89.76" y2="201.78"/><polyline class="cls-25" points="58.01 200.72 83.74 196.24 86.07 170.23"/><polyline class="cls-25" points="47.97 191.48 73.7 187 76.03 160.99"/><polyline class="cls-25" points="37.93 182.24 63.66 177.76 65.99 151.75"/><polyline class="cls-25" points="27.89 173 53.63 168.53 55.96 142.51"/><polyline class="cls-25" points="17.86 163.76 43.59 159.29 45.92 133.27"/><polyline class="cls-25" points="7.82 154.52 33.55 150.05 35.88 124.04"/></g></g><path class="cls-28" d="M201.27,195.19c4.39-3,3.14-4.38,8.16-6.75,5.16-2.15,8.38-1.64,13.55-3.42-.58,5.44.63,8.47-.32,14-1.2,5.42-2.86,4.52-4.78,9.46-2.15,4.84-.26,6.16-2.76,11-2.71,4.71-4.8,3-8.08,7.07-3.46,3.95-1.25,6.15-5.07,10-4,3.69-6.28,1.06-10.67,4-4.55,2.77-2.26,5.87-7.16,8.46-5,2.36-7.28-1.16-12.55.38.34-5.48-3.6-6.89-2.41-12.33,1.44-5.34,5-3.8,6.67-8.85,1.92-4.94-1.16-6.59,1.56-11.3,2.92-4.58,5.56-2.91,8.64-7.16,3.27-4.1,1.11-5.76,5.1-9.45C195.32,196.8,197,198.35,201.27,195.19Z" transform="translate(-80.09 -52.09)"/><g class="cls-29"><g class="cls-24"><line class="cls-25" x1="144.58" y1="130.82" x2="89.58" y2="199.72"/><polyline class="cls-25" points="88.41 167.97 94.69 193.32 120.8 193.82"/><polyline class="cls-25" points="96.93 157.31 103.2 182.66 129.31 183.16"/><polyline class="cls-25" points="105.44 146.64 111.71 172 137.82 172.5"/><polyline class="cls-25" points="113.95 135.98 120.22 161.34 146.33 161.84"/><polyline class="cls-25" points="122.46 125.32 128.73 150.68 154.84 151.18"/><polyline class="cls-25" points="130.97 114.66 137.24 140.01 163.35 140.51"/></g></g><g class="cls-2"><polygon class="cls-30" points="246.16 320.77 241.93 318.31 241.94 208.25 246.17 210.71 246.16 320.77"/><polygon class="cls-30" points="185.32 355.89 181.1 353.44 181.1 240.11 185.32 242.57 185.32 355.89"/><polygon class="cls-31" points="185.32 242.57 181.1 240.11 244.76 203.35 248.99 205.81 185.32 242.57"/><polygon class="cls-13" points="248.99 205.81 248.99 319.13 246.16 320.77 246.17 210.71 188.17 244.19 188.16 354.25 185.32 355.89 185.32 242.57 248.99 205.81"/></g><g class="cls-2"><polygon class="cls-30" points="128.6 252.66 124.37 250.2 124.38 140.14 128.61 142.59 128.6 252.66"/><polygon class="cls-30" points="67.76 287.78 63.53 285.32 63.53 172 67.76 174.46 67.76 287.78"/><polygon class="cls-31" points="67.76 174.46 63.53 172 127.2 135.24 131.43 137.7 67.76 174.46"/><polygon class="cls-13" points="131.43 137.7 131.43 251.02 128.6 252.66 128.61 142.59 70.61 176.08 70.6 286.14 67.76 287.78 67.76 174.46 131.43 137.7"/></g><polygon class="cls-32" points="56.82 171.62 56.82 178.01 182.23 251.4 182.23 245.02 56.82 171.62"/><polygon class="cls-16" points="56.82 171.62 182.23 245.02 255.28 204.02 129.87 130.63 56.82 171.62"/><polygon class="cls-17" points="182.23 245.02 182.23 251.4 255.28 210.41 255.28 204.02 182.23 245.02"/><polygon class="cls-33" points="255.28 204.02 255.28 205.02 182.23 246.01 56.82 172.62 56.82 171.62 182.23 245.02 255.28 204.02"/><path class="cls-34" d="M256.8,191.88l-46-26.57a.8.8,0,0,0-.61-.1l-1.09.27a.8.8,0,0,1,.61.1l46,26.57a1.77,1.77,0,0,1,.71,1.8l-7.49,34.22a1,1,0,0,1-.64.78l1.09-.28a.93.93,0,0,0,.64-.77l7.49-34.22A1.78,1.78,0,0,0,256.8,191.88Z" transform="translate(-80.09 -52.09)"/><path class="cls-35" d="M255.71,192.15l-46-26.57c-.54-.31-1.1,0-1.25.67L201,200.47a1.77,1.77,0,0,0,.71,1.81l46,26.57c.54.31,1.1,0,1.25-.68L256.42,194A1.77,1.77,0,0,0,255.71,192.15Z" transform="translate(-80.09 -52.09)"/><polygon class="cls-3" points="129.18 115.22 122.36 146.37 168.46 172.99 175.28 141.84 129.18 115.22"/><polygon class="cls-9" points="135.1 124.26 134.94 124.87 129.99 122.08 130.16 121.46 135.1 124.26"/><polygon class="cls-6" points="162.84 139.96 162.68 140.57 159.47 138.75 159.64 138.14 162.84 139.96"/><polygon class="cls-5" points="166.94 142.27 166.77 142.88 163.56 141.07 163.73 140.46 166.94 142.27"/><polygon class="cls-12" points="139.19 137.55 139.02 138.16 129.51 132.78 129.68 132.16 139.19 137.55"/><polygon class="cls-9" points="143.94 140.23 143.77 140.84 139.87 138.64 140.04 138.03 143.94 140.23"/><polygon class="cls-9" points="132.89 136.88 132.72 137.49 128.82 135.29 128.99 134.68 132.89 136.88"/><polygon class="cls-5" points="130.07 147.25 129.9 147.87 126 145.67 126.17 145.05 130.07 147.25"/><polygon class="cls-6" points="130.77 144.66 130.6 145.28 126.71 143.07 126.88 142.46 130.77 144.66"/><polygon class="cls-9" points="131.48 142.07 131.31 142.68 127.42 140.48 127.58 139.87 131.48 142.07"/><polygon class="cls-12" points="132.18 139.48 132.01 140.09 128.12 137.89 128.28 137.28 132.18 139.48"/><polygon class="cls-12" points="137.24 148.32 137.08 148.94 133.18 146.73 133.35 146.12 137.24 148.32"/><polygon class="cls-7" points="147.13 150.93 146.97 151.54 131.94 143.04 132.1 142.43 147.13 150.93"/><polygon class="cls-7" points="137.65 139.58 137.48 140.19 133.58 137.98 133.75 137.37 137.65 139.58"/><polygon class="cls-12" points="153.27 142.88 153.11 143.49 130.13 130.49 130.29 129.88 153.27 142.88"/><polygon class="cls-12" points="153.89 140.6 153.73 141.21 130.75 128.21 130.91 127.6 153.89 140.6"/><polygon class="cls-12" points="154.51 138.32 154.35 138.93 131.37 125.93 131.54 125.32 154.51 138.32"/><polygon class="cls-12" points="158.87 137.71 158.7 138.32 135.73 125.32 135.9 124.71 158.87 137.71"/><path class="cls-8" d="M209.69,165.58c-.54-.31-1.1,0-1.25.67L201,200.47a1.77,1.77,0,0,0,.71,1.81l6,3.44,38.44-19.13Z" transform="translate(-80.09 -52.09)"/><g class="cls-2"><path class="cls-36" d="M247.77,229.12l-26.91,15.63a2.16,2.16,0,0,1-2,0l-46-26.57a.7.7,0,0,1-.41-.57v1.88a.65.65,0,0,0,.4.56l46,26.57a2.13,2.13,0,0,0,1.95,0L247.76,231a.68.68,0,0,0,.4-.56v-1.88A.69.69,0,0,1,247.77,229.12Z" transform="translate(-80.09 -52.09)"/><path class="cls-37" d="M227.43,241.85l-2.2,1.27a.69.69,0,0,0-.32.55c0,.21.14.29.32.19l2.21-1.28a.71.71,0,0,0,.31-.55C227.75,241.83,227.61,241.75,227.43,241.85Z" transform="translate(-80.09 -52.09)"/><path class="cls-12" d="M247.77,229.12l-26.91,15.63a2.16,2.16,0,0,1-2,0l-46-26.57a.7.7,0,0,1-.41-.57v.26a.7.7,0,0,0,.4.54l46,26.57a2.16,2.16,0,0,0,1.95,0l26.91-15.64a.67.67,0,0,0,.4-.56v-.2A.7.7,0,0,1,247.77,229.12Z" transform="translate(-80.09 -52.09)"/><path class="cls-38" d="M247.76,228l-46-26.57a2.16,2.16,0,0,0-2,0l-26.91,15.64c-.54.31-.53.82,0,1.13l46,26.57a2.16,2.16,0,0,0,2,0l26.91-15.63A.61.61,0,0,0,247.76,228Z" transform="translate(-80.09 -52.09)"/></g><path class="cls-39" d="M228.1,227.28l1.32.76a1.21,1.21,0,0,0,1.08,0l1.36-.79c.29-.17.29-.45,0-.63l-1.31-.75a1.21,1.21,0,0,0-1.08,0l-1.36.79A.33.33,0,0,0,228.1,227.28Z" transform="translate(-80.09 -52.09)"/><path class="cls-40" d="M224.55,218.64l1.37.8a1.19,1.19,0,0,0,1.07,0l.2-.12a.33.33,0,0,0,0-.62l-1.37-.79a1.19,1.19,0,0,0-1.07,0l-.2.11A.33.33,0,0,0,224.55,218.64Z" transform="translate(-80.09 -52.09)"/><path class="cls-41" d="M227.47,220.33l1.21.7a1.21,1.21,0,0,0,1.08,0l.2-.12a.33.33,0,0,0,0-.62l-1.21-.7a1.21,1.21,0,0,0-1.08,0l-.19.12A.33.33,0,0,0,227.47,220.33Z" transform="translate(-80.09 -52.09)"/><path class="cls-42" d="M230.23,221.92l1.27.74a1.19,1.19,0,0,0,1.07,0l.2-.12a.33.33,0,0,0,0-.62l-1.27-.73a1.19,1.19,0,0,0-1.07,0l-.2.11A.33.33,0,0,0,230.23,221.92Z" transform="translate(-80.09 -52.09)"/><path class="cls-43" d="M228.19,221.32l-1.21-.7a1.21,1.21,0,0,0-1.08,0l-1.21.7c-.3.17-.3.45,0,.63l1.22.7a1.19,1.19,0,0,0,1.07,0l1.21-.71A.33.33,0,0,0,228.19,221.32Z" transform="translate(-80.09 -52.09)"/><path class="cls-44" d="M231,223l-1.26-.74a1.19,1.19,0,0,0-1.07,0l-1.22.71a.33.33,0,0,0,0,.62l1.27.73a1.19,1.19,0,0,0,1.07,0l1.22-.7C231.3,223.39,231.3,223.12,231,223Z" transform="translate(-80.09 -52.09)"/><path class="cls-45" d="M233.05,223.55l1.32.76a1.19,1.19,0,0,0,1.07,0l.2-.11a.33.33,0,0,0,0-.63l-1.31-.76a1.19,1.19,0,0,0-1.07,0l-.2.12A.33.33,0,0,0,233.05,223.55Z" transform="translate(-80.09 -52.09)"/><path class="cls-46" d="M222.53,224.06l1.21.7a1.19,1.19,0,0,0,1.07,0l1.37-.79a.33.33,0,0,0,0-.62l-1.21-.71a1.19,1.19,0,0,0-1.07,0l-1.37.8A.33.33,0,0,0,222.53,224.06Z" transform="translate(-80.09 -52.09)"/><path class="cls-47" d="M217.84,224.53l1.37.79a1.21,1.21,0,0,0,1.08,0l1.2-.7a.33.33,0,0,0,0-.62l-1.38-.79a1.19,1.19,0,0,0-1.07,0l-1.2.7A.33.33,0,0,0,217.84,224.53Z" transform="translate(-80.09 -52.09)"/><path class="cls-48" d="M232.66,225.93l1.21-.71a.33.33,0,0,0,0-.62l-1.32-.76a1.19,1.19,0,0,0-1.07,0l-1.21.7a.33.33,0,0,0,0,.63l1.32.76A1.19,1.19,0,0,0,232.66,225.93Z" transform="translate(-80.09 -52.09)"/><path class="cls-49" d="M235.91,225.21l1.38.79a1.19,1.19,0,0,0,1.07,0l.2-.12a.33.33,0,0,0,0-.62l-1.37-.79a1.19,1.19,0,0,0-1.07,0l-.2.11A.34.34,0,0,0,235.91,225.21Z" transform="translate(-80.09 -52.09)"/><path class="cls-50" d="M229,225.59a.33.33,0,0,0,0-.62l-1.27-.73a1.19,1.19,0,0,0-1.07,0l-1.36.79a.33.33,0,0,0,0,.62l1.26.73a1.21,1.21,0,0,0,1.08,0Z" transform="translate(-80.09 -52.09)"/><path class="cls-51" d="M220.76,226.22l1.21.7a1.21,1.21,0,0,0,1.08,0l1.2-.7a.33.33,0,0,0,0-.62l-1.21-.7a1.21,1.21,0,0,0-1.08,0l-1.2.7A.33.33,0,0,0,220.76,226.22Z" transform="translate(-80.09 -52.09)"/><path class="cls-52" d="M238.84,226.89l1.21.7a1.19,1.19,0,0,0,1.07,0l.2-.11c.29-.18.29-.45,0-.62l-1.22-.71a1.16,1.16,0,0,0-1.07,0l-.2.11A.33.33,0,0,0,238.84,226.89Z" transform="translate(-80.09 -52.09)"/><path class="cls-53" d="M216.22,226.84l1.38.79a1.19,1.19,0,0,0,1.07,0l1.26-.73a.33.33,0,0,0,0-.62l-1.37-.79a1.19,1.19,0,0,0-1.07,0l-1.26.73A.33.33,0,0,0,216.22,226.84Z" transform="translate(-80.09 -52.09)"/><path class="cls-54" d="M223.52,227.81l1.27.73a1.16,1.16,0,0,0,1.07,0l1.21-.7a.33.33,0,0,0,0-.62l-1.26-.73a1.19,1.19,0,0,0-1.07,0l-1.21.7A.33.33,0,0,0,223.52,227.81Z" transform="translate(-80.09 -52.09)"/><path class="cls-55" d="M238.34,229.21l1.22-.71a.33.33,0,0,0,0-.62l-4.13-2.39a1.19,1.19,0,0,0-1.07,0l-1.22.71a.33.33,0,0,0,0,.62l4.13,2.39A1.19,1.19,0,0,0,238.34,229.21Z" transform="translate(-80.09 -52.09)"/><path class="cls-56" d="M219.14,228.53l1.22.7a1.19,1.19,0,0,0,1.07,0l1.26-.73a.33.33,0,0,0,0-.62l-1.22-.7a1.16,1.16,0,0,0-1.07,0l-1.26.74A.33.33,0,0,0,219.14,228.53Z" transform="translate(-80.09 -52.09)"/><path class="cls-57" d="M244.37,228.62l-1.5-.87a1.21,1.21,0,0,0-1.08,0l-.2.12a.33.33,0,0,0,0,.62l1.5.87a1.19,1.19,0,0,0,1.07,0l.21-.12A.33.33,0,0,0,244.37,228.62Z" transform="translate(-80.09 -52.09)"/><path class="cls-58" d="M235.44,230.89l1.36-.79a.33.33,0,0,0,0-.62l-3.4-2a1.19,1.19,0,0,0-1.07,0l-1.36.79a.33.33,0,0,0,0,.62l3.4,2A1.13,1.13,0,0,0,235.44,230.89Z" transform="translate(-80.09 -52.09)"/><path class="cls-59" d="M242.61,229.64l-1.51-.86a1.19,1.19,0,0,0-1.07,0l-1.21.7a.33.33,0,0,0,0,.62l1.51.87a1.19,1.19,0,0,0,1.07,0l1.21-.7A.33.33,0,0,0,242.61,229.64Z" transform="translate(-80.09 -52.09)"/><path class="cls-60" d="M221.91,230.12l4,2.32a1.19,1.19,0,0,0,1.07,0l1.26-.73a.33.33,0,0,0,0-.62l-4-2.32a1.21,1.21,0,0,0-1.08,0l-1.25.73A.33.33,0,0,0,221.91,230.12Z" transform="translate(-80.09 -52.09)"/><path class="cls-61" d="M232.7,232.49l1.2-.7a.33.33,0,0,0,0-.62l-5.28-3a1.21,1.21,0,0,0-1.08,0l-1.2.7a.33.33,0,0,0,0,.62l5.28,3.05A1.21,1.21,0,0,0,232.7,232.49Z" transform="translate(-80.09 -52.09)"/><path class="cls-62" d="M239.85,231.24l-1.5-.86a1.19,1.19,0,0,0-1.07,0l-1.37.79a.33.33,0,0,0,0,.62l1.5.87a1.19,1.19,0,0,0,1.07,0l1.37-.79C240.15,231.7,240.15,231.42,239.85,231.24Z" transform="translate(-80.09 -52.09)"/><path class="cls-63" d="M225.46,232.72l-1.38-.8a1.21,1.21,0,0,0-1.08,0l-1.25.73a.33.33,0,0,0,0,.62l1.38.8a1.16,1.16,0,0,0,1.07,0l1.25-.72A.33.33,0,0,0,225.46,232.72Z" transform="translate(-80.09 -52.09)"/><path class="cls-64" d="M227.48,233.34l1.35.78a1.19,1.19,0,0,0,1.07,0l1.26-.74a.33.33,0,0,0,0-.62L229.8,232a1.16,1.16,0,0,0-1.07,0l-1.26.73A.33.33,0,0,0,227.48,233.34Z" transform="translate(-80.09 -52.09)"/><path class="cls-65" d="M237,232.93l-1.5-.87a1.21,1.21,0,0,0-1.08,0l-1.2.7a.33.33,0,0,0,0,.62l1.51.87a1.19,1.19,0,0,0,1.07,0l1.2-.7A.33.33,0,0,0,237,232.93Z" transform="translate(-80.09 -52.09)"/><path class="cls-66" d="M234.21,234.53l-1.51-.87a1.19,1.19,0,0,0-1.07,0l-1.26.73a.33.33,0,0,0,0,.62l1.51.87a1.19,1.19,0,0,0,1.07,0l1.26-.73A.33.33,0,0,0,234.21,234.53Z" transform="translate(-80.09 -52.09)"/><path class="cls-67" d="M231.41,236.15l-1.5-.86a1.15,1.15,0,0,0-1.08,0l-1.25.72a.33.33,0,0,0,0,.62l1.51.87a1.19,1.19,0,0,0,1.07,0l1.25-.73A.33.33,0,0,0,231.41,236.15Z" transform="translate(-80.09 -52.09)"/><path class="cls-68" d="M228.35,234.39l-1.34-.78a1.21,1.21,0,0,0-1.08,0l-1.25.73a.33.33,0,0,0,0,.62l1.34.78a1.21,1.21,0,0,0,1.08,0l1.25-.73A.33.33,0,0,0,228.35,234.39Z" transform="translate(-80.09 -52.09)"/><path class="cls-69" d="M222.53,231l-1.09-.63a1.13,1.13,0,0,0-1.07,0l-1.26.72c-.29.17-.29.45,0,.63l1.09.62a1.19,1.19,0,0,0,1.07,0l1.25-.72A.33.33,0,0,0,222.53,231Z" transform="translate(-80.09 -52.09)"/><path class="cls-70" d="M219.89,229.5l-1.22-.7a1.19,1.19,0,0,0-1.07,0l-1.25.73a.33.33,0,0,0,0,.62l1.22.7a1.19,1.19,0,0,0,1.07,0l1.25-.73A.33.33,0,0,0,219.89,229.5Z" transform="translate(-80.09 -52.09)"/><path class="cls-71" d="M206.73,218.12l1.37.79a1.19,1.19,0,0,0,1.07,0l1.21-.7a.33.33,0,0,0,0-.62l-1.38-.8a1.19,1.19,0,0,0-1.07,0l-1.21.71A.33.33,0,0,0,206.73,218.12Z" transform="translate(-80.09 -52.09)"/><path class="cls-72" d="M193.81,213.28a.33.33,0,0,0,0,.62l1.37.8a1.19,1.19,0,0,0,1.07,0l1.26-.74a.33.33,0,0,0,0-.62l-1.37-.79a1.19,1.19,0,0,0-1.07,0Z" transform="translate(-80.09 -52.09)"/><path class="cls-73" d="M190.68,208.85l3.2,1.85a1.21,1.21,0,0,0,1.08,0l1.2-.7a.33.33,0,0,0,0-.62L193,207.53a1.19,1.19,0,0,0-1.07,0l-1.2.7A.33.33,0,0,0,190.68,208.85Z" transform="translate(-80.09 -52.09)"/><path class="cls-74" d="M193.42,207.26l2.23,1.28a1.19,1.19,0,0,0,1.07,0l1.36-.79c.3-.17.29-.45,0-.63l-2.22-1.28a1.21,1.21,0,0,0-1.08,0l-1.36.79A.34.34,0,0,0,193.42,207.26Z" transform="translate(-80.09 -52.09)"/><path class="cls-75" d="M189.4,211.9l-2-1.15a1.19,1.19,0,0,0-1.07,0l-1.25.73a.33.33,0,0,0,0,.62l2,1.15a1.19,1.19,0,0,0,1.07,0l1.25-.73A.33.33,0,0,0,189.4,211.9Z" transform="translate(-80.09 -52.09)"/><path class="cls-76" d="M202.14,205.71l1.37.79a1.21,1.21,0,0,0,1.08,0l.19-.12a.33.33,0,0,0,0-.62l-1.37-.79a1.19,1.19,0,0,0-1.07,0l-.2.12A.33.33,0,0,0,202.14,205.71Z" transform="translate(-80.09 -52.09)"/><path class="cls-77" d="M203,206.79l-1.38-.8a1.19,1.19,0,0,0-1.07,0l-1.21.71a.33.33,0,0,0,0,.62l1.37.79a1.24,1.24,0,0,0,1.08,0l1.21-.71A.33.33,0,0,0,203,206.79Z" transform="translate(-80.09 -52.09)"/><path class="cls-78" d="M198.56,208l-1.37.79a.33.33,0,0,0,0,.62l1.37.8a1.19,1.19,0,0,0,1.07,0l1.37-.8a.33.33,0,0,0,0-.62l-1.37-.79A1.19,1.19,0,0,0,198.56,208Z" transform="translate(-80.09 -52.09)"/><path class="cls-79" d="M205.06,207.39l1.21.7a1.21,1.21,0,0,0,1.08,0l.2-.11a.33.33,0,0,0,0-.62l-1.21-.71a1.19,1.19,0,0,0-1.07,0l-.2.12A.33.33,0,0,0,205.06,207.39Z" transform="translate(-80.09 -52.09)"/><path class="cls-80" d="M207.83,209l1.26.73a1.19,1.19,0,0,0,1.07,0l.2-.12a.33.33,0,0,0,0-.62l-1.27-.73a1.19,1.19,0,0,0-1.07,0l-.2.12A.33.33,0,0,0,207.83,209Z" transform="translate(-80.09 -52.09)"/><path class="cls-81" d="M210.64,210.61l1.25.72a1.19,1.19,0,0,0,1.07,0l.2-.11a.33.33,0,0,0,0-.62l-1.25-.72a1.19,1.19,0,0,0-1.07,0l-.2.11A.33.33,0,0,0,210.64,210.61Z" transform="translate(-80.09 -52.09)"/><path class="cls-82" d="M213.44,212.23l1.37.79a1.19,1.19,0,0,0,1.07,0l.2-.12a.33.33,0,0,0,0-.62l-1.37-.79a1.21,1.21,0,0,0-1.08,0l-.2.12A.33.33,0,0,0,213.44,212.23Z" transform="translate(-80.09 -52.09)"/><path class="cls-83" d="M214.31,213.31l-1.37-.79a1.19,1.19,0,0,0-1.07,0l-1.22.7a.33.33,0,0,0,0,.62l1.37.8a1.19,1.19,0,0,0,1.07,0l1.22-.71A.33.33,0,0,0,214.31,213.31Z" transform="translate(-80.09 -52.09)"/><path class="cls-84" d="M211.39,211.62l-1.25-.72a1.19,1.19,0,0,0-1.07,0l-1.21.71a.33.33,0,0,0,0,.62l1.25.72a1.19,1.19,0,0,0,1.07,0l1.22-.71A.33.33,0,0,0,211.39,211.62Z" transform="translate(-80.09 -52.09)"/><path class="cls-85" d="M208.6,210l-1.27-.73a1.19,1.19,0,0,0-1.07,0L205,210a.33.33,0,0,0,0,.62l1.26.73a1.19,1.19,0,0,0,1.07,0l1.22-.7A.33.33,0,0,0,208.6,210Z" transform="translate(-80.09 -52.09)"/><path class="cls-86" d="M205.78,208.38l-1.21-.7a1.21,1.21,0,0,0-1.08,0l-1.21.71a.33.33,0,0,0,0,.62l1.22.7a1.19,1.19,0,0,0,1.07,0l1.21-.71A.33.33,0,0,0,205.78,208.38Z" transform="translate(-80.09 -52.09)"/><path class="cls-87" d="M203.76,210.41l-1.21-.7a1.19,1.19,0,0,0-1.07,0l-1.37.79a.33.33,0,0,0,0,.62l1.21.7a1.19,1.19,0,0,0,1.07,0l1.37-.79A.33.33,0,0,0,203.76,210.41Z" transform="translate(-80.09 -52.09)"/><path class="cls-88" d="M195.43,211a.33.33,0,0,0,0,.62l1.37.8a1.21,1.21,0,0,0,1.08,0l1.2-.7a.33.33,0,0,0,0-.63l-1.37-.79a1.21,1.21,0,0,0-1.08,0Z" transform="translate(-80.09 -52.09)"/><path class="cls-89" d="M187.88,210.48l4.39,2.53a1.19,1.19,0,0,0,1.07,0l1.26-.73a.33.33,0,0,0,0-.62l-4.38-2.54a1.25,1.25,0,0,0-1.07,0l-1.26.74A.33.33,0,0,0,187.88,210.48Z" transform="translate(-80.09 -52.09)"/><path class="cls-90" d="M198.35,212.66a.33.33,0,0,0,0,.62l1.22.7a1.19,1.19,0,0,0,1.07,0l1.2-.7a.33.33,0,0,0,0-.62l-1.21-.7a1.21,1.21,0,0,0-1.08,0Z" transform="translate(-80.09 -52.09)"/><path class="cls-91" d="M223.41,221.75,222,221a1.19,1.19,0,0,0-1.07,0l-1.37.79a.33.33,0,0,0,0,.62l1.38.79a1.13,1.13,0,0,0,1.07,0l1.36-.79A.33.33,0,0,0,223.41,221.75Z" transform="translate(-80.09 -52.09)"/><path class="cls-92" d="M216.36,213.91l1.21.71a1.21,1.21,0,0,0,1.08,0l.19-.12a.33.33,0,0,0,0-.62l-1.21-.7a1.19,1.19,0,0,0-1.07,0l-.21.11A.33.33,0,0,0,216.36,213.91Z" transform="translate(-80.09 -52.09)"/><path class="cls-93" d="M219.12,215.51l1.27.73a1.19,1.19,0,0,0,1.07,0l.2-.12a.33.33,0,0,0,0-.62l-1.27-.73a1.19,1.19,0,0,0-1.07,0l-.2.12A.33.33,0,0,0,219.12,215.51Z" transform="translate(-80.09 -52.09)"/><path class="cls-94" d="M219.89,216.53l-1.26-.73a1.21,1.21,0,0,0-1.08,0l-1.21.7a.33.33,0,0,0,0,.62l1.27.74a1.19,1.19,0,0,0,1.07,0l1.22-.71A.33.33,0,0,0,219.89,216.53Z" transform="translate(-80.09 -52.09)"/><path class="cls-95" d="M217.88,218.56l-1.27-.73a1.16,1.16,0,0,0-1.07,0l-1.37.8a.33.33,0,0,0,0,.62l1.26.73a1.21,1.21,0,0,0,1.08,0l1.36-.79A.33.33,0,0,0,217.88,218.56Z" transform="translate(-80.09 -52.09)"/><path class="cls-96" d="M221.94,217.14l1.06.61a1.19,1.19,0,0,0,1.07,0l.2-.12a.33.33,0,0,0,0-.62l-1.06-.61a1.21,1.21,0,0,0-1.08,0l-.2.11C221.64,216.69,221.64,217,221.94,217.14Z" transform="translate(-80.09 -52.09)"/><path class="cls-97" d="M222.5,218l-1.06-.62a1.19,1.19,0,0,0-1.07,0l-1.22.71a.33.33,0,0,0,0,.62l1.06.62a1.19,1.19,0,0,0,1.07,0l1.22-.71A.33.33,0,0,0,222.5,218Z" transform="translate(-80.09 -52.09)"/><path class="cls-98" d="M220.49,220.06l-1.07-.61a1.19,1.19,0,0,0-1.07,0l-1.36.79a.34.34,0,0,0,0,.63l1.06.61a1.21,1.21,0,0,0,1.08,0l1.36-.8C220.79,220.52,220.78,220.23,220.49,220.06Z" transform="translate(-80.09 -52.09)"/><path class="cls-99" d="M206.58,212l-1.27-.73a1.19,1.19,0,0,0-1.07,0l-1.36.79c-.3.18-.3.45,0,.63l1.27.73a1.19,1.19,0,0,0,1.07,0l1.36-.8C206.88,212.48,206.88,212.21,206.58,212Z" transform="translate(-80.09 -52.09)"/><path class="cls-100" d="M209.38,213.65l-1.25-.72a1.19,1.19,0,0,0-1.07,0l-1.37.79a.33.33,0,0,0,0,.62l1.24.72a1.21,1.21,0,0,0,1.08,0l1.36-.79A.33.33,0,0,0,209.38,213.65Z" transform="translate(-80.09 -52.09)"/><path class="cls-101" d="M201.11,214.88l1.27.73a1.21,1.21,0,0,0,1.08,0l1.2-.7a.33.33,0,0,0,0-.62l-1.27-.74a1.19,1.19,0,0,0-1.07,0l-1.21.71A.33.33,0,0,0,201.11,214.88Z" transform="translate(-80.09 -52.09)"/><path class="cls-102" d="M217.08,214.9l-1.22-.7a1.19,1.19,0,0,0-1.07,0l-1.21.71a.33.33,0,0,0,0,.62l1.21.7a1.21,1.21,0,0,0,1.08,0l1.21-.7A.33.33,0,0,0,217.08,214.9Z" transform="translate(-80.09 -52.09)"/><path class="cls-103" d="M196.74,215.59l1.21.7a1.19,1.19,0,0,0,1.07,0l1.26-.73a.33.33,0,0,0,0-.62l-1.22-.7a1.19,1.19,0,0,0-1.07,0l-1.26.73A.33.33,0,0,0,196.74,215.59Z" transform="translate(-80.09 -52.09)"/><path class="cls-104" d="M212.3,215.34l-1.37-.8a1.21,1.21,0,0,0-1.08,0l-1.36.8a.33.33,0,0,0,0,.62l1.37.79a1.21,1.21,0,0,0,1.08,0l1.36-.79A.33.33,0,0,0,212.3,215.34Z" transform="translate(-80.09 -52.09)"/><path class="cls-105" d="M203.93,216.5l1.25.72a1.19,1.19,0,0,0,1.07,0l1.21-.7a.33.33,0,0,0,0-.62l-1.24-.72a1.21,1.21,0,0,0-1.08,0l-1.2.7A.33.33,0,0,0,203.93,216.5Z" transform="translate(-80.09 -52.09)"/><path class="cls-106" d="M199.5,217.19l1.26.73a1.21,1.21,0,0,0,1.08,0l1.26-.73a.33.33,0,0,0,0-.63l-1.26-.73a1.21,1.21,0,0,0-1.08,0l-1.25.73C199.2,216.73,199.2,217,199.5,217.19Z" transform="translate(-80.09 -52.09)"/><path class="cls-107" d="M197.9,216.81l-1.27-.73a1.13,1.13,0,0,0-1.07,0l-1.25.72a.33.33,0,0,0,0,.62l1.27.74a1.16,1.16,0,0,0,1.07,0l1.25-.72A.33.33,0,0,0,197.9,216.81Z" transform="translate(-80.09 -52.09)"/><path class="cls-108" d="M215.06,216.93l-1.21-.7a1.19,1.19,0,0,0-1.07,0l-1.37.79a.33.33,0,0,0,0,.62l1.22.7a1.13,1.13,0,0,0,1.07,0l1.37-.79A.33.33,0,0,0,215.06,216.93Z" transform="translate(-80.09 -52.09)"/><path class="cls-109" d="M202.32,218.81l1.24.72a1.21,1.21,0,0,0,1.08,0l1.26-.73a.33.33,0,0,0,0-.62l-1.25-.72a1.19,1.19,0,0,0-1.07,0l-1.26.73A.33.33,0,0,0,202.32,218.81Z" transform="translate(-80.09 -52.09)"/><path class="cls-110" d="M200.7,218.42l-1.25-.72a1.19,1.19,0,0,0-1.07,0l-1.25.73a.33.33,0,0,0,0,.62l1.25.72a1.19,1.19,0,0,0,1.07,0l1.25-.73A.33.33,0,0,0,200.7,218.42Z" transform="translate(-80.09 -52.09)"/><path class="cls-111" d="M209.65,219.8l1.21.7a1.15,1.15,0,0,0,1.08,0l1.2-.7a.33.33,0,0,0,0-.62l-1.22-.7a1.19,1.19,0,0,0-1.07,0l-1.2.7A.33.33,0,0,0,209.65,219.8Z" transform="translate(-80.09 -52.09)"/><path class="cls-112" d="M205.11,220.43l1.37.79a1.21,1.21,0,0,0,1.08,0l1.26-.73a.33.33,0,0,0,0-.62l-1.37-.8a1.19,1.19,0,0,0-1.07,0l-1.26.73A.33.33,0,0,0,205.11,220.43Z" transform="translate(-80.09 -52.09)"/><path class="cls-113" d="M212.41,221.4l1.27.73a1.19,1.19,0,0,0,1.07,0l1.21-.7a.33.33,0,0,0,0-.62l-1.26-.73a1.21,1.21,0,0,0-1.08,0l-1.2.7A.33.33,0,0,0,212.41,221.4Z" transform="translate(-80.09 -52.09)"/><path class="cls-114" d="M208,222.11l1.22.7a1.19,1.19,0,0,0,1.07,0l1.26-.73a.33.33,0,0,0,0-.62l-1.22-.7a1.19,1.19,0,0,0-1.07,0l-1.26.73A.33.33,0,0,0,208,222.11Z" transform="translate(-80.09 -52.09)"/><path class="cls-115" d="M215.23,223l1.06.62a1.19,1.19,0,0,0,1.07,0l1.21-.7a.33.33,0,0,0,0-.62l-1.07-.62a1.19,1.19,0,0,0-1.07,0l-1.21.7A.33.33,0,0,0,215.23,223Z" transform="translate(-80.09 -52.09)"/><path class="cls-116" d="M210.8,223.71l1.26.73a1.21,1.21,0,0,0,1.08,0l1.26-.73a.33.33,0,0,0,0-.62l-1.27-.73a1.19,1.19,0,0,0-1.07,0l-1.26.73A.33.33,0,0,0,210.8,223.71Z" transform="translate(-80.09 -52.09)"/><path class="cls-117" d="M213.61,225.33l1.06.62a1.21,1.21,0,0,0,1.08,0l1.26-.74c.29-.17.29-.44,0-.62l-1.06-.61a1.19,1.19,0,0,0-1.07,0l-1.26.73A.33.33,0,0,0,213.61,225.33Z" transform="translate(-80.09 -52.09)"/><path class="cls-118" d="M217.13,227.91l-14.88-8.59a1.15,1.15,0,0,0-1.08,0l-1.25.72c-.29.17-.29.45,0,.63l14.87,8.59a1.24,1.24,0,0,0,1.08,0l1.25-.73A.33.33,0,0,0,217.13,227.91Z" transform="translate(-80.09 -52.09)"/><path class="cls-119" d="M192.32,213.59l-1.37-.8a1.19,1.19,0,0,0-1.07,0l-1.25.73a.33.33,0,0,0,0,.62l1.37.8a1.19,1.19,0,0,0,1.07,0l1.25-.72A.33.33,0,0,0,192.32,213.59Z" transform="translate(-80.09 -52.09)"/><path class="cls-120" d="M195.09,215.18l-1.22-.7a1.19,1.19,0,0,0-1.07,0l-1.25.73a.33.33,0,0,0,0,.62l1.21.7a1.21,1.21,0,0,0,1.08,0l1.25-.73A.33.33,0,0,0,195.09,215.18Z" transform="translate(-80.09 -52.09)"/><path class="cls-121" d="M199.11,204l1.48.85a1.19,1.19,0,0,0,1.07,0l.2-.11a.33.33,0,0,0,0-.63l-1.48-.85a1.18,1.18,0,0,0-1.08,0l-.2.11C198.81,203.5,198.81,203.78,199.11,204Z" transform="translate(-80.09 -52.09)"/><path class="cls-122" d="M196.33,205.57l1.48.86a1.19,1.19,0,0,0,1.07,0l1.22-.71a.33.33,0,0,0,0-.62l-1.48-.86a1.19,1.19,0,0,0-1.07,0l-1.22.71A.33.33,0,0,0,196.33,205.57Z" transform="translate(-80.09 -52.09)"/><path class="cls-123" d="M225.42,219.72l-1.37-.79a1.19,1.19,0,0,0-1.07,0l-1.21.71a.33.33,0,0,0,0,.62l1.37.79a1.19,1.19,0,0,0,1.07,0l1.22-.71A.33.33,0,0,0,225.42,219.72Z" transform="translate(-80.09 -52.09)"/><path class="cls-124" d="M215.47,230.62,197,220a1,1,0,0,0-.81,0l-8.65,5a.25.25,0,0,0,0,.47L206,236.11a.89.89,0,0,0,.81,0l8.65-5A.25.25,0,0,0,215.47,230.62Z" transform="translate(-80.09 -52.09)"/><path class="cls-125" d="M180,386a73.38,73.38,0,0,0,10.9,5.2c4.64,1.56,6.08,1.7,6.7,2.94s1.19,3.63-1.13,4.43-18.32,2.87-20.9,3.21-8.1-.65-8.16-2.84,1.89-12.8,1.89-12.8Z" transform="translate(-80.09 -52.09)"/><path class="cls-126" d="M179.8,384.55a73.54,73.54,0,0,0,10.9,5.21c4.65,1.56,6.08,1.69,6.7,2.93s1.19,3.64-1.12,4.44S178,400,175.38,400.34s-8.11-.65-8.17-2.84,1.89-12.81,1.89-12.81Z" transform="translate(-80.09 -52.09)"/><path class="cls-127" d="M181.65,386.92s-8.49,3.53-14.48-2.91c0,0,.43-21.11.77-45.31-9.16-15.25-23.9-28.37-32-35.21l32.43-15.66s16,25.61,18.5,46C186.57,347.07,181.65,386.92,181.65,386.92Z" transform="translate(-80.09 -52.09)"/><path class="cls-125" d="M187.7,360.72a77.82,77.82,0,0,0,9,8.88c4.06,3.12,5.44,3.75,5.63,5.19s-.07,4-2.63,4-19.1-3.43-21.77-4-7.79-3.41-7.1-5.6,6.25-12,6.25-12Z" transform="translate(-80.09 -52.09)"/><path class="cls-126" d="M188,359.29a76.35,76.35,0,0,0,9,8.87c4.06,3.13,5.43,3.75,5.62,5.19s-.06,4-2.62,4-19.11-3.42-21.77-4-7.8-3.42-7.11-5.6,6.25-12,6.25-12Z" transform="translate(-80.09 -52.09)"/><path class="cls-128" d="M210.76,317.89s-.16,3.82-4.58,11.54-17.08,31-17.08,31-9.5.75-13.67-4c0,0,13.25-33.84,15.34-38.5S208.84,309,210.76,317.89Z" transform="translate(-80.09 -52.09)"/><g class="cls-2"><polygon class="cls-129" points="51.25 243.9 47.02 241.44 60.51 339.45 64.74 341.91 51.25 243.9"/><polygon class="cls-130" points="28.73 252 24.51 249.54 11.02 368.02 15.25 370.48 28.73 252"/><polygon class="cls-31" points="54.92 236.87 50.7 234.42 24.51 249.54 28.73 252 54.92 236.87"/><polygon class="cls-131" points="28.73 252 15.25 370.48 19.55 367.99 32.44 254.76 51.25 243.9 64.74 341.91 69.03 339.43 54.92 236.87 28.73 252"/></g><g class="cls-2"><polygon class="cls-129" points="101.23 327.75 59.5 303.53 60.13 308.07 101.86 332.29 101.23 327.75"/><polygon class="cls-31" points="105.53 325.26 63.8 301.04 59.5 303.53 101.23 327.75 105.53 325.26"/><polygon class="cls-131" points="101.23 327.75 101.86 332.29 106.15 329.8 105.53 325.26 101.23 327.75"/></g><g class="cls-2"><polygon class="cls-130" points="62.53 345.93 20.8 321.71 20.2 326.96 61.93 351.18 62.53 345.93"/><polygon class="cls-31" points="66.82 343.45 25.09 319.23 20.8 321.71 62.53 345.93 66.82 343.45"/><polygon class="cls-131" points="62.53 345.93 61.93 351.18 66.22 348.69 66.82 343.45 62.53 345.93"/></g><g class="cls-2"><polygon class="cls-129" points="94.9 269.24 90.68 266.78 104.17 364.79 108.39 367.25 94.9 269.24"/><polygon class="cls-130" points="72.39 277.34 68.16 274.88 54.68 393.36 58.91 395.82 72.39 277.34"/><polygon class="cls-31" points="98.58 262.22 94.35 259.76 68.16 274.88 72.39 277.34 98.58 262.22"/><polygon class="cls-131" points="72.39 277.34 58.91 395.82 63.21 393.33 76.09 280.1 94.9 269.24 108.39 367.25 112.69 364.77 98.58 262.22 72.39 277.34"/></g><polygon class="cls-32" points="19.68 248.4 19.68 254.79 70.89 284.64 70.89 278.26 19.68 248.4"/><polygon class="cls-16" points="19.68 248.4 70.89 278.26 100.77 261.35 49.57 231.49 19.68 248.4"/><polygon class="cls-17" points="70.89 278.26 70.89 284.64 100.77 267.74 100.77 261.35 70.89 278.26"/><polygon class="cls-33" points="100.77 261.35 100.77 262.35 70.89 279.25 19.68 249.4 19.68 248.4 70.89 278.26 100.77 261.35"/><polygon class="cls-32" points="19.68 248.4 19.68 254.79 70.89 284.64 70.89 278.26 19.68 248.4"/><polygon class="cls-16" points="19.68 248.4 70.89 278.26 100.77 261.35 49.57 231.49 19.68 248.4"/><polygon class="cls-17" points="70.89 278.26 70.89 284.64 100.77 267.74 100.77 261.35 70.89 278.26"/><polygon class="cls-33" points="100.77 261.35 100.77 262.35 70.89 279.25 19.68 249.4 19.68 248.4 70.89 278.26 100.77 261.35"/><path class="cls-128" d="M168.43,286s28.25,14,34.09,17.34,8.25,7.79,8.25,15.08c0,3.92-10,3.83-19.67,1.92-2.37-.47-6-1.11-10.26-1.83l-.08-5-7.62-3.59s-12.39,4.88-21.52,3.3a60.43,60.43,0,0,1-7.85-2.09c-7-2.75-14.34-6.59-16-13.84Z" transform="translate(-80.09 -52.09)"/><path class="cls-132" d="M183.29,214.18s2.18-1.57,2.82-2a4.93,4.93,0,0,1,2.13-.86c.74-.07,2.87-.33,3.48-.49s1.82-.67,2-.49a2.32,2.32,0,0,1-1.77,2.57c-1.83.6-2.79.46-3.51.82s-3.36,2.44-3.36,2.44Z" transform="translate(-80.09 -52.09)"/><path class="cls-133" d="M185,214.58l3.59-1.91A5.2,5.2,0,0,1,191,212c.79,0,3.06-.09,3.72-.22s2-.54,2.17-.34-.1,2.09-2.09,2.56-3,.24-3.77.56-3.78,2.29-3.78,2.29Z" transform="translate(-80.09 -52.09)"/><path class="cls-134" d="M186.63,216l4-1.74a5.61,5.61,0,0,1,2.55-.59c.85.06,3.3.16,4,.09s2.18-.43,2.37-.19a2.65,2.65,0,0,1-2.47,2.57c-2.17.35-3.22,0-4.09.29s-4.24,2.14-4.24,2.14Z" transform="translate(-80.09 -52.09)"/><path class="cls-135" d="M144.22,221.32l2.33,6s7.31-1.89,11.4-2.58,15.74-3.82,18.05-5.16,6.86-5,7.29-5.35,1.52-1.15,2-.86a13.06,13.06,0,0,1,5.29,6.74c-.66,1.31-3.22,2.76-4.62,3.78s-4.67,1.65-6.83,1.65-10.64,5-17.68,8.71a151.46,151.46,0,0,1-18.22,8c-3,1-4.46.48-5.85-1.24s-5.11-9.19-6.56-13.76Z" transform="translate(-80.09 -52.09)"/><path class="cls-136" d="M145.77,225.28a32.1,32.1,0,0,1-11,11.2,68.54,68.54,0,0,1-4-9.27l13.36-5.89Z" transform="translate(-80.09 -52.09)"/><path class="cls-135" d="M187.75,218.24s2.86-1.23,3.56-1.55a5,5,0,0,1,2.26-.51c.75,0,2.92.14,3.55.08s1.93-.38,2.1-.17a2.35,2.35,0,0,1-2.18,2.28c-1.92.3-2.86,0-3.63.25s-3.75,1.9-3.75,1.9Z" transform="translate(-80.09 -52.09)"/><path class="cls-137" d="M190.37,220.44c-.87,1.16-3,2.4-4.25,3.31-1.38-1.37-2.46-2.86-1.34-3.39C186.68,219.47,189.53,220.19,190.37,220.44Z" transform="translate(-80.09 -52.09)"/><path class="cls-135" d="M183,225s2.89-.3,4.65-.32a6.51,6.51,0,0,0,3.08-.52c.75-.34,1.84-1.46,2.41-1.69s1.89-.62,1.85-1.07-1.73-1.3-3.34-.7-2,.95-2.72.8-2-1.51-4-1.14S181.73,223.74,183,225Z" transform="translate(-80.09 -52.09)"/><path class="cls-135" d="M134.48,154.51c7.89-.33,12.25,3.31,14.5,10.69s.81,8.56,2.62,12.5,1.32,7.31-.31,11.62-2.31,6.25-3.81,6.25a41.16,41.16,0,0,1-5.88-1.12l-15.87-2.25s-6.5-6-8.44-19.75C115.38,158.88,124,155,134.48,154.51Z" transform="translate(-80.09 -52.09)"/><path class="cls-138" d="M140.85,191s-.12,10.68,3.63,16.74,5.5,6.44,5.5,6.44-11,5.75-21.16,1.37a16.34,16.34,0,0,1-10.15-14.25s8.12-.56,5.68-14.56l11-1.58s1.05,2.23,4.8,3.29A5.08,5.08,0,0,1,140.85,191Z" transform="translate(-80.09 -52.09)"/><path class="cls-126" d="M144.48,207.76s6.94,6.19,9.44,8.13,9,6.81,9.87,16.75-.56,33.68,2.38,43.12,4.93,9.5,3.37,15-9.69,12.94-23.06,14.56-22.19-5-23.88-16.25-4.25-32.31-6-42.5-7.25-25.81-6.16-34.06a25,25,0,0,1,2.37-8.08c2-3.58,8.19-4.33,8.73-4.33.84,0,1.64.83,8.56,2.83S140.35,205.68,144.48,207.76Z" transform="translate(-80.09 -52.09)"/><path class="cls-139" d="M120.89,200.17s2.87-4.34,3.39-4.37a44.63,44.63,0,0,1,13.57,4,17.15,17.15,0,0,1,7.92,9.06S130.86,203.43,120.89,200.17Z" transform="translate(-80.09 -52.09)"/><path class="cls-140" d="M165,269.73c-9.38-6.85-16-20.69-17.51-31.39l16.63,4C164.2,251.08,164.07,262,165,269.73Z" transform="translate(-80.09 -52.09)"/><path class="cls-141" d="M205.8,237.51s.89-2.77,1.27-4.49a6.4,6.4,0,0,1,1.15-2.9c.49-.67,1.8-1.51,2.15-2s1-1.72,1.43-1.58.91,2,0,3.41-1.35,1.77-1.35,2.5,1.05,2.31.3,4.11S206.72,239,205.8,237.51Z" transform="translate(-80.09 -52.09)"/><path class="cls-135" d="M170.85,239.86l3.62,5.95s7.31-1.88,11.39-2.58,15.75-3.82,18.06-5.16,6.29-7.47,6.72-7.79,1.52-1.15,2-.86c2.85,1.56,5.54,7.79,5.86,9.19-.66,1.3-3.22,2.76-4.62,3.77s-4.68,1.66-6.83,1.66-10.64,5-17.68,8.71a153.37,153.37,0,0,1-18.22,8c-3,1-4.46.48-5.85-1.23s-5.11-9.19-6.56-13.76Z" transform="translate(-80.09 -52.09)"/><path class="cls-142" d="M204.07,241.19a12.25,12.25,0,0,1,.55,3.6l-1.91,1a13.13,13.13,0,0,0-1.06-3.82Z" transform="translate(-80.09 -52.09)"/><path class="cls-143" d="M198.93,240.82c.18,1.06,1.62,1.69,3.21,1.42s2.73-1.36,2.54-2.42-1.62-1.69-3.21-1.42S198.74,239.76,198.93,240.82Z" transform="translate(-80.09 -52.09)"/><path class="cls-144" d="M199.43,240.53c.15.87,1.34,1.4,2.64,1.17s2.25-1.12,2.1-2-1.33-1.39-2.64-1.17S199.28,239.66,199.43,240.53Z" transform="translate(-80.09 -52.09)"/><path class="cls-135" d="M211.92,229.48l3.45-1.78a5,5,0,0,1,2.22-.66c.75,0,2.92-.06,3.55-.16s1.9-.51,2.08-.31a2.34,2.34,0,0,1-2,2.42c-1.9.43-2.85.2-3.6.49s-3.62,2.14-3.62,2.14Z" transform="translate(-80.09 -52.09)"/><path class="cls-135" d="M213.59,231.6l4-1.75a5.47,5.47,0,0,1,2.55-.58c.85,0,3.29.15,4,.08s2.18-.42,2.37-.19-.3,2.23-2.47,2.58-3.22,0-4.09.28-4.24,2.14-4.24,2.14Z" transform="translate(-80.09 -52.09)"/><path class="cls-135" d="M215.25,234.21s3.11-1,3.87-1.26a5.31,5.31,0,0,1,2.42-.3c.78.13,3,.44,3.7.44s2-.2,2.2,0a2.45,2.45,0,0,1-2.51,2.16c-2,.11-3-.29-3.81-.11s-4.12,1.59-4.12,1.59Z" transform="translate(-80.09 -52.09)"/><path class="cls-135" d="M215,236.93l3.74-.87a5,5,0,0,1,2.3-.1c.72.18,2.81.66,3.44.71s1.94,0,2.07.21a2.33,2.33,0,0,1-2.53,1.83c-1.93-.05-2.78-.5-3.58-.4s-4,1.17-4,1.17Z" transform="translate(-80.09 -52.09)"/><path class="cls-126" d="M158.37,219.93s5.48,7.08,8.11,11,8.81,13.31,8.81,13.31a6.06,6.06,0,0,1,2.24-.58,33,33,0,0,1,1.85,14.86c-1.46.79-4.44,2.78-6.24,3.72s-4.7,2.17-6.12.5-4-4.08-6.08-6.79-11.84-8.3-13.59-18.3S152.72,213.76,158.37,219.93Z" transform="translate(-80.09 -52.09)"/><path class="cls-145" d="M175.87,244s.1-.65.42-.74,7.56-.16,7.93-.16,1.72,1,2.5,4.78.38,6.69,0,7.09-7.49,4.58-7.74,4.69-1-.28-1-.28A31.75,31.75,0,0,0,175.87,244Z" transform="translate(-80.09 -52.09)"/><path class="cls-146" d="M146.47,167.39a11.81,11.81,0,0,1,1,6.67,6.15,6.15,0,0,1-2-1.59s-.37,2.75-.41,3.13-1.71,1.58-1.84,2.33-.25,4.83-.25,4.83l-1.29.21a28.16,28.16,0,0,0-1.53-3.62c-.51-.75-2.13-2-2.84-1.25s-1.08,5.25-.54,7.21,3.38,3.16,3.38,3.16c-.05,4-1.18,5.5-1.51,5.71s-.83-1-.83-1-5.79,2.78-8.13,2.58a12.46,12.46,0,0,1-9.41-7.24s-.55,1-.71,1A19.32,19.32,0,0,1,113.22,178c-1.25-7.42,1-10.92,2.59-13.55-.13-4.12,1-8.33,6-10.16s9.46-2.54,11.5-4.42,5.16-4.75,5.75-4.54a6.87,6.87,0,0,1,3.29,5.79c3-1.12,6.16-4,6.54-2.67s2.33,7.25,0,11.21c1.79-.54,3.25-.54,3.25.13S151.31,166.06,146.47,167.39Z" transform="translate(-80.09 -52.09)"/><path class="cls-147" d="M260.94,247.51l-.26-.14a.47.47,0,0,1,.18.16,1.07,1.07,0,0,0,.35.38l.26.15a1,1,0,0,1-.36-.38A.55.55,0,0,0,260.94,247.51Z" transform="translate(-80.09 -52.09)"/><polygon class="cls-148" points="168.01 199.22 167.75 199.07 167.75 199.99 168.01 200.13 168.01 199.22"/><path class="cls-149" d="M248.09,251.31v.91c.36-.12,7.11-2.54,7.78-2.74l.27-.12a8.19,8.19,0,0,0,.82-.61,6.91,6.91,0,0,1,1-.72,3.93,3.93,0,0,1,.66-.3c1.22-.43,2.24-.47,2.49,0a.9.9,0,0,0,1.39.28c.69-.4,1.08-1.15,1-1.26a31.27,31.27,0,0,0-5,.36Z" transform="translate(-80.09 -52.09)"/><path class="cls-150" d="M263.5,246.7l-.25-.15a31.36,31.36,0,0,0-4.95.36l-10.46,4.25.25.15,10.46-4.25A31.44,31.44,0,0,1,263.5,246.7Z" transform="translate(-80.09 -52.09)"/><path class="cls-147" d="M246.1,239.05l-.26-.14a.47.47,0,0,1,.18.16.94.94,0,0,0,.36.38l.25.15a1.1,1.1,0,0,1-.36-.38A.69.69,0,0,0,246.1,239.05Z" transform="translate(-80.09 -52.09)"/><polygon class="cls-151" points="153.17 190.76 152.91 190.61 152.91 191.53 153.17 191.68 153.17 190.76"/><path class="cls-152" d="M233.26,242.85v.92c.35-.13,7.1-2.55,7.77-2.75l.28-.12a9.53,9.53,0,0,0,.81-.61,7.24,7.24,0,0,1,1-.72,3.5,3.5,0,0,1,.65-.3c1.23-.42,2.24-.47,2.49-.05a.9.9,0,0,0,1.39.28c.69-.39,1.08-1.15,1-1.26a31.15,31.15,0,0,0-4.95.36Z" transform="translate(-80.09 -52.09)"/><path class="cls-150" d="M248.67,238.24l-.26-.15a31.44,31.44,0,0,0-4.95.36L233,242.7l.26.15,10.46-4.25A31.27,31.27,0,0,1,248.67,238.24Z" transform="translate(-80.09 -52.09)"/><g class="cls-2"><path class="cls-153" d="M234,244.31a.55.55,0,0,1,.19-.21l.37-.21h0a.57.57,0,0,0-.2.21,5.59,5.59,0,0,0,.13,2.56,4.23,4.23,0,0,0,2.13,2.77,6.08,6.08,0,0,0,.81.39,1.52,1.52,0,0,0,1.37,0l-.39.22a1.49,1.49,0,0,1-1.36,0,6.1,6.1,0,0,1-.81-.4,4.2,4.2,0,0,1-2.13-2.77A5.44,5.44,0,0,1,234,244.31Z" transform="translate(-80.09 -52.09)"/><path class="cls-147" d="M238.64,250.45l.39-.23c.73-.43,1-1.69,1.22-2l0,0-.38.22,0,0C239.6,248.75,239.38,250,238.64,250.45Z" transform="translate(-80.09 -52.09)"/><path class="cls-154" d="M241.54,248.44l.38-.23c-.18.11-.28.4-.24,1a6.14,6.14,0,0,0,2.2,4.31,7.1,7.1,0,0,0,.81.54c.77.45,1.33.53,1.7.32l-.38.22c-.37.22-.93.13-1.7-.32a7.1,7.1,0,0,1-.81-.54,6.09,6.09,0,0,1-2.2-4.31C241.26,248.83,241.36,248.54,241.54,248.44Z" transform="translate(-80.09 -52.09)"/><path class="cls-147" d="M246.28,255l.38-.23a1.85,1.85,0,0,0,.69-1.24c.11-.46.12-1.11.34-1.24l-.38.23c-.22.13-.23.77-.34,1.23A1.91,1.91,0,0,1,246.28,255Z" transform="translate(-80.09 -52.09)"/><path class="cls-155" d="M233.17,242.47h.1a24.86,24.86,0,0,1,3.18,1.53l.22.13a23.29,23.29,0,0,1,2.81,2.07,10.05,10.05,0,0,0,1.2.89,6.82,6.82,0,0,0,1.19.49,14.16,14.16,0,0,1,2.82,1.19l.22.12a30.81,30.81,0,0,1,3.18,2.14.4.4,0,0,1,.14.38v.8c0,.07,0,.11,0,.12l-.38.23a.17.17,0,0,0,0-.12v-.81a.37.37,0,0,0-.13-.37,32.79,32.79,0,0,0-3.18-2.15l-.22-.12a14.84,14.84,0,0,0-2.82-1.19,6.9,6.9,0,0,1-1.2-.49,10,10,0,0,1-1.19-.89,22.47,22.47,0,0,0-2.81-2.06l-.23-.13a22.87,22.87,0,0,0-3.18-1.53s-.07,0-.09,0Z" transform="translate(-80.09 -52.09)"/><path class="cls-156" d="M236.06,244.22l.23.13a22.47,22.47,0,0,1,2.81,2.06,10,10,0,0,0,1.19.89,6.9,6.9,0,0,0,1.2.49,14.84,14.84,0,0,1,2.82,1.19l.22.12a32.79,32.79,0,0,1,3.18,2.15.37.37,0,0,1,.13.37v.81c0,.19-.07.13-.41.08s-.33.72-.46,1.25-.38,1.5-1.36,1.36a4,4,0,0,1-1.41-.54,6.45,6.45,0,0,1-2-1.8c-1-1.33-1.21-3.17-1.5-3.8a1,1,0,0,0-.44-.46c-.06,0-.29-.15-.41,0-.29.29-.54,1.85-1.5,2.07a3,3,0,0,1-2-.51A6.49,6.49,0,0,1,235,249,5.4,5.4,0,0,1,233.6,246c-.12-.67-.11-1.44-.45-1.78s-.41-.36-.41-.55v-.81c0-.17,0-.23.14-.21A22.87,22.87,0,0,1,236.06,244.22Zm-1.94,2.65a4.2,4.2,0,0,0,2.13,2.77,6.1,6.1,0,0,0,.81.4c1.69.68,2.15-.89,2.22-1.77a1.93,1.93,0,0,0-.63-1.75,13.49,13.49,0,0,0-2.33-1.75,7.57,7.57,0,0,0-1.33-.62c-.68-.25-.88-.05-1,.16a5.44,5.44,0,0,0,.13,2.56m7.18,2.57a6.09,6.09,0,0,0,2.2,4.31,7.1,7.1,0,0,0,.81.54c1.19.69,1.88.53,2.14-.3a4.82,4.82,0,0,0,.14-2.41,2.53,2.53,0,0,0-1-1.3,10.31,10.31,0,0,0-1.33-.93,9.78,9.78,0,0,0-2.33-.94c-.41-.1-.7.06-.64,1" transform="translate(-80.09 -52.09)"/></g><path class="cls-157" d="M258.21,258.17l-.54-4.1a3.27,3.27,0,0,0,1.74,2.26,9.88,9.88,0,0,0,9,.09,3.4,3.4,0,0,0,1.94-2.39c-.18,1.37-.35,2.74-.52,4.11a3.13,3.13,0,0,1-1.78,2.18,9,9,0,0,1-8.21-.08A3,3,0,0,1,258.21,258.17Z" transform="translate(-80.09 -52.09)"/><path class="cls-9" d="M257.66,254.07l-1.14-8.62a3.85,3.85,0,0,0,2.06,2.65,11.61,11.61,0,0,0,10.55.11,4,4,0,0,0,2.28-2.81L270.32,254a3.4,3.4,0,0,1-1.93,2.39,9.9,9.9,0,0,1-9-.09A3.29,3.29,0,0,1,257.66,254.07Z" transform="translate(-80.09 -52.09)"/><path class="cls-158" d="M256.52,245.45l-.21-1.63a4,4,0,0,0,2.11,2.73,11.93,11.93,0,0,0,10.85.11,4.12,4.12,0,0,0,2.35-2.88l-.21,1.62a4,4,0,0,1-2.28,2.81,11.61,11.61,0,0,1-10.55-.11A3.83,3.83,0,0,1,256.52,245.45Z" transform="translate(-80.09 -52.09)"/><path class="cls-159" d="M270.22,236.84c3.32,2,3.21,5.19-.25,7.12a13.54,13.54,0,0,1-12.29-.13c-3.32-2-3.21-5.18.26-7.11A13.52,13.52,0,0,1,270.22,236.84Z" transform="translate(-80.09 -52.09)"/><path class="cls-160" d="M267.76,236.56a8.23,8.23,0,0,0-7.47-.08c-2.1,1.18-2.17,3.11-.15,4.33a8.24,8.24,0,0,0,7.46.07C269.71,239.71,269.77,237.77,267.76,236.56Z" transform="translate(-80.09 -52.09)"/><path class="cls-161" d="M265.27,238.17a2.88,2.88,0,0,0-2.59,0c-.73.41-.75,1.08-.05,1.5a2.85,2.85,0,0,0,2.59,0C266,239.26,266,238.59,265.27,238.17Z" transform="translate(-80.09 -52.09)"/><path class="cls-162" d="M265.63,237.74a3.65,3.65,0,0,0-3.3,0c-.93.52-1,1.38-.07,1.91a3.62,3.62,0,0,0,3.3,0C266.5,239.14,266.53,238.28,265.63,237.74Zm-.41,1.93a2.85,2.85,0,0,1-2.59,0c-.7-.42-.68-1.09.05-1.5a2.88,2.88,0,0,1,2.59,0C266,238.59,266,239.26,265.22,239.67Z" transform="translate(-80.09 -52.09)"/><path class="cls-163" d="M258.33,238l1.37-1.07c-1.5,1.17-1.37,2.84.44,3.93a8.24,8.24,0,0,0,7.46.07c1.94-1.08,2.15-2.81.58-4l1.38,1.07c2.07,1.6,1.79,3.9-.77,5.33a10.92,10.92,0,0,1-9.88-.1C256.52,241.71,256.35,239.51,258.33,238Z" transform="translate(-80.09 -52.09)"/><path class="cls-164" d="M267.6,240.88a8.24,8.24,0,0,1-7.46-.07c-1.47-.89-1.83-2.16-1.1-3.24-.83,1.1-.49,2.42,1,3.33a8.21,8.21,0,0,0,7.46.08,3.6,3.6,0,0,0,1.24-1.07A3.74,3.74,0,0,1,267.6,240.88Z" transform="translate(-80.09 -52.09)"/><path class="cls-165" d="M255.26,243.49c0-1,0-2.08,0-3.13a4.26,4.26,0,0,0,2.42,3.47A13.54,13.54,0,0,0,270,244c1.78-1,2.67-2.32,2.67-3.65v3.13c0,1.33-.89,2.65-2.67,3.65a13.54,13.54,0,0,1-12.29-.13A4.28,4.28,0,0,1,255.26,243.49Z" transform="translate(-80.09 -52.09)"/><path class="cls-164" d="M270,244a13.54,13.54,0,0,1-12.29-.13,4.25,4.25,0,0,1-2.42-3.46v.14a4.28,4.28,0,0,0,2.42,3.47,13.51,13.51,0,0,0,12.29.12c1.78-1,2.67-2.31,2.67-3.64v-.15C272.64,241.64,271.75,243,270,244Z" transform="translate(-80.09 -52.09)"/><polygon class="cls-13" points="269.58 282.05 246.71 295.34 253.82 341.9 269.6 332.73 285.48 341.9 292.59 295.34 269.58 282.05"/><polygon class="cls-166" points="269.76 315.1 269.73 355.53 246.11 341.9 235.53 295.34 269.76 315.1"/><polygon class="cls-167" points="303.77 295.34 293.19 341.9 269.73 355.53 269.76 315.1 303.77 295.34"/><polygon class="cls-16" points="244.88 336.46 246.11 341.9 269.73 355.53 269.74 355.52 269.74 350.82 244.88 336.46"/><polygon class="cls-17" points="294.43 336.47 269.74 350.82 269.74 355.52 293.19 341.9 294.43 336.47"/><polygon class="cls-18" points="269.76 315.98 303.54 296.36 303.77 295.34 269.76 315.1 235.53 295.34 235.76 296.35 269.76 315.98"/><path class="cls-19" d="M349.63,327.67l34.23,19.76-34,19.76-34.23-19.76Zm.18,33,22.87-13.28-23-13.29L326.8,347.43l23,13.28" transform="translate(-80.09 -52.09)"/><path class="cls-20" d="M336.42,359.44c.31,0,.64,0,1,0a8.53,8.53,0,0,0,5.41-2.73l-16-9.25,13.7-8c-2.25-.53-4.17.26-7-2.09a2.23,2.23,0,0,1-.24-.19l-17.63,10.25Z" transform="translate(-80.09 -52.09)"/><path class="cls-168" d="M327.77,284.29c.9-6-1.25-6,.63-12,2.17-6,5.08-8.29,7.57-14,4.1,4.68,7.57,6,11.45,11,3.62,5.18,1.59,5.87,4.26,11.28,2.4,5.52,5,5,7.1,10.78,1.86,5.9-1.21,6.31-.29,12.22.64,5.94,4.18,5.78,4.49,11.95,0,6.19-4,6.08-4.85,12.05-1.17,5.95,3.19,6.41,1.59,12.51-1.9,6-6.58,5.21-9.34,10.82-4.34-4.51-8.55-2.29-12.19-7.47-3.37-5.32.64-7.09-2.29-12.4-2.66-5.41-6.41-4.11-8.27-10-1.59-6,1.84-6.9.65-12.76-.92-5.9-4-5.36-4-11.55C324.55,290.52,327.16,290.28,327.77,284.29Z" transform="translate(-80.09 -52.09)"/><path class="cls-22" d="M363,315.52c-.24-4.74-2.38-5.75-3.65-8.66a11.53,11.53,0,0,1-.85,2.12c-2.16,4.79-5.08,3.68-7,8.75-1.71,5.16,1.63,6.16.75,11.39-.65,5.28-4.42,4.48-4.75,10-.06,4.79,3,5.9,4.33,9.58,2.74-3.32,6.33-3.53,7.93-8.63,1.6-6.1-2.76-6.56-1.59-12.51C359,321.6,363,321.71,363,315.52Z" transform="translate(-80.09 -52.09)"/><path class="cls-22" d="M327.13,287.5c2.23,2.92,1.28,4.06,3.89,7.88,2.76,4.51,4.93,3.7,7.5,8.5,2.35,4.91-.27,5.64,1.25,10.67,1.29,5.09,4.35,4.51,5.38,9.85.78,5.38-2.69,5.77-2.73,11.07-.29,5.32,3.56,5.19,2.92,10.69a9,9,0,0,1-.4,1.55c-2.38-.77-4.66-1.31-6.75-4.28-3.37-5.32.64-7.09-2.29-12.4-2.66-5.41-6.41-4.11-8.27-10-1.59-6,1.84-6.9.65-12.76-.92-5.9-4-5.36-4-11.55C324.49,291.87,326.13,290.66,327.13,287.5Z" transform="translate(-80.09 -52.09)"/><g class="cls-169"><g class="cls-24"><line class="cls-25" x1="255.41" y1="203.13" x2="270.83" y2="302.27"/><polyline class="cls-25" points="243.32 278.81 269.4 293.07 289.91 271.56"/><polyline class="cls-25" points="240.93 263.47 267.01 277.73 287.53 256.22"/><polyline class="cls-25" points="238.54 248.13 264.62 262.38 285.14 240.88"/><polyline class="cls-25" points="236.16 232.79 262.24 247.04 282.75 225.54"/><polyline class="cls-25" points="233.77 217.45 259.85 231.7 280.37 210.2"/><polyline class="cls-25" points="231.38 202.1 257.46 216.36 277.98 194.85"/></g></g><path class="cls-170" d="M296.3,319.7c-2.66-4.59-4.16-3.45-6.17-8.62-1.78-5.3-1-8.48-2.45-13.76,5.37,1,8.48,0,13.91,1.31,5.32,1.58,4.3,3.16,9.1,5.43,4.67,2.48,6.13.68,10.77,3.52,4.51,3,2.63,5,6.5,8.55,3.69,3.74,6,1.69,9.63,5.76,3.4,4.25.61,6.35,3.26,10.94,2.45,4.73,5.7,2.66,7.94,7.73,2,5.19-1.67,7.18-.5,12.55-5.45-.73-7.13,3.1-12.47,1.53-5.23-1.81-3.44-5.22-8.36-7.27-4.79-2.26-6.65.69-11.16-2.35-4.36-3.23-2.51-5.75-6.54-9.12-3.86-3.55-5.66-1.51-9.07-5.75C297.49,325.75,299.15,324.15,296.3,319.7Z" transform="translate(-80.09 -52.09)"/><g class="cls-171"><g class="cls-24"><line class="cls-25" x1="205.6" y1="243.4" x2="270.47" y2="303.1"/><polyline class="cls-25" points="238.71 302.04 264.44 297.56 266.77 271.55"/><polyline class="cls-25" points="228.68 292.8 254.41 288.32 256.74 262.31"/><polyline class="cls-25" points="218.64 283.56 244.37 279.08 246.7 253.07"/><polyline class="cls-25" points="208.6 274.32 234.33 269.84 236.66 243.83"/><polyline class="cls-25" points="198.56 265.08 224.29 260.61 226.62 234.59"/><polyline class="cls-25" points="188.53 255.84 214.25 251.37 216.58 225.35"/></g></g><path class="cls-172" d="M382,296.51c4.4-3,3.15-4.38,8.17-6.76,5.16-2.14,8.38-1.63,13.55-3.41-.59,5.44.62,8.47-.33,14-1.2,5.42-2.86,4.52-4.78,9.46-2.14,4.83-.25,6.16-2.75,11-2.71,4.71-4.81,3-8.08,7.07-3.47,4-1.26,6.14-5.07,10-4,3.69-6.29,1.06-10.68,4-4.54,2.77-2.26,5.87-7.15,8.46-5,2.36-7.28-1.16-12.56.38.34-5.48-3.59-6.89-2.4-12.33,1.44-5.35,5-3.8,6.66-8.85,1.92-4.94-1.15-6.59,1.56-11.3,2.93-4.58,5.56-2.91,8.64-7.16,3.28-4.1,1.12-5.76,5.11-9.45C376,298.12,377.73,299.67,382,296.51Z" transform="translate(-80.09 -52.09)"/><g class="cls-173"><g class="cls-24"><line class="cls-25" x1="325.29" y1="232.14" x2="270.29" y2="301.03"/><polyline class="cls-25" points="269.12 269.29 275.39 294.64 301.5 295.14"/><polyline class="cls-25" points="277.63 258.63 283.9 283.98 310.01 284.48"/><polyline class="cls-25" points="286.14 247.96 292.41 273.32 318.52 273.82"/><polyline class="cls-25" points="294.65 237.3 300.93 262.66 327.04 263.16"/><polyline class="cls-25" points="303.17 226.64 309.44 251.99 335.55 252.49"/><polyline class="cls-25" points="311.68 215.98 317.95 241.33 344.06 241.83"/></g></g><path class="cls-174" d="M251.83,78.64l-2.39-1.38V74.51a4.46,4.46,0,0,0-2-3.49c-1.12-.64-2-.12-2,1.16v2.75L243,73.55c-1.12-.64-2-.13-2,1.16a4.44,4.44,0,0,0,2,3.48l2.39,1.38v2.75a4.42,4.42,0,0,0,2,3.48c1.11.65,2,.13,2-1.15V81.9l2.39,1.38c1.11.65,2,.14,2-1.15A4.46,4.46,0,0,0,251.83,78.64Z" transform="translate(-80.09 -52.09)"/><path class="cls-175" d="M90.94,268.59l-2.39-1.38v-2.75a4.43,4.43,0,0,0-2-3.49c-1.12-.64-2-.12-2,1.16v2.75l-2.39-1.38c-1.12-.65-2-.13-2,1.15a4.48,4.48,0,0,0,2,3.49l2.4,1.38v2.75a4.39,4.39,0,0,0,2,3.48c1.11.65,2,.13,2-1.15v-2.75l2.39,1.38c1.12.64,2,.13,2-1.15A4.43,4.43,0,0,0,90.94,268.59Z" transform="translate(-80.09 -52.09)"/><path class="cls-176" d="M373.25,281.45l1.7-1c.79-.45.79-1.91,0-3.28a4.21,4.21,0,0,0-1.42-1.5,1.45,1.45,0,0,0-1.43-.15l-1.7,1-1.69-2.92a4.13,4.13,0,0,0-1.42-1.5,1.45,1.45,0,0,0-1.43-.15c-.79.45-.8,1.93,0,3.28l1.68,2.92-1.7,1c-.78.45-.79,1.92,0,3.28a4.16,4.16,0,0,0,1.42,1.51,1.42,1.42,0,0,0,1.43.14l1.7-1,1.69,2.93a4.13,4.13,0,0,0,1.42,1.5,1.42,1.42,0,0,0,1.43.14c.79-.45.79-1.92,0-3.27Z" transform="translate(-80.09 -52.09)"/><path class="cls-177" d="M114.81,135.06a2.53,2.53,0,0,1,1.09,2.36c-.12.89-.81,1.27-1.53.85a2.53,2.53,0,0,1-1.09-2.36C113.4,135,114.09,134.64,114.81,135.06Zm-.32,2.34c.33.2.65,0,.7-.39a1.15,1.15,0,0,0-.5-1.08c-.33-.19-.64,0-.7.39a1.16,1.16,0,0,0,.5,1.08" transform="translate(-80.09 -52.09)"/><path class="cls-178" d="M353.7,60.36A3.85,3.85,0,0,1,355.37,64c-.19,1.37-1.23,2-2.34,1.32a3.87,3.87,0,0,1-1.67-3.63C351.54,60.3,352.59,59.71,353.7,60.36Zm-.55,4c.71.41,1.39,0,1.51-.85a2.52,2.52,0,0,0-1.08-2.34c-.72-.4-1.39,0-1.51.85a2.49,2.49,0,0,0,1.08,2.34" transform="translate(-80.09 -52.09)"/><path class="cls-179" d="M158.86,77.06a4,4,0,0,1,1.56,1.67,16.65,16.65,0,0,0,.88,1.58,2.7,2.7,0,0,0,.86.76,1.43,1.43,0,0,0,1.3.18,4.74,4.74,0,0,1,1.26-.43,2.19,2.19,0,0,1,1.27.36.7.7,0,0,1,.3.63c0,.25-.22.35-.42.24a1.38,1.38,0,0,0-1.29-.18,4.82,4.82,0,0,1-1.27.43,2.17,2.17,0,0,1-1.23-.34,4.19,4.19,0,0,1-1.6-1.69,15.24,15.24,0,0,0-.88-1.57,2.61,2.61,0,0,0-.86-.77,1.44,1.44,0,0,0-1.29-.18,4.51,4.51,0,0,1-1.26.44,2.17,2.17,0,0,1-1.23-.34,4.12,4.12,0,0,1-1.6-1.69,16.38,16.38,0,0,0-.88-1.57,2.61,2.61,0,0,0-.86-.77,1.38,1.38,0,0,0-1.28-.17,5.37,5.37,0,0,1-1.27.43,2.17,2.17,0,0,1-1.23-.34,4.12,4.12,0,0,1-1.6-1.69,16.38,16.38,0,0,0-.88-1.57,2.67,2.67,0,0,0-.85-.77.68.68,0,0,1-.3-.64.27.27,0,0,1,.42-.23,4.18,4.18,0,0,1,1.56,1.67,13.78,13.78,0,0,0,.88,1.58,2.66,2.66,0,0,0,.85.76,1.41,1.41,0,0,0,1.29.18,4.52,4.52,0,0,1,1.26-.43,2.23,2.23,0,0,1,1.27.35,4,4,0,0,1,1.56,1.67,16.55,16.55,0,0,0,.89,1.58A2.56,2.56,0,0,0,155,77a1.41,1.41,0,0,0,1.29.18,4.87,4.87,0,0,1,1.26-.43A2.23,2.23,0,0,1,158.86,77.06Z" transform="translate(-80.09 -52.09)"/><path class="cls-179" d="M378.6,380.3a4,4,0,0,1,1.56,1.67,15.24,15.24,0,0,0,.88,1.57,2.72,2.72,0,0,0,.86.77,1.43,1.43,0,0,0,1.3.18,4.74,4.74,0,0,1,1.26-.43,2.19,2.19,0,0,1,1.27.36.7.7,0,0,1,.3.63c0,.24-.22.35-.42.24a1.38,1.38,0,0,0-1.29-.18,4.82,4.82,0,0,1-1.27.43,2.17,2.17,0,0,1-1.23-.34,4.19,4.19,0,0,1-1.6-1.69,15.24,15.24,0,0,0-.88-1.57,2.61,2.61,0,0,0-.86-.77,1.44,1.44,0,0,0-1.29-.18,4.86,4.86,0,0,1-1.26.44,2.17,2.17,0,0,1-1.23-.34,4.12,4.12,0,0,1-1.6-1.69,15.24,15.24,0,0,0-.88-1.57,2.61,2.61,0,0,0-.86-.77,1.39,1.39,0,0,0-1.28-.18,4.6,4.6,0,0,1-1.27.43,2.07,2.07,0,0,1-1.23-.33,4.12,4.12,0,0,1-1.6-1.69,15.24,15.24,0,0,0-.88-1.57,2.67,2.67,0,0,0-.85-.77.68.68,0,0,1-.3-.64.27.27,0,0,1,.42-.23,4.18,4.18,0,0,1,1.56,1.67,14.69,14.69,0,0,0,.88,1.58,2.66,2.66,0,0,0,.85.76,1.44,1.44,0,0,0,1.29.18,4.52,4.52,0,0,1,1.26-.43,2.15,2.15,0,0,1,1.27.35,4,4,0,0,1,1.56,1.67,16.55,16.55,0,0,0,.89,1.58,2.56,2.56,0,0,0,.85.76,1.41,1.41,0,0,0,1.29.18,4.52,4.52,0,0,1,1.26-.43A2.23,2.23,0,0,1,378.6,380.3Z" transform="translate(-80.09 -52.09)"/><path class="cls-7" d="M103.38,345.28A4.14,4.14,0,0,1,105,347a14.47,14.47,0,0,0,.88,1.57,2.79,2.79,0,0,0,.85.77,1.43,1.43,0,0,0,1.3.18,4.41,4.41,0,0,1,1.26-.43,2.23,2.23,0,0,1,1.27.35.68.68,0,0,1,.3.64c0,.24-.22.35-.41.23a1.43,1.43,0,0,0-1.3-.18,4.87,4.87,0,0,1-1.26.43,2.08,2.08,0,0,1-1.24-.33,4.15,4.15,0,0,1-1.6-1.7,15.49,15.49,0,0,0-.88-1.57,2.71,2.71,0,0,0-.86-.76A1.38,1.38,0,0,0,102,346a4.79,4.79,0,0,1-1.25.43,2.16,2.16,0,0,1-1.24-.33,4.25,4.25,0,0,1-1.6-1.69A17.83,17.83,0,0,0,97,342.8a2.81,2.81,0,0,0-.86-.76,1.41,1.41,0,0,0-1.29-.18,5,5,0,0,1-1.26.43,2.16,2.16,0,0,1-1.24-.33,4.21,4.21,0,0,1-1.6-1.7c-.34-.6-.56-1.14-.87-1.57a2.81,2.81,0,0,0-.86-.76.68.68,0,0,1-.29-.65.26.26,0,0,1,.41-.22,4.18,4.18,0,0,1,1.56,1.67,16.38,16.38,0,0,0,.88,1.57,2.79,2.79,0,0,0,.85.77,1.4,1.4,0,0,0,1.29.17,4.82,4.82,0,0,1,1.27-.43,2.24,2.24,0,0,1,1.26.36,4.14,4.14,0,0,1,1.57,1.67,14.47,14.47,0,0,0,.88,1.57,2.68,2.68,0,0,0,.85.77,1.4,1.4,0,0,0,1.29.17,4.82,4.82,0,0,1,1.27-.43A2.24,2.24,0,0,1,103.38,345.28Z" transform="translate(-80.09 -52.09)"/><path class="cls-178" d="M360.44,257.3a.69.69,0,0,1,.33.66c0,.25-.21.35-.41.23a1.34,1.34,0,0,0-1.29-.17,5,5,0,0,1-1.27.42,2.17,2.17,0,0,1-1.27-.35,4.11,4.11,0,0,1-1.56-1.67,16.65,16.65,0,0,0-.88-1.58,2.71,2.71,0,0,0-.86-.76,1.38,1.38,0,0,0-1.29-.18,4.23,4.23,0,0,1-1.26.42,2.16,2.16,0,0,1-1.28-.34,4.15,4.15,0,0,1-1.55-1.67,15.49,15.49,0,0,0-.88-1.58,2.71,2.71,0,0,0-.86-.76,1.38,1.38,0,0,0-1.29-.18,4.13,4.13,0,0,1-1.26.42,2.13,2.13,0,0,1-1.27-.34,4.18,4.18,0,0,1-1.56-1.67,15.49,15.49,0,0,0-.88-1.58,2.77,2.77,0,0,0-.85-.76.68.68,0,0,1-.3-.64c0-.25.22-.34.41-.23a4.25,4.25,0,0,1,1.57,1.66,15.59,15.59,0,0,0,.87,1.58,2.72,2.72,0,0,0,.86.77,1.44,1.44,0,0,0,1.29.18,4.86,4.86,0,0,1,1.26-.44,2.17,2.17,0,0,1,1.23.34,4.26,4.26,0,0,1,1.61,1.68,14.57,14.57,0,0,0,.87,1.58,2.79,2.79,0,0,0,.85.77,1.37,1.37,0,0,0,1.29.17,5.53,5.53,0,0,1,1.27-.43,2.17,2.17,0,0,1,1.23.34,4.26,4.26,0,0,1,1.61,1.68,11.75,11.75,0,0,0,.88,1.58,2.47,2.47,0,0,0,.85.77,1.41,1.41,0,0,0,1.29.18,5,5,0,0,1,1.26-.43A2.16,2.16,0,0,1,360.44,257.3Z" transform="translate(-80.09 -52.09)"/><path class="cls-178" d="M277,362.81a.7.7,0,0,1,.34.66c0,.24-.22.35-.42.23a1.37,1.37,0,0,0-1.29-.17,4.53,4.53,0,0,1-1.26.42,2.18,2.18,0,0,1-1.28-.35,4.25,4.25,0,0,1-1.56-1.67,16.65,16.65,0,0,0-.88-1.58,2.77,2.77,0,0,0-.85-.76,1.38,1.38,0,0,0-1.29-.18,4.5,4.5,0,0,1-1.27.42,2.15,2.15,0,0,1-1.27-.34,4.18,4.18,0,0,1-1.56-1.67,13.78,13.78,0,0,0-.88-1.58,2.77,2.77,0,0,0-.85-.76,1.38,1.38,0,0,0-1.29-.18,4.2,4.2,0,0,1-1.27.42,2.12,2.12,0,0,1-1.26-.34,4.14,4.14,0,0,1-1.57-1.67,13.78,13.78,0,0,0-.88-1.58,2.66,2.66,0,0,0-.85-.76.69.69,0,0,1-.29-.64c0-.25.22-.34.41-.23a4.22,4.22,0,0,1,1.56,1.66,14.48,14.48,0,0,0,.88,1.58,2.61,2.61,0,0,0,.86.77,1.41,1.41,0,0,0,1.29.18,4.45,4.45,0,0,1,1.25-.43,2.08,2.08,0,0,1,1.24.33,4.23,4.23,0,0,1,1.6,1.68,16.51,16.51,0,0,0,.87,1.58,2.83,2.83,0,0,0,.86.77,1.37,1.37,0,0,0,1.29.17,5,5,0,0,1,1.26-.42,2.08,2.08,0,0,1,1.24.33,4.23,4.23,0,0,1,1.6,1.68,14.48,14.48,0,0,0,.88,1.58,2.67,2.67,0,0,0,.85.77,1.41,1.41,0,0,0,1.29.18,5.09,5.09,0,0,1,1.27-.43A2.15,2.15,0,0,1,277,362.81Z" transform="translate(-80.09 -52.09)"/><path class="cls-180" d="M382.54,142.62a7.25,7.25,0,0,1,2,5.83c-.34,2.49-2.26,3.56-4.29,2.39l-12.4-7.16a9,9,0,0,1-3.9-8.45c.43-3.15,2.87-4.56,5.42-3.08a5.49,5.49,0,0,1,.54.35c1.46-2.48,4.17-3.12,6.9-1.54C380.45,133,382.91,138.17,382.54,142.62Zm-2,6.77c1.37.79,2.68.07,2.91-1.62a4.93,4.93,0,0,0-1.71-4.24,1.14,1.14,0,0,1-.41-1c.53-3.82-1.55-8.33-4.62-10.11-2.39-1.38-4.77-.71-5.91,1.67a.41.41,0,0,1-.62.19l-.13-.1a4.33,4.33,0,0,0-.75-.55c-1.93-1.11-3.76-.09-4.08,2.28a6.78,6.78,0,0,0,2.91,6.32l12.41,7.16" transform="translate(-80.09 -52.09)"/><path class="cls-181" d="M144.1,99.45c-1.21-.7-2.35-.06-2.55,1.42a4.41,4.41,0,0,0,1.24,3.51l-.22,1.6a1.16,1.16,0,0,0,.49,1.07c.33.19.64,0,.69-.39l.22-1.61c1,.22,1.78-.44,1.94-1.66A4.19,4.19,0,0,0,144.1,99.45Zm-.54,3.9a1.92,1.92,0,0,1-.83-1.8c.1-.68.62-1,1.17-.65a1.92,1.92,0,0,1,.83,1.81C144.64,103.38,144.12,103.67,143.56,103.35Z" transform="translate(-80.09 -52.09)"/><path class="cls-181" d="M147.51,98.3l.26-1.88a5.23,5.23,0,0,0-2.26-4.9l-.62-.36c-1.5-.87-2.91-.07-3.16,1.77l-.26,1.88c-1.42-.67-2.72.13-3,1.88l-.91,6.74a5.23,5.23,0,0,0,2.26,4.9l5.61,3.24c1.51.87,2.92.07,3.17-1.76l.92-6.74A5.28,5.28,0,0,0,147.51,98.3Zm-4.6-4.69c.14-1,.94-1.48,1.78-1l.62.36a2.93,2.93,0,0,1,1.28,2.76l-.25,1.87-3.69-2.13Zm5.47,8.77-.92,6.74c-.14,1-.94,1.49-1.79,1l-5.62-3.24a3,3,0,0,1-1.27-2.76l.92-6.74c.14-1,.94-1.49,1.78-1l.38.21,4.87,2.81.37.22A2.94,2.94,0,0,1,148.38,102.38Z" transform="translate(-80.09 -52.09)"/><path class="cls-182" d="M302.9,91.52s0-.06,0-.09a4.1,4.1,0,0,0-1.8-3.07l-11.83-6.83a1.52,1.52,0,0,0-2.33.74h0a2.55,2.55,0,0,0-.18.66l-1.37,10a4.18,4.18,0,0,0,1.8,3.91L299,103.73c1.19.69,2.32.06,2.52-1.41l1.37-10.06A3.65,3.65,0,0,0,302.9,91.52ZM289.06,83l11.83,6.82a1.79,1.79,0,0,1,.68.84l-7.44,2L288.27,83A.71.71,0,0,1,289.06,83Zm11.27,18.64c-.09.67-.6,1-1.14.65l-11.82-6.83a1.9,1.9,0,0,1-.82-1.77l1.26-9.27,5.77,9.52a1,1,0,0,0,.33.33.53.53,0,0,0,.36.07l7.32-2Z" transform="translate(-80.09 -52.09)"/><path class="cls-9" d="M426.43,220c4.77,2.76,8.14,8.86,7.49,13.59-.47,3.52-3,5.4-6.47,4.82-2.46,2.09-5.87.23-6.25,0a1.1,1.1,0,0,1-.53-.82.63.63,0,0,1,.28-.7,4,4,0,0,0,1.39-.93c-3.88-3.12-6.31-8.27-5.75-12.38C417.23,218.8,421.65,217.19,426.43,220Zm.67,16.79c3,.58,5.24-.94,5.64-3.88.54-3.93-2.38-9.07-6.51-11.46s-7.92-1.11-8.45,2.81c-.5,3.65,2,8.35,5.71,10.94a1.15,1.15,0,0,1,.4.61.86.86,0,0,1-.05.68,4.65,4.65,0,0,1-.91,1.11,3.89,3.89,0,0,0,3.82-.72.39.39,0,0,1,.35-.09" transform="translate(-80.09 -52.09)"/></g></g></svg>