<?xml version="1.0" encoding="utf-8"?>
<!-- Generator: Adobe Illustrator 25.0.0, SVG Export Plug-In . SVG Version: 6.00 Build 0)  -->
<svg version="1.1" id="Layer_1" xmlns="http://www.w3.org/2000/svg" xmlns:xlink="http://www.w3.org/1999/xlink" x="0px" y="0px"
	 viewBox="0 0 1024 1024" style="enable-background:new 0 0 1024 1024;" xml:space="preserve">
<style type="text/css">
	.st0{opacity:0.3;fill:#FFFFFF;}
	.st1{fill:#FFFFFF;}
</style>
<path class="st0" d="M269.6,539.7c0,172.7,140,312.8,312.7,312.8c172.7,0,312.8-140,312.8-312.7c0,0,0-0.1,0-0.1
	c0-172.7-140-312.8-312.7-312.8C409.6,226.9,269.6,366.9,269.6,539.7C269.6,539.7,269.6,539.7,269.6,539.7z"/>
<path class="st1" d="M512,97.4c-228.6,0-414.6,186-414.6,414.6c0.2,23.8,2.4,47.6,6.5,71c0,0.1,0.2,0.1,0.3,0.2
	c1.6,5.9,7,10,13.1,10c7.6,0,13.8-6.2,13.8-13.8c-0.1-0.4-0.2-0.9-0.3-1.3l0.2-0.1c-3.9-21.8-5.9-43.9-6-66
	C125.1,298.2,298.3,125,512,125s386.9,173.3,386.9,387S725.7,898.9,512,898.9c-142.8,0-267.2-77.6-334.2-192.7
	c0-0.1-0.1-0.1-0.1-0.2c-0.2-0.3-0.4-0.6-0.6-0.9c-3.5-6.7-11.7-9.4-18.4-5.9c-4.6,2.4-7.5,7.1-7.4,12.3c0.1,2.8,1,5.6,2.8,7.9
	l-0.2,0.1c71.9,123.5,205.4,207,358.3,207c228.6,0,414.6-186,414.6-414.6S740.6,97.4,512,97.4L512,97.4z"/>
<path class="st1" d="M663.2,483.6L663.2,483.6L533,380.6c-10.8-10.6-28.1-10.5-38.8,0.1L357.3,483.6l0.1,0.1
	c-5.7,5-6.2,13.7-1.1,19.4s13.7,6.2,19.4,1.1c0.4-0.3,0.7-0.7,1.1-1l0.1,0.1l123.1-89.1v297.4c0,7.6,6.2,13.8,13.8,13.8
	s13.8-6.2,13.8-13.8V413.9l116.4,89.4l0.1-0.1c5.1,5.6,13.8,5.9,19.4,0.8c5.4-5,5.9-13.4,1.1-19C664.1,484.4,663.7,484,663.2,483.6
	L663.2,483.6L663.2,483.6z M420.9,314.9h186.6c7.6,0,13.8,6.2,13.8,13.8s-6.2,13.8-13.8,13.8H420.9c-7.6,0-13.8-6.2-13.8-13.8
	S413.3,314.9,420.9,314.9z"/>
</svg>
