<?xml version="1.0" encoding="utf-8"?>
<!-- Generator: Adobe Illustrator 25.0.0, SVG Export Plug-In . SVG Version: 6.00 Build 0)  -->
<svg version="1.1" id="Layer_1" xmlns="http://www.w3.org/2000/svg" xmlns:xlink="http://www.w3.org/1999/xlink" x="0px" y="0px"
	 viewBox="0 0 64 64" style="enable-background:new 0 0 64 64;" xml:space="preserve">
<style type="text/css">
	.st0{fill:#231F20;}
</style>
<g>
	<path class="st0" d="M64,17.5c-2.7,1-4.8,3.2-5.6,6c-0.8-2.8-2.9-5-5.6-6c2.7-1,4.8-3.2,5.6-6C59.2,14.3,61.3,16.5,64,17.5z"/>
	<path class="st0" d="M49.6,30.7c-4.6,1.6-8.1,5.3-9.4,10c-1.4-4.6-4.9-8.3-9.4-10c4.5-1.7,8-5.4,9.4-10
		C41.6,25.4,45.1,29.1,49.6,30.7z"/>
	<path class="st0" d="M46.4,6.6c-3,1.1-5.3,3.5-6.2,6.6c-0.9-3-3.2-5.5-6.2-6.6c3-1.1,5.3-3.5,6.2-6.6C41.1,3.1,43.4,5.5,46.4,6.6z"
		/>
</g>
<path class="st0" d="M27.3,64C12.2,64,0,51.8,0,36.7c0-11.2,6.7-21.1,17-25.3l4.4-1.8l-2.8,3.8c-2.7,3.7-4.2,8.1-4.2,12.7
	c0,11.9,9.7,21.6,21.6,21.6c6,0,11.5-2.4,15.6-6.7l3.3-3.4l-1,4.6C51.4,54.9,40.2,64,27.3,64z M14,16C7,20.5,2.7,28.2,2.7,36.7
	c0,13.6,11,24.6,24.6,24.6c10.1,0,19-6.2,22.7-15.2c-4,2.9-8.9,4.4-14,4.4c-13.4,0-24.3-10.9-24.3-24.3C11.8,22.6,12.5,19.2,14,16z"
	/>
</svg>
