<?xml version="1.0" encoding="utf-8"?>
<!-- Generator: Adobe Illustrator 25.0.0, SVG Export Plug-In . SVG Version: 6.00 Build 0)  -->
<svg version="1.1" id="Layer_1" xmlns="http://www.w3.org/2000/svg" xmlns:xlink="http://www.w3.org/1999/xlink" x="0px" y="0px"
	 viewBox="0 0 64 64" style="enable-background:new 0 0 64 64;" xml:space="preserve">
<style type="text/css">
	.st0{fill:#C3CADC;}
</style>
<path class="st0" d="M11.5,17.6l3.7,41.8L32,64l16.8-4.6l3.7-41.8H11.5z M44.7,27.5l-0.2,2.6l-0.1,1.1H24.8l0.5,5.2H32v0h11.9
	l-1.4,15.7L32,55.1v0l0,0l-10.5-2.9l-0.7-8h5.1l0.4,4.1l5.7,1.5h0v0l5.7-1.5l0.6-6.6H20.5l-1.4-15.5h25.7L44.7,27.5z"/>
<g>
	<path class="st0" d="M7,14.3V1.9h4.5V6h2.7V1.9h4.5v12.4h-4.5V9.9h-2.7v4.4H7z"/>
	<path class="st0" d="M22.5,14.3V5.9h-2.5V1.9h9.4v4.1H27v8.3H22.5z"/>
	<path class="st0" d="M42.3,14.3l-0.5-4.9c0-0.2,0-0.4-0.1-0.6c0-0.2,0-0.4-0.1-0.6c0-0.5-0.1-0.9-0.1-1.1c-0.1,0.4-0.1,0.7-0.2,1.1
		c-0.1,0.3-0.2,0.7-0.3,1.3l-1.4,4.8h-2.7l-1.4-4.8c-0.1-0.5-0.3-0.9-0.3-1.3C35,7.7,35,7.3,34.9,7.1c0,0.5-0.1,0.9-0.1,1.1
		c0,0.2-0.1,0.6-0.1,1.1l-0.5,4.9h-4.4l2.1-12.4h4.6l0.9,3.1c0,0.1,0.1,0.2,0.1,0.4c0.4,1.4,0.6,2.4,0.7,3.2h0.1
		c0.1-0.5,0.2-1.1,0.3-1.7c0.1-0.5,0.3-1.2,0.5-2l0.9-3h4.6l2,12.4H42.3z"/>
	<path class="st0" d="M47.9,14.3V1.9h4.5v8.4h4.3v4H47.9z"/>
</g>
</svg>
