<svg width="84" height="118" viewBox="0 0 84 118" fill="none" xmlns="http://www.w3.org/2000/svg">
<path d="M0.308105 23.0314L7.85509 107.74L41.7515 117.141L75.7454 107.707L83.2924 22.9989H0.308105V23.0314ZM15.7599 40.3375H41.784V50.7146H16.7033L15.7599 40.3375ZM17.6141 61.3519H41.7515V71.729H18.5575L17.6141 61.3519ZM20.4768 93.2639L19.0129 76.9338H29.4551L30.2033 85.229L41.784 88.3519V99.1519H41.8165V88.3519L53.3647 85.229L54.5683 71.7615H41.8165V61.3844H55.4792L56.4225 50.7471H41.8165V40.3375H67.8081L65.9213 61.3519L65.6611 64.1495L63.2213 91.5073L63.0587 93.2639L41.784 99.1519H41.7189L20.4768 93.2639Z" fill="#C3CADC"/>
<path d="M19.8262 0H32.4153V5.26988H25.096V10.5398H32.4153V15.8096H19.8262V0ZM34.9527 0H47.5418V4.58675H40.2226V5.49759H47.5418V16.0373H34.9527V11.2229H42.2719V10.312H34.9527V0ZM50.0466 0H62.6358V4.58675H55.3165V5.49759H62.6358V16.0373H50.0466V11.2229H57.3659V10.312H50.0466V0Z" fill="#C3CADC"/>
<path d="M41.8167 61.3518H41.7842V71.7289H41.8167V61.3518Z" fill="white"/>
<path d="M41.7842 88.3517H41.8167V99.1517H41.7842V88.3517Z" fill="white"/>
</svg>
