<svg width="82" height="118" viewBox="0 0 82 118" fill="none" xmlns="http://www.w3.org/2000/svg">
<path d="M0 24.1814L7.51423 107.825L40.9328 117.141L74.3513 107.825L81.8655 24.1814H0ZM61.8935 93.5542L40.9328 99.3022L19.972 93.5542L18.3901 77.3011H28.6727L29.4637 85.4277L40.9328 88.599L52.4018 85.4277L53.5883 72.1477H40.9328V61.8409V72.1477H17.9946L15.2262 41.2273H40.9328V51.5341H26.4975L27.4863 62.0391H41.1305H64.8596L61.8935 93.5542ZM66.2438 44.0022L65.8484 49.1556L65.6506 51.5341H40.9328V41.2273H66.4416L66.2438 44.0022Z" fill="#C3CADC"/>
<path d="M8.10742 0H14.2374V5.54982H16.8081V0H22.9381V16.2531H16.8081V10.1086H14.2374V16.4513H8.10742V0Z" fill="#C3CADC"/>
<path d="M28.4749 4.16237H24.52V0H38.362V4.16237H34.4072V16.2531H28.2771V4.16237H28.4749Z" fill="#C3CADC"/>
<path d="M52.7974 12.0907C52.7974 9.9104 52.7974 6.34266 52.9951 4.16237H52.7974C52.4019 7.73011 51.8087 12.6853 51.4132 16.2531H46.8651C46.4696 11.8925 46.0741 8.32474 45.4809 4.36058H45.2832C45.2832 6.34266 45.4809 9.31578 45.4809 12.0907V16.2531H40.1418V0H48.447C48.6448 1.78387 49.0403 6.14445 49.0403 8.12653H49.4358C49.8312 4.9552 50.029 2.77491 50.4245 0H58.7297V16.2531H52.9951V12.0907H52.7974Z" fill="#C3CADC"/>
<path d="M61.1025 0H67.2326V12.0907H73.5603L72.9671 16.2531H61.1025V0Z" fill="#C3CADC"/>
</svg>
