<svg width="118" height="118" viewBox="0 0 118 118" fill="none" xmlns="http://www.w3.org/2000/svg">
<path d="M0.918945 58.5723V117.141H117.067V0H0.918945V58.5723ZM94.5188 53.9051C97.4678 54.6482 99.7181 55.9697 101.783 58.1257C102.854 59.2788 104.438 61.3799 104.567 61.8814C104.603 62.0278 99.5529 65.4505 96.4914 67.3667C96.3826 67.44 95.9379 66.9586 95.4389 66.2137C93.9453 64.0173 92.3792 63.0711 89.9819 62.9045C86.4613 62.663 84.1747 64.5225 84.211 67.6266C84.211 68.5381 84.338 69.0762 84.7082 69.823C85.4831 71.4409 86.9222 72.4073 91.4373 74.3803C99.7526 77.986 103.309 80.3653 105.52 83.7513C107.988 87.5253 108.543 93.5506 106.866 98.0311C105.023 102.903 100.451 106.212 94.0179 107.311C92.0271 107.664 87.3069 107.609 85.1692 107.219C80.5052 106.383 76.0808 104.058 73.3514 101.009C72.2807 99.8193 70.1992 96.7133 70.328 96.4882C70.3825 96.415 70.8634 96.1166 71.3988 95.8L75.7124 93.2925L79.0516 91.3396L79.7521 92.3829C80.7284 93.8892 82.868 95.9519 84.1583 96.6401C87.8641 98.6113 92.9527 98.3313 95.4588 96.0636C96.5295 95.0789 96.9705 94.0557 96.9705 92.5494C96.9705 91.1914 96.8072 90.5965 96.1049 89.5752C95.2011 88.2757 93.3573 87.1776 88.1199 84.8898C82.1276 82.2871 79.547 80.6692 77.1878 78.1031C75.8231 76.6151 74.5328 74.2358 73.9975 72.2462C73.5547 70.5917 73.444 66.4443 73.7942 64.7714C75.0283 58.9146 79.3982 54.8605 85.7045 53.6525C87.7516 53.2627 92.5098 53.4109 94.517 53.9124L94.5188 53.9051ZM67.252 58.7919L67.2883 63.5872H52.1714V106.91H41.4788V63.5872H26.3619V58.8834L26.4889 54.0515C26.5433 53.9783 35.7442 53.9417 46.8977 53.96L67.1958 54.0149L67.252 58.7919Z" fill="#C3CADC"/>
</svg>
