<svg width="132" height="118" viewBox="0 0 132 118" fill="none" xmlns="http://www.w3.org/2000/svg">
<path d="M131.843 58.5839C131.843 49.87 120.931 41.612 104.2 36.4909C108.061 19.4386 106.345 5.87179 98.7841 1.52827C97.0413 0.509424 95.0036 0.0268114 92.7782 0.0268114V6.00585C94.0116 6.00585 95.0036 6.24716 95.8348 6.70296C99.4812 8.79428 101.063 16.7574 99.8298 26.9995C99.5348 29.5198 99.0522 32.1742 98.4624 34.8822C93.2072 33.5952 87.4695 32.6032 81.4368 31.9597C77.8172 26.9995 74.0636 22.4951 70.2831 18.5538C79.0238 10.4298 87.2282 5.97904 92.8051 5.97904V0C85.4318 0 75.7795 5.25512 66.02 14.3711C56.2605 5.30875 46.6083 0.107248 39.235 0.107248V6.08629C44.785 6.08629 53.0163 10.5102 61.7569 18.5806C58.0033 22.5219 54.2496 26.9995 50.6837 31.9597C44.6242 32.6032 38.8864 33.5952 33.6313 34.909C33.0146 32.2278 32.5588 29.6271 32.2371 27.1336C30.9769 16.8915 32.532 8.92834 36.1516 6.81021C36.956 6.32759 38.0017 6.1131 39.235 6.1131V0.134059C36.9828 0.134059 34.9451 0.616672 33.1755 1.63552C25.6414 5.97904 23.9522 19.519 27.84 36.5177C11.163 41.6656 0.304199 49.8968 0.304199 58.5839C0.304199 67.2977 11.2166 75.5558 27.9472 80.6768C24.0863 97.7292 25.8023 111.296 33.3632 115.639C35.106 116.658 37.1437 117.141 39.3959 117.141C46.7691 117.141 56.4214 111.886 66.1809 102.77C75.9404 111.832 85.5927 117.034 92.9659 117.034C95.2181 117.034 97.2558 116.551 99.0254 115.532C106.56 111.189 108.249 97.6487 104.361 80.65C120.984 75.529 131.843 67.2709 131.843 58.5839ZM96.9341 40.7004C95.942 44.1591 94.7087 47.7251 93.3145 51.291C92.2152 49.1461 91.0623 47.0012 89.8021 44.8562C88.5688 42.7113 87.255 40.6199 85.9412 38.5822C89.7485 39.1453 93.4217 39.8424 96.9341 40.7004ZM84.6543 69.255C82.5629 72.8746 80.418 76.3065 78.1926 79.4971C74.1976 79.8457 70.1491 80.0333 66.0737 80.0333C62.0251 80.0333 57.9765 79.8457 54.0083 79.5239C51.7829 76.3333 49.6112 72.9282 47.5199 69.3354C45.4822 65.8231 43.6321 62.2571 41.943 58.6643C43.6053 55.0715 45.4822 51.4787 47.493 47.9664C49.5844 44.3468 51.7293 40.9149 53.9547 37.7243C57.9497 37.3757 61.9983 37.188 66.0737 37.188C70.1222 37.188 74.1708 37.3757 78.139 37.6974C80.3644 40.8881 82.5361 44.2932 84.6274 47.8859C86.6651 51.3983 88.5152 54.9643 90.2043 58.5571C88.5152 62.1498 86.6651 65.7426 84.6543 69.255ZM93.3145 65.7694C94.7623 69.3622 95.9957 72.955 97.0145 76.4406C93.5022 77.2985 89.8021 78.0225 85.968 78.5855C87.2818 76.521 88.5956 74.4029 89.829 72.2311C91.0623 70.0862 92.2152 67.9144 93.3145 65.7694ZM66.1273 94.3777C63.6338 91.8037 61.1403 88.9349 58.6736 85.7979C61.0867 85.9051 63.5533 85.9856 66.0468 85.9856C68.5672 85.9856 71.0607 85.932 73.5005 85.7979C71.0875 88.9349 68.594 91.8037 66.1273 94.3777ZM46.1793 78.5855C42.372 78.0225 38.6988 77.3254 35.1864 76.4674C36.1784 73.0086 37.4118 69.4427 38.806 65.8767C39.9053 68.0216 41.0582 70.1666 42.3184 72.3115C43.5785 74.4565 44.8655 76.5478 46.1793 78.5855ZM65.9932 22.7901C68.4867 25.364 70.9802 28.2329 73.4469 31.3699C71.0338 31.2626 68.5672 31.1822 66.0737 31.1822C63.5533 31.1822 61.0598 31.2358 58.62 31.3699C61.033 28.2329 63.5265 25.364 65.9932 22.7901ZM46.1525 38.5822C44.8387 40.6467 43.5249 42.7649 42.2915 44.9366C41.0582 47.0816 39.9053 49.2265 38.806 51.3715C37.3582 47.7787 36.1248 44.1859 35.106 40.7004C38.6183 39.8692 42.3184 39.1453 46.1525 38.5822ZM21.8877 72.1507C12.3963 68.1021 6.25643 62.7933 6.25643 58.5839C6.25643 54.3744 12.3963 49.0389 21.8877 45.0171C24.1936 44.025 26.7139 43.1403 29.3146 42.3091C30.8429 47.5642 32.8538 53.0338 35.3473 58.6375C32.8806 64.2144 30.8965 69.6572 29.3951 74.8855C26.7407 74.0543 24.2204 73.1427 21.8877 72.1507ZM36.3125 110.465C32.6661 108.373 31.0842 100.41 32.3175 90.1682C32.6125 87.6479 33.0951 84.9935 33.6849 82.2855C38.9401 83.5725 44.6778 84.5645 50.7105 85.208C54.3301 90.1682 58.0837 94.6726 61.8642 98.6139C53.1235 106.738 44.9191 111.189 39.3422 111.189C38.1357 111.162 37.1169 110.921 36.3125 110.465ZM99.9102 90.0342C101.17 100.276 99.6153 108.239 95.9957 110.358C95.1913 110.84 94.1456 111.055 92.9123 111.055C87.3622 111.055 79.131 106.631 70.3904 98.5603C74.144 94.619 77.8977 90.1414 81.4637 85.1812C87.5231 84.5377 93.2609 83.5457 98.516 82.2319C99.1327 84.9399 99.6153 87.5407 99.9102 90.0342ZM110.233 72.1507C107.927 73.1427 105.407 74.0275 102.806 74.8587C101.278 69.6035 99.2667 64.1339 96.7732 58.5302C99.2399 52.9534 101.224 47.5106 102.725 42.2823C105.38 43.1134 107.9 44.025 110.26 45.0171C119.751 49.0657 125.891 54.3744 125.891 58.5839C125.864 62.7933 119.724 68.1289 110.233 72.1507Z" fill="#C3CADC"/>
<path d="M66.0467 70.8367C72.8139 70.8367 78.2997 65.3508 78.2997 58.5837C78.2997 51.8165 72.8139 46.3307 66.0467 46.3307C59.2796 46.3307 53.7937 51.8165 53.7937 58.5837C53.7937 65.3508 59.2796 70.8367 66.0467 70.8367Z" fill="#C3CADC"/>
</svg>
