<svg width="131" height="125" viewBox="0 0 131 125" fill="none" xmlns="http://www.w3.org/2000/svg">
<path d="M90.9688 87.3135C95.7751 86.8107 99.4215 82.6236 99.2557 77.5985C99.0903 72.5739 94.9463 68.5539 89.9741 68.5539H89.6429C84.5043 68.7215 80.5267 73.0762 80.6925 78.2684C80.8584 80.781 81.8525 82.9583 83.3443 84.4658C77.7091 95.6882 69.0905 103.895 56.1625 110.763C47.378 115.452 38.2623 117.128 29.1466 115.955C21.688 114.95 15.8869 111.601 12.2401 106.073C6.93659 97.8656 6.43952 88.9881 10.9147 80.1111C14.064 73.7461 19.0357 69.0562 22.1851 66.7112C21.5221 64.5339 20.5275 60.8491 20.0304 58.1694C-4.00256 75.7564 -1.51618 99.5406 5.77659 110.763C11.2459 119.138 22.3509 124.33 34.6159 124.33C37.9306 124.33 41.2453 123.995 44.5604 123.158C65.7758 118.97 81.8531 106.24 90.9688 87.3135ZM120.14 66.5441C107.543 51.6369 88.98 43.4298 67.7646 43.4298H65.1129C63.6211 40.4149 60.4718 38.4047 56.9913 38.4047H56.6596C51.522 38.5723 47.5444 42.927 47.7097 48.1197C47.8756 53.1443 52.0191 57.1643 56.9913 57.1643H57.3225C60.9689 56.9967 64.1182 54.6517 65.4441 51.4693H68.4275C81.0243 51.4693 92.9576 55.1541 103.731 62.3565C112.018 67.884 117.985 75.0864 121.3 83.7958C124.117 90.8307 123.952 97.698 120.968 103.561C116.328 112.438 108.538 117.295 98.2615 117.295C91.6317 117.295 85.3336 115.285 82.0184 113.777C80.1955 115.452 76.8803 118.132 74.5598 119.808C81.6872 123.157 88.98 125 95.941 125C111.852 125 123.62 116.122 128.096 107.245C132.902 97.5304 132.57 80.781 120.14 66.5441ZM35.9418 90.1603C36.1077 95.1854 40.2511 99.2049 45.2234 99.2049H45.5551C50.6932 99.0378 54.6708 94.6826 54.5049 89.4904C54.3396 84.4652 50.1956 80.4458 45.2234 80.4458H44.8921C44.5604 80.4458 44.0628 80.4458 43.7321 80.6128C36.9365 69.2233 34.1189 56.8291 35.1135 43.4293C35.7759 33.3795 39.0911 24.6696 44.8921 17.4671C49.6985 11.2698 58.9801 8.25492 65.2787 8.08782C82.8472 7.75261 90.3053 29.8618 90.8029 38.7394C92.9576 39.2417 96.6039 40.4144 99.0903 41.2519C97.101 14.1181 80.5267 0.0483398 64.6158 0.0483398C49.6985 0.0483398 35.9418 10.9356 30.472 27.0151C22.848 48.4544 27.8202 69.0562 37.1018 85.3033C36.2735 86.4755 35.7759 88.3181 35.9418 90.1608V90.1603Z" fill="#C3CADC"/>
</svg>
