<svg width="118" height="118" viewBox="0 0 118 118" fill="none" xmlns="http://www.w3.org/2000/svg">
<path d="M0.46875 0V117.141H117.61V0H0.46875ZM64.2099 91.3791C64.2099 102.773 57.5292 107.989 47.7827 107.989C38.9971 107.989 33.8722 103.413 31.264 97.9225L40.2326 92.523C41.9714 95.5888 43.5272 98.1971 47.3251 98.1971C50.94 98.1971 53.2279 96.7786 53.2279 91.2876V53.8574H64.2099V91.3791ZM90.2463 107.944C80.0422 107.944 73.4073 103.047 70.2042 96.687L79.1728 91.5164C81.5522 95.3601 84.618 98.1971 90.0175 98.1971C94.5933 98.1971 97.4761 95.9091 97.4761 92.7518C97.4761 88.9997 94.5018 87.6269 89.4684 85.4305L86.7229 84.2408C78.761 80.8547 73.4988 76.5992 73.4988 67.6306C73.4988 59.3941 79.7677 53.0795 89.6057 53.0795C96.6067 53.0795 101.64 55.5047 105.255 61.8651L96.6982 67.356C94.8221 63.9699 92.763 62.6429 89.6057 62.6429C86.4026 62.6429 84.3435 64.7021 84.3435 67.356C84.3435 70.6506 86.4026 71.9776 91.1157 74.0367L93.8612 75.2264C103.242 79.2532 108.504 83.3256 108.504 92.523C108.504 102.544 100.679 107.944 90.2463 107.944Z" fill="#C3CADC"/>
</svg>
