<svg width="195" height="118" viewBox="0 0 195 118" fill="none" xmlns="http://www.w3.org/2000/svg">
<path d="M46.4135 30.8599H83.0358V33.7707H49.7705V55.6782H81.0521V58.589H49.7705V82.6414H83.4173V85.5522H46.4135V30.8599ZM86.3166 30.8599H90.2077L107.451 54.9122L125.075 30.8599L149.047 0.307861L109.663 57.44L129.958 85.5522H125.914L107.451 59.9678L88.9106 85.5522H84.9432L105.391 57.44L86.3166 30.8599ZM131.408 33.7707V30.8599H173.142V33.7707H153.915V85.5522H150.558V33.7707H131.408ZM0.597412 30.8599H4.79372L62.6584 117.449L38.7457 85.5522L4.10705 34.9963L3.95446 85.5522H0.597412V30.8599ZM172.804 81.7629C172.118 81.7629 171.604 81.2315 171.604 80.5448C171.604 79.858 172.118 79.3266 172.804 79.3266C173.498 79.3266 174.004 79.858 174.004 80.5448C174.004 81.2315 173.498 81.7629 172.804 81.7629ZM176.102 78.5581H177.899C177.923 79.531 178.634 80.185 179.679 80.185C180.846 80.185 181.508 79.4819 181.508 78.1656V69.8263H183.337V78.1738C183.337 80.5448 181.965 81.9101 179.695 81.9101C177.564 81.9101 176.102 80.5856 176.102 78.5581ZM185.729 78.4518H187.542C187.697 79.5718 188.791 80.2831 190.367 80.2831C191.837 80.2831 192.914 79.5228 192.914 78.4763C192.914 77.577 192.229 77.0374 190.669 76.6695L189.15 76.3015C187.019 75.8028 186.048 74.7727 186.048 73.0394C186.048 70.9382 187.762 69.5402 190.334 69.5402C192.727 69.5402 194.474 70.9382 194.58 72.925H192.8C192.629 71.8376 191.681 71.159 190.31 71.159C188.865 71.159 187.901 71.8539 187.901 72.9168C187.901 73.7589 188.522 74.2413 190.057 74.601L191.355 74.9198C193.772 75.484 194.768 76.4651 194.768 78.2392C194.768 80.4957 193.021 81.9101 190.228 81.9101C187.615 81.9101 185.86 80.5611 185.729 78.4518Z" fill="#C3CADC"/>
</svg>
