<svg width="104" height="118" viewBox="0 0 104 118" fill="none" xmlns="http://www.w3.org/2000/svg">
<path d="M101.498 57.8537C101.498 62.8657 97.4429 66.9207 92.431 66.9207C87.4191 66.9207 83.364 62.8657 83.364 57.8537C83.364 52.8418 87.4191 48.7867 92.431 48.7867C97.3974 48.8323 101.498 52.8874 101.498 57.8537Z" fill="#C3CADC"/>
<path d="M20.5515 64.3506C24.0923 60.8098 24.0923 55.0689 20.5515 51.5281C17.0106 47.9872 11.2698 47.9872 7.7289 51.5281C4.18805 55.0689 4.18805 60.8098 7.72891 64.3506C11.2698 67.8915 17.0106 67.8915 20.5515 64.3506Z" fill="#C3CADC"/>
<path d="M62.4052 57.8537C62.4052 62.8657 58.3502 66.9207 53.3382 66.9207C48.3263 66.9207 44.2712 62.8657 44.2712 57.8537C44.2712 52.8418 48.3263 48.7867 53.3382 48.7867C58.3502 48.8323 62.4052 52.8874 62.4052 57.8537Z" fill="#C3CADC"/>
<path d="M103.548 0.307861L88.9684 43.3647C88.3305 43.5014 87.7382 43.7292 87.1459 43.9571L72.7025 14.5235L58.2135 43.7748C57.5756 43.547 56.9377 43.3647 56.2998 43.2281L41.7197 0.307861H103.548Z" fill="#C3CADC"/>
<path d="M102.546 81.2731C101.68 86.3761 98.5365 90.7957 93.9347 93.4384C89.6518 95.8988 84.5487 96.6733 79.1268 97.4479C76.2107 97.858 73.2036 98.3136 70.2876 99.0426C62.5419 100.956 55.024 104.692 47.734 108.292C33.1994 115.536 20.6241 121.778 8.73219 113.532C0.0752497 107.517 0.439752 96.4 1.4877 90.2946C2.44452 84.6448 4.95047 79.4506 7.41087 74.3931C7.82093 73.5274 8.231 72.6617 8.64106 71.796C9.87126 72.2972 11.147 72.6162 12.5139 72.7529C10.0079 80.9997 13.9263 89.93 22.1732 94.1674L23.3123 94.7597L24.4969 94.3496C31.0124 92.0259 37.0267 88.3354 42.312 83.2779C45.7292 80.0429 48.6908 76.4434 51.1512 72.6162C51.8802 72.7073 52.6092 72.7984 53.3838 72.7984C61.5851 72.7984 68.2372 66.1463 68.2828 57.9449V57.8538C68.2828 53.4342 66.3692 49.4703 63.2709 46.7365L72.6568 27.7823L82.1339 47.101C79.309 49.8348 77.5321 53.662 77.5321 57.8994C77.5321 57.9905 77.5321 58.0361 77.5321 58.1272C77.6688 66.2374 84.2754 72.844 92.4311 72.844C95.5749 72.844 98.5365 71.8416 100.951 70.1558C102.592 73.573 103.229 77.4003 102.546 81.2731Z" fill="#C3CADC"/>
</svg>
