<svg width="157" height="118" viewBox="0 0 157 118" fill="none" xmlns="http://www.w3.org/2000/svg">
<path d="M134.85 67.2656C129.401 67.2964 124.682 68.6087 120.725 70.5627C119.263 67.6628 117.802 65.1288 117.559 63.2366C117.285 61.0387 116.95 59.6953 117.285 57.0704C117.619 54.4449 119.142 50.7208 119.142 50.4156C119.111 50.1409 118.806 48.7977 115.671 48.7672C112.536 48.7367 109.826 49.3777 109.521 50.2019C109.217 51.0261 108.608 52.9187 108.212 54.8723C107.664 57.7417 101.941 67.9067 98.6835 73.2486C97.618 71.1729 96.7047 69.3413 96.5217 67.8758C96.248 65.6783 95.9128 64.3349 96.248 61.71C96.5829 59.0845 98.1051 55.3607 98.1051 55.0555C98.0746 54.7807 97.7702 53.4376 94.6348 53.4071C91.4988 53.3766 88.7897 54.0176 88.4852 54.8418C88.1808 55.666 87.8459 57.6196 87.1762 59.5122C86.5365 61.4047 78.9257 78.3769 76.9468 82.8031C75.9422 85.0619 75.0596 86.8629 74.42 88.084C73.7807 89.305 74.3896 88.1755 74.3287 88.2976C73.7807 89.3355 73.4763 89.9155 73.4763 89.9155V89.9463C73.0501 90.7094 72.5934 91.4417 72.38 91.4417C72.2278 91.4417 71.9234 89.3966 72.4409 86.5885C73.5673 80.6968 76.3072 71.509 76.2771 71.1732C76.2771 71.0206 76.7943 69.4024 74.5111 68.5785C72.2887 67.7543 71.4975 69.128 71.3145 69.128C71.1318 69.128 70.9796 69.6164 70.9796 69.6164C70.9796 69.6164 73.4455 59.2686 66.2609 59.2686C61.7552 59.2686 55.5448 64.1832 52.47 68.6704C50.5216 69.7388 46.3813 71.9974 41.9974 74.4092C40.323 75.3249 38.5877 76.3018 36.9438 77.187L36.6092 76.8201C27.9024 67.5098 11.7978 60.9163 12.4675 48.4009C12.7111 43.8526 14.2942 31.8561 43.3984 17.326C67.2357 5.42113 86.3237 8.68735 89.6418 15.9524C94.3605 26.331 79.4432 45.6231 54.6625 48.4009C45.225 49.4693 40.2624 45.8063 39.0146 44.4326C37.7055 42.9979 37.5228 42.9369 37.0357 43.2116C36.2442 43.6389 36.7313 44.921 37.0357 45.6841C37.7664 47.6073 40.8107 51.0261 45.9861 52.7355C50.5219 54.2313 61.6036 55.0555 74.9988 49.8661C90.0074 44.0358 101.728 27.8573 98.288 14.3345C94.787 0.567588 72.0153 -3.95018 50.4918 3.7117C37.6748 8.29052 23.7925 15.4335 13.8071 24.8048C1.9341 35.916 0.0466082 45.6231 0.838139 49.6525C3.6088 64.0299 23.3663 73.4012 31.2816 80.3305C30.8859 80.5439 30.5205 80.7576 30.1857 80.941C26.228 82.8943 11.1585 90.8007 7.38349 99.1644C3.1214 108.627 8.05324 115.435 11.3411 116.35C21.5093 119.189 31.9209 114.092 37.553 105.697C43.1543 97.3026 42.4848 86.4051 39.8971 81.4294L39.8055 81.2463L42.9107 79.4147C44.9203 78.2242 46.8991 77.1253 48.6341 76.1787C47.6602 78.8344 46.9597 81.9786 46.5947 86.5574C46.1685 91.9302 48.3604 98.8896 51.2525 101.637C52.5312 102.827 54.0533 102.858 54.9971 102.858C58.3459 102.858 59.868 100.08 61.5424 96.7529C63.6126 92.693 65.4392 87.9921 65.4392 87.9921C65.4392 87.9921 63.1559 100.721 69.3969 100.721C71.6801 100.721 73.9634 97.7602 74.9985 96.2339V96.2645C74.9985 96.2645 75.0593 96.1729 75.1811 95.9592C75.3089 95.7698 75.4307 95.5765 75.5464 95.3795V95.3185C76.4597 93.7312 78.4995 90.0986 81.5438 84.0851C85.4707 76.3317 89.246 66.6246 89.246 66.6246C89.246 66.6246 89.6113 69.0056 90.7377 72.9128C91.4072 75.2331 92.8685 77.7664 93.9949 80.2389C93.0816 81.521 92.5336 82.2539 92.5336 82.2539L92.564 82.2844C91.8337 83.2612 91.0114 84.2994 90.1593 85.337C87.0541 89.0611 83.34 93.3044 82.8529 94.5254C82.2744 95.9598 82.3962 97.0282 83.5226 97.8832C84.3446 98.4937 85.8059 98.6155 87.3585 98.4937C90.1593 98.3103 92.1077 97.6085 93.0819 97.1808C94.6041 96.6314 96.3393 95.8072 98.0137 94.5862C101.058 92.3276 102.915 89.1224 102.732 84.8489C102.641 82.4984 101.88 80.1785 100.936 77.9807C101.21 77.5838 101.485 77.1867 101.758 76.7596C106.568 69.708 110.282 61.9548 110.282 61.9548C110.282 61.9548 110.648 64.3358 111.774 68.243C112.352 70.2272 113.509 72.3948 114.545 74.5316C110.039 78.2252 107.208 82.4987 106.233 85.3071C104.437 90.4964 105.838 92.8468 108.486 93.3963C109.673 93.6405 111.378 93.091 112.657 92.5416C114.24 92.0227 116.158 91.1371 117.924 89.8248C120.968 87.5659 123.891 84.4218 123.738 80.1788C123.647 78.2252 123.13 76.3021 122.429 74.4705C126.265 72.8832 131.227 71.9675 137.529 72.7306C151.077 74.3179 153.756 82.804 153.239 86.3449C152.721 89.8862 149.89 91.8395 148.946 92.45C148.002 93.03 147.697 93.244 147.789 93.671C147.911 94.3124 148.337 94.2815 149.159 94.1597C150.285 93.9763 156.283 91.2598 156.526 84.7277C156.891 76.332 148.946 67.1743 134.85 67.2656ZM30.3683 102.584C25.8931 107.498 19.5913 109.36 16.9123 107.773C14.0202 106.094 15.1463 98.8594 20.6568 93.6396C24.0056 90.4649 28.359 87.5345 31.2207 85.7335C31.86 85.3367 32.8342 84.757 33.9911 84.0546C34.1737 83.9328 34.2955 83.8715 34.2955 83.8715C34.5086 83.7494 34.7522 83.5967 34.9957 83.4441C37.0354 90.8923 35.0871 97.4247 30.3683 102.584ZM63.0951 80.2695C61.5424 84.0851 58.2545 93.8838 56.2757 93.3343C54.5706 92.8764 53.5358 85.4588 55.9405 78.1327C57.1583 74.4388 59.746 70.0434 61.2681 68.3337C63.7344 65.5864 66.4131 64.6707 67.0832 65.8001C67.8747 67.2656 64.0692 77.8885 63.0951 80.2695ZM90.0984 93.2122C89.4287 93.5483 88.8198 93.7922 88.5458 93.6094C88.3327 93.4873 88.8195 93.0294 88.8195 93.0294C88.8195 93.0294 92.1987 89.3969 93.5382 87.718C94.2993 86.7415 95.2126 85.612 96.1868 84.3296V84.6959C96.1871 89.0913 91.9859 92.0217 90.0984 93.2122ZM110.921 88.4503C110.434 88.084 110.496 86.9545 112.139 83.4136C112.779 82.0094 114.24 79.6589 116.767 77.4306C117.071 78.3463 117.254 79.2313 117.223 80.0558C117.193 85.5503 113.296 87.5956 110.921 88.4503Z" fill="#C3CADC"/>
</svg>
