<?xml version="1.0" encoding="utf-8"?>
<!-- Generator: Adobe Illustrator 25.0.0, SVG Export Plug-In . SVG Version: 6.00 Build 0)  -->
<svg version="1.1" id="Layer_1" xmlns="http://www.w3.org/2000/svg" xmlns:xlink="http://www.w3.org/1999/xlink" x="0px" y="0px"
	 viewBox="0 0 64 64" style="enable-background:new 0 0 64 64;" xml:space="preserve">
<style type="text/css">
	.st0{fill:#E44D26;}
	.st1{fill:#F16529;}
	.st2{fill:#EBEBEB;}
	.st3{fill:#FFFFFF;}
</style>
<path class="st0" d="M15.3,59.4l-3.7-41.8h40.9l-3.7,41.8L32,64L15.3,59.4z"/>
<path class="st1" d="M45.5,56.7L48.7,21H32v39.4L45.5,56.7z"/>
<path class="st2" d="M32,26.1H19.2l1.4,15.5H32v-5.1h-6.8l-0.5-5.2H32L32,26.1L32,26.1z M32,49.8L32,49.8l-5.7-1.5l-0.4-4.1h-5.1
	l0.7,8L32,55.1l0,0V49.8z"/>
<path class="st3" d="M32,41.6h6.3l-0.6,6.6L32,49.8v5.3l10.5-2.9l1.4-15.7H32L32,41.6z M44.7,27.5l0.1-1.4H32v5.1h12.4l0.1-1.2
	L44.7,27.5z"/>
<g>
	<path d="M7,14.3V1.9h4.5V6h2.7V1.9h4.5v12.4h-4.5V9.9h-2.7v4.4H7z"/>
	<path d="M22.5,14.3V5.9h-2.5V1.9h9.4v4.1H27v8.3H22.5z"/>
	<path d="M42.3,14.3l-0.5-4.9c0-0.2,0-0.4-0.1-0.6c0-0.2,0-0.4-0.1-0.6c0-0.5-0.1-0.9-0.1-1.1c-0.1,0.4-0.1,0.7-0.2,1.1
		c-0.1,0.3-0.2,0.7-0.3,1.3l-1.4,4.8h-2.7l-1.4-4.8c-0.1-0.5-0.3-0.9-0.3-1.3C35,7.7,35,7.3,34.9,7.1c0,0.5-0.1,0.9-0.1,1.1
		c0,0.2-0.1,0.6-0.1,1.1l-0.5,4.9h-4.4l2.1-12.4h4.6l0.9,3.1c0,0.1,0.1,0.2,0.1,0.4c0.4,1.4,0.6,2.4,0.7,3.2h0.1
		c0.1-0.5,0.2-1.1,0.3-1.7c0.1-0.5,0.3-1.2,0.5-2l0.9-3h4.6l2,12.4H42.3z"/>
	<path d="M47.9,14.3V1.9h4.5v8.4h4.3v4H47.9z"/>
</g>
</svg>
