<?xml version="1.0" encoding="utf-8"?>
<!-- Generator: Adobe Illustrator 25.0.0, SVG Export Plug-In . SVG Version: 6.00 Build 0)  -->
<svg version="1.1" id="Layer_1" xmlns="http://www.w3.org/2000/svg" xmlns:xlink="http://www.w3.org/1999/xlink" x="0px" y="0px"
	 viewBox="0 0 64 64" style="enable-background:new 0 0 64 64;" xml:space="preserve">
<style type="text/css">
	.st0{display:none;}
	.st1{fill:#C3CADC;}
</style>
<g id="Layer_1_1_" class="st0">
</g>
<g>
	<circle class="st1" cx="31.9" cy="32.3" r="13.7"/>
	<path class="st1" d="M31.6,16.1c1.7,0,3.1-1.3,3.1-3V4.4c0-1.7-1.4-3.1-3.1-3.1s-3.1,1.3-3.1,3V13C28.5,14.7,29.9,16.1,31.6,16.1z"
		/>
	<path class="st1" d="M42.4,20.7c0.5,0.4,1.1,0.8,2.1,0.8c0.7,0,1.6-0.4,2.1-0.8l6.1-6.1c0.6-0.6,0.9-1.4,0.9-2.2s-0.3-1.6-0.9-2.2
		c-0.6-0.6-1.4-0.9-2.2-0.9c-0.8,0-1.6,0.3-2.1,0.8l-6.1,6.1c-0.6,0.6-0.9,1.4-0.9,2.2c0,0.8,0.3,1.6,0.9,2.2L42.4,20.7z"/>
	<path class="st1" d="M59,28.3h-8.7c-1.7,0-3.1,1.4-3.1,3.1s1.4,3.1,3.1,3.1H59c1.7,0,3.1-1.4,3.1-3.1S60.7,28.3,59,28.3z"/>
	<path class="st1" d="M47.1,43.5c-1.2-1.2-3.1-1.2-4.3,0c-0.6,0.6-0.9,1.4-0.9,2.2c0,0.8,0.4,1.6,0.9,2.2l6.1,6.1H49
		c0.5,0.4,1.1,0.8,2.1,0.8c0.9,0,1.6-0.3,2.1-0.9c1.2-1.2,1.2-3.1,0-4.3L47.1,43.5z"/>
	<path class="st1" d="M31.6,48.4c-1.7,0-3.1,1.4-3.1,3.1v8.7c0,1.7,1.4,3.1,3.1,3.1s3.1-1.3,3.1-3v-8.8
		C34.7,49.8,33.3,48.4,31.6,48.4z"/>
	<path class="st1" d="M19.9,43.3c-0.5-0.4-1.1-0.8-2.1-0.8c-1.2,0-1.9,0.5-2.2,1l-6,6c-0.6,0.6-0.9,1.4-0.9,2.2
		c0,0.8,0.3,1.6,0.9,2.2c0.6,0.6,1.4,0.9,2.2,0.9c0.8,0,1.6-0.4,2.1-1l6.1-6.1C21.2,46.5,21.2,44.6,19.9,43.3L19.9,43.3z"/>
	<path class="st1" d="M16.6,31.4c0-1.7-1.4-3.1-3.1-3.1H4.8c-1.7,0-3.1,1.4-3.1,3.1s1.4,3.1,3.1,3.1h8.7
		C15.2,34.5,16.6,33.1,16.6,31.4z"/>
	<path class="st1" d="M15.6,20.5c0.6,0.6,1.4,0.9,2.2,0.9c0.8,0,1.6-0.3,2.2-0.9c1.2-1.2,1.2-3.1,0-4.3l-6.1-6.1L13.7,10
		c-0.5-0.4-1.1-0.8-2.1-0.8c-0.9,0-1.7,0.3-2.2,0.9s-0.8,1.3-0.8,2.1c0,0.8,0.3,1.6,0.9,2.2L15.6,20.5z"/>
</g>
</svg>
