<?xml version="1.0" encoding="utf-8"?>
<!-- Generator: Adobe Illustrator 25.0.0, SVG Export Plug-In . SVG Version: 6.00 Build 0)  -->
<svg version="1.1" id="Layer_1" xmlns="http://www.w3.org/2000/svg" xmlns:xlink="http://www.w3.org/1999/xlink" x="0px" y="0px"
	 viewBox="0 0 64 64" style="enable-background:new 0 0 64 64;" xml:space="preserve">
<style type="text/css">
	.st0{display:none;}
	.st1{fill:#FFFFFF;}
	.st2{fill:#FFFFFF;stroke:#FFFFFF;stroke-width:8;stroke-miterlimit:10;}
</style>
<g id="Layer_1_1_" class="st0">
</g>
<g id="Layer_2_1_">
	<g>
		<circle class="st1" cx="32" cy="32" r="12.4"/>
		<path class="st1" d="M32,45.7c-7.6,0-13.7-6.2-13.7-13.7c0-7.6,6.2-13.7,13.7-13.7c7.6,0,13.7,6.2,13.7,13.7
			C45.7,39.6,39.6,45.7,32,45.7z M32,21c-6.1,0-11,4.9-11,11c0,6.1,4.9,11,11,11c6.1,0,11-4.9,11-11C43,25.9,38.1,21,32,21z"/>
	</g>
	<g>
		<g>
			<path class="st1" d="M31.7,14.5c-1,0-1.7-0.8-1.7-1.7V4c0-1,0.8-1.7,1.7-1.7s1.7,0.8,1.7,1.7v8.7C33.5,13.7,32.7,14.5,31.7,14.5z
				"/>
			<path class="st1" d="M31.7,15.8c-1.7,0-3.1-1.4-3.1-3.1V4C28.6,2.3,30,1,31.7,1c1.7,0,3.1,1.4,3.1,3.1v8.7
				C34.8,14.5,33.4,15.8,31.7,15.8z M31.7,3.7c-0.2,0-0.4,0.2-0.4,0.4v8.7c0,0.2,0.2,0.4,0.4,0.4c0.2,0,0.4-0.2,0.4-0.4V4
				C32.1,3.8,31.9,3.7,31.7,3.7z"/>
		</g>
		<g>
			<path class="st1" d="M44.6,19.8c-0.5,0-0.9-0.2-1.3-0.5c-0.7-0.7-0.7-1.7,0-2.4l6.1-6.1c0.7-0.7,1.7-0.7,2.4,0s0.7,1.7,0,2.4
				l-6.1,6.1C45.4,19.6,45,19.8,44.6,19.8z"/>
			<path class="st1" d="M44.6,21.2c-1,0-1.6-0.4-2.1-0.8l-0.1-0.1c-0.6-0.6-0.9-1.4-0.9-2.2c0-0.8,0.3-1.6,0.9-2.2l6.1-6.1
				C49,9.3,49.8,9,50.6,9c0.8,0,1.6,0.3,2.2,0.9c0.6,0.6,0.9,1.4,0.9,2.2c0,0.8-0.3,1.6-0.9,2.2l-6.1,6.1
				C46.2,20.8,45.3,21.2,44.6,21.2z M44.2,18.3c0.2,0.1,0.3,0.1,0.3,0.1c0.1,0,0.2-0.1,0.2-0.1l6.1-6.1C51,12.2,51,12.1,51,12
				c0-0.1,0-0.2-0.1-0.3c-0.1-0.1-0.4-0.1-0.5,0l-6.1,6.1c-0.1,0.1-0.1,0.2-0.1,0.3C44.2,18.2,44.2,18.2,44.2,18.3z"/>
		</g>
		<g>
			<path class="st1" d="M59.1,32.9h-8.7c-1,0-1.7-0.8-1.7-1.7s0.8-1.7,1.7-1.7h8.7c1,0,1.7,0.8,1.7,1.7S60,32.9,59.1,32.9z"/>
			<path class="st1" d="M59.1,34.2h-8.7c-1.7,0-3.1-1.4-3.1-3.1c0-1.7,1.4-3.1,3.1-3.1h8.7c1.7,0,3.1,1.4,3.1,3.1
				C62.2,32.8,60.8,34.2,59.1,34.2z M50.4,30.7c-0.2,0-0.4,0.2-0.4,0.4c0,0.2,0.2,0.4,0.4,0.4h8.7c0.2,0,0.4-0.2,0.4-0.4
				c0-0.2-0.2-0.4-0.4-0.4H50.4z"/>
		</g>
		<g>
			<path class="st1" d="M51.2,53.2c-0.5,0-0.9-0.2-1.3-0.5l-6.1-6.1c-0.7-0.7-0.7-1.7,0-2.4s1.7-0.7,2.4,0l6.1,6.1
				c0.7,0.7,0.7,1.7,0,2.4C52.1,53,51.7,53.2,51.2,53.2z"/>
			<path class="st1" d="M51.2,54.5c-1,0-1.6-0.4-2.1-0.8L49,53.7l-6.1-6.1C42.4,47,42,46.2,42,45.4c0-0.8,0.3-1.6,0.9-2.2
				c1.2-1.2,3.1-1.2,4.3,0l6.1,6.1c1.2,1.2,1.2,3.1,0,4.3C52.8,54.2,52.1,54.5,51.2,54.5z M50.9,51.7c0.2,0.2,0.3,0.2,0.4,0.2
				c0.1,0,0.1,0,0.2-0.1c0.1-0.1,0.1-0.4,0-0.5l-6.1-6.1c-0.1-0.1-0.4-0.1-0.5,0c-0.1,0.1-0.1,0.2-0.1,0.3c0,0.1,0,0.2,0.1,0.3
				L50.9,51.7z"/>
		</g>
		<g>
			<path class="st1" d="M31.7,49.5c1,0,1.7,0.8,1.7,1.7V60c0,1-0.8,1.7-1.7,1.7S30,60.9,30,60v-8.7C30,50.3,30.7,49.5,31.7,49.5z"/>
			<path class="st1" d="M31.7,63c-1.7,0-3.1-1.4-3.1-3.1v-8.7c0-1.7,1.4-3.1,3.1-3.1c1.7,0,3.1,1.4,3.1,3.1V60
				C34.8,61.7,33.4,63,31.7,63z M31.7,50.9c-0.2,0-0.4,0.2-0.4,0.4V60c0,0.2,0.2,0.4,0.4,0.4c0.2,0,0.4-0.2,0.4-0.4v-8.7
				C32.1,51,31.9,50.9,31.7,50.9z"/>
		</g>
		<g>
			<path class="st1" d="M18,43.6c0.5,0,0.9,0.2,1.3,0.5c0.7,0.7,0.7,1.7,0,2.4l-6.1,6.1c-0.7,0.7-1.7,0.7-2.4,0s-0.7-1.7,0-2.4
				l6.1-6.1C17,43.7,17.5,43.6,18,43.6z"/>
			<path class="st1" d="M11.9,54.5c-0.8,0-1.6-0.3-2.2-0.9c-0.6-0.6-0.9-1.4-0.9-2.2c0-0.8,0.3-1.6,0.9-2.2l6-6c0.3-0.5,1-1,2.2-1
				c1,0,1.6,0.4,2.1,0.8l0.1,0.1c1.2,1.2,1.2,3.1,0,4.3l-6.1,6.1C13.5,54.1,12.7,54.5,11.9,54.5z M17.9,45l-6.2,6.2
				c-0.1,0.1-0.1,0.2-0.1,0.3s0,0.2,0.1,0.3c0.1,0.1,0.2,0.1,0.3,0.1c0.1,0,0.2,0,0.3-0.1l6.1-6.1c0.1-0.1,0.1-0.3,0-0.5
				C18.1,45,18,45,18,45C17.9,45,17.9,45,17.9,45z"/>
		</g>
		<g>
			<path class="st1" d="M4.9,29.4h8.7c1,0,1.7,0.8,1.7,1.7c0,1-0.8,1.7-1.7,1.7H4.9c-1,0-1.7-0.8-1.7-1.7S4,29.4,4.9,29.4z"/>
			<path class="st1" d="M13.6,34.2H4.9c-1.7,0-3.1-1.4-3.1-3.1c0-1.7,1.4-3.1,3.1-3.1h8.7c1.7,0,3.1,1.4,3.1,3.1
				C16.7,32.8,15.3,34.2,13.6,34.2z M4.9,30.7c-0.2,0-0.4,0.2-0.4,0.4c0,0.2,0.2,0.4,0.4,0.4h8.7c0.2,0,0.4-0.2,0.4-0.4
				c0-0.2-0.2-0.4-0.4-0.4H4.9z"/>
		</g>
		<g>
			<path class="st1" d="M11.8,10.2c0.5,0,0.9,0.2,1.3,0.5l6.1,6.1c0.7,0.7,0.7,1.7,0,2.4c-0.7,0.7-1.7,0.7-2.4,0l-6.1-6.1
				c-0.7-0.7-0.7-1.7,0-2.4C10.9,10.3,11.4,10.2,11.8,10.2z"/>
			<path class="st1" d="M17.9,21.1c-0.8,0-1.6-0.3-2.2-0.9l-6.1-6.1c-0.6-0.6-0.9-1.4-0.9-2.2c0-0.8,0.3-1.5,0.8-2.1
				c0.5-0.6,1.3-0.9,2.2-0.9c1,0,1.6,0.4,2.1,0.8L14,9.8l6.1,6.1c1.2,1.2,1.2,3.1,0,4.3C19.5,20.8,18.7,21.1,17.9,21.1z M11.7,11.6
				L11.7,11.6c-0.2,0.2-0.2,0.3-0.2,0.3c0,0.1,0,0.2,0.1,0.3l6.1,6.1c0.1,0.1,0.4,0.1,0.5,0c0.1-0.1,0.1-0.4,0-0.5l-6-6
				c-0.2-0.2-0.3-0.2-0.4-0.2C11.7,11.6,11.7,11.6,11.7,11.6z"/>
		</g>
	</g>
	<path class="st2" d="M32,32"/>
</g>
</svg>
