<svg width="145" height="93" viewBox="0 0 145 93" fill="none" xmlns="http://www.w3.org/2000/svg">
<path fill-rule="evenodd" clip-rule="evenodd" d="M93.2816 2.72632C94.9811 0.98066 97.2858 0 99.6888 0C102.092 0 104.397 0.98066 106.096 2.72632L142.347 39.9729C144.046 41.7191 145 44.0871 145 46.5562C145 49.0253 144.046 51.3934 142.347 53.1395L106.096 90.3861C104.387 92.0823 102.098 93.0209 99.7215 92.9996C97.3453 92.9784 95.0722 91.9991 93.392 90.2727C91.7117 88.5462 90.7586 86.2107 90.7379 83.7693C90.7173 81.3278 91.6307 78.9756 93.2816 77.2195L114.062 55.8679H9.06262C6.65906 55.8679 4.35395 54.8868 2.65438 53.1405C0.954809 51.3943 0 49.0258 0 46.5562C0 44.0866 0.954809 41.7182 2.65438 39.9719C4.35395 38.2256 6.65906 37.2446 9.06262 37.2446H114.062L93.2816 15.893C91.5826 14.1468 90.6282 11.7788 90.6282 9.30965C90.6282 6.84054 91.5826 4.47251 93.2816 2.72632Z" fill="#3AAFC9"/>
</svg>
